<svg xmlns="http://www.w3.org/2000/svg" width="436" height="251" viewBox="0 0 436 251">
  <style>
    @import url('https://fonts.googleapis.com/css2?family=Fira+Code:wght@400;700&amp;display=swap');
    text { font-family: Fira Code, Menlo, Monaco, Consolas, monospace; font-size: 14px; dominant-baseline: text-before-edge; }
    .bold { font-weight: bold; }
    .italic { font-style: italic; }
    .underline { text-decoration: underline; }
    .strikethrough { text-decoration: line-through; }
  </style>
  <rect width="100%" height="100%" fill="#000000"/>
  <rect x="8.0" y="8.0" width="8.4" height="19.6" fill="#1E1E2E"/>
  <rect x="16.4" y="8.0" width="8.4" height="19.6" fill="#1E1E2E"/>
  <rect x="24.8" y="8.0" width="8.4" height="19.6" fill="#1E1E2E"/>
  <rect x="33.2" y="8.0" width="8.4" height="19.6" fill="#1E1E2E"/>
  <rect x="41.6" y="8.0" width="8.4" height="19.6" fill="#1E1E2E"/>
  <rect x="50.0" y="8.0" width="8.4" height="19.6" fill="#1E1E2E"/>
  <rect x="58.4" y="8.0" width="8.4" height="19.6" fill="#1E1E2E"/>
  <rect x="66.8" y="8.0" width="8.4" height="19.6" fill="#1E1E2E"/>
  <rect x="75.2" y="8.0" width="8.4" height="19.6" fill="#1E1E2E"/>
  <rect x="83.6" y="8.0" width="8.4" height="19.6" fill="#1E1E2E"/>
  <rect x="92.0" y="8.0" width="8.4" height="19.6" fill="#1E1E2E"/>
  <rect x="100.4" y="8.0" width="8.4" height="19.6" fill="#1E1E2E"/>
  <rect x="108.8" y="8.0" width="8.4" height="19.6" fill="#1E1E2E"/>
  <rect x="117.2" y="8.0" width="8.4" height="19.6" fill="#1E1E2E"/>
  <rect x="125.6" y="8.0" width="8.4" height="19.6" fill="#1E1E2E"/>
  <rect x="134.0" y="8.0" width="8.4" height="19.6" fill="#1E1E2E"/>
  <rect x="142.4" y="8.0" width="8.4" height="19.6" fill="#1E1E2E"/>
  <rect x="150.8" y="8.0" width="8.4" height="19.6" fill="#1E1E2E"/>
  <rect x="159.2" y="8.0" width="8.4" height="19.6" fill="#1E1E2E"/>
  <rect x="167.6" y="8.0" width="8.4" height="19.6" fill="#1E1E2E"/>
  <rect x="176.0" y="8.0" width="8.4" height="19.6" fill="#1E1E2E"/>
  <rect x="184.4" y="8.0" width="8.4" height="19.6" fill="#1E1E2E"/>
  <rect x="192.8" y="8.0" width="8.4" height="19.6" fill="#1E1E2E"/>
  <rect x="201.2" y="8.0" width="8.4" height="19.6" fill="#1E1E2E"/>
  <rect x="209.6" y="8.0" width="8.4" height="19.6" fill="#1E1E2E"/>
  <rect x="218.0" y="8.0" width="8.4" height="19.6" fill="#1E1E2E"/>
  <rect x="226.4" y="8.0" width="8.4" height="19.6" fill="#1E1E2E"/>
  <rect x="234.8" y="8.0" width="8.4" height="19.6" fill="#1E1E2E"/>
  <rect x="243.2" y="8.0" width="8.4" height="19.6" fill="#1E1E2E"/>
  <rect x="251.6" y="8.0" width="8.4" height="19.6" fill="#1E1E2E"/>
  <rect x="260.0" y="8.0" width="8.4" height="19.6" fill="#1E1E2E"/>
  <rect x="268.4" y="8.0" width="8.4" height="19.6" fill="#1E1E2E"/>
  <rect x="276.8" y="8.0" width="8.4" height="19.6" fill="#1E1E2E"/>
  <rect x="285.2" y="8.0" width="8.4" height="19.6" fill="#1E1E2E"/>
  <rect x="293.6" y="8.0" width="8.4" height="19.6" fill="#1E1E2E"/>
  <rect x="302.0" y="8.0" width="8.4" height="19.6" fill="#1E1E2E"/>
  <rect x="310.4" y="8.0" width="8.4" height="19.6" fill="#1E1E2E"/>
  <rect x="318.8" y="8.0" width="8.4" height="19.6" fill="#1E1E2E"/>
  <rect x="327.2" y="8.0" width="8.4" height="19.6" fill="#1E1E2E"/>
  <rect x="335.6" y="8.0" width="8.4" height="19.6" fill="#1E1E2E"/>
  <rect x="344.0" y="8.0" width="8.4" height="19.6" fill="#1E1E2E"/>
  <rect x="352.4" y="8.0" width="8.4" height="19.6" fill="#1E1E2E"/>
  <rect x="360.8" y="8.0" width="8.4" height="19.6" fill="#1E1E2E"/>
  <rect x="369.2" y="8.0" width="8.4" height="19.6" fill="#1E1E2E"/>
  <rect x="377.6" y="8.0" width="8.4" height="19.6" fill="#1E1E2E"/>
  <text x="8.0" y="8.0" fill="#89B4FA">╭───────────────────────────────────────────╮</text>
  <rect x="8.0" y="27.6" width="8.4" height="19.6" fill="#1E1E2E"/>
  <rect x="16.4" y="27.6" width="8.4" height="19.6" fill="#1E1E2E"/>
  <rect x="24.8" y="27.6" width="8.4" height="19.6" fill="#1E1E2E"/>
  <rect x="33.2" y="27.6" width="8.4" height="19.6" fill="#1E1E2E"/>
  <rect x="41.6" y="27.6" width="8.4" height="19.6" fill="#1E1E2E"/>
  <rect x="50.0" y="27.6" width="8.4" height="19.6" fill="#1E1E2E"/>
  <rect x="58.4" y="27.6" width="8.4" height="19.6" fill="#1E1E2E"/>
  <rect x="66.8" y="27.6" width="8.4" height="19.6" fill="#1E1E2E"/>
  <rect x="75.2" y="27.6" width="8.4" height="19.6" fill="#1E1E2E"/>
  <rect x="83.6" y="27.6" width="8.4" height="19.6" fill="#1E1E2E"/>
  <rect x="92.0" y="27.6" width="8.4" height="19.6" fill="#1E1E2E"/>
  <rect x="100.4" y="27.6" width="8.4" height="19.6" fill="#1E1E2E"/>
  <rect x="108.8" y="27.6" width="8.4" height="19.6" fill="#1E1E2E"/>
  <rect x="117.2" y="27.6" width="8.4" height="19.6" fill="#1E1E2E"/>
  <rect x="125.6" y="27.6" width="8.4" height="19.6" fill="#1E1E2E"/>
  <rect x="134.0" y="27.6" width="8.4" height="19.6" fill="#1E1E2E"/>
  <rect x="142.4" y="27.6" width="8.4" height="19.6" fill="#1E1E2E"/>
  <rect x="150.8" y="27.6" width="8.4" height="19.6" fill="#1E1E2E"/>
  <rect x="159.2" y="27.6" width="8.4" height="19.6" fill="#1E1E2E"/>
  <rect x="167.6" y="27.6" width="8.4" height="19.6" fill="#1E1E2E"/>
  <rect x="176.0" y="27.6" width="8.4" height="19.6" fill="#1E1E2E"/>
  <rect x="184.4" y="27.6" width="8.4" height="19.6" fill="#1E1E2E"/>
  <rect x="192.8" y="27.6" width="8.4" height="19.6" fill="#1E1E2E"/>
  <rect x="201.2" y="27.6" width="8.4" height="19.6" fill="#1E1E2E"/>
  <rect x="209.6" y="27.6" width="8.4" height="19.6" fill="#1E1E2E"/>
  <rect x="218.0" y="27.6" width="8.4" height="19.6" fill="#1E1E2E"/>
  <rect x="226.4" y="27.6" width="8.4" height="19.6" fill="#1E1E2E"/>
  <rect x="234.8" y="27.6" width="8.4" height="19.6" fill="#1E1E2E"/>
  <rect x="243.2" y="27.6" width="8.4" height="19.6" fill="#1E1E2E"/>
  <rect x="251.6" y="27.6" width="8.4" height="19.6" fill="#1E1E2E"/>
  <rect x="260.0" y="27.6" width="8.4" height="19.6" fill="#1E1E2E"/>
  <rect x="268.4" y="27.6" width="8.4" height="19.6" fill="#1E1E2E"/>
  <rect x="276.8" y="27.6" width="8.4" height="19.6" fill="#1E1E2E"/>
  <rect x="285.2" y="27.6" width="8.4" height="19.6" fill="#1E1E2E"/>
  <rect x="293.6" y="27.6" width="8.4" height="19.6" fill="#1E1E2E"/>
  <rect x="302.0" y="27.6" width="8.4" height="19.6" fill="#1E1E2E"/>
  <rect x="310.4" y="27.6" width="8.4" height="19.6" fill="#1E1E2E"/>
  <rect x="318.8" y="27.6" width="8.4" height="19.6" fill="#1E1E2E"/>
  <rect x="327.2" y="27.6" width="8.4" height="19.6" fill="#1E1E2E"/>
  <rect x="335.6" y="27.6" width="8.4" height="19.6" fill="#1E1E2E"/>
  <rect x="344.0" y="27.6" width="8.4" height="19.6" fill="#1E1E2E"/>
  <rect x="352.4" y="27.6" width="8.4" height="19.6" fill="#1E1E2E"/>
  <rect x="360.8" y="27.6" width="8.4" height="19.6" fill="#1E1E2E"/>
  <rect x="369.2" y="27.6" width="8.4" height="19.6" fill="#1E1E2E"/>
  <rect x="377.6" y="27.6" width="8.4" height="19.6" fill="#1E1E2E"/>
  <text x="8.0" y="27.6" fill="#89B4FA">│</text>
  <text x="377.6" y="27.6" fill="#89B4FA">│</text>
  <rect x="8.0" y="47.2" width="8.4" height="19.6" fill="#1E1E2E"/>
  <rect x="16.4" y="47.2" width="8.4" height="19.6" fill="#1E1E2E"/>
  <rect x="24.8" y="47.2" width="8.4" height="19.6" fill="#1E1E2E"/>
  <rect x="33.2" y="47.2" width="8.4" height="19.6" fill="#1E1E2E"/>
  <rect x="41.6" y="47.2" width="8.4" height="19.6" fill="#1E1E2E"/>
  <rect x="50.0" y="47.2" width="8.4" height="19.6" fill="#1E1E2E"/>
  <rect x="58.4" y="47.2" width="8.4" height="19.6" fill="#1E1E2E"/>
  <rect x="66.8" y="47.2" width="8.4" height="19.6" fill="#1E1E2E"/>
  <rect x="75.2" y="47.2" width="8.4" height="19.6" fill="#1E1E2E"/>
  <rect x="83.6" y="47.2" width="8.4" height="19.6" fill="#1E1E2E"/>
  <rect x="92.0" y="47.2" width="8.4" height="19.6" fill="#1E1E2E"/>
  <rect x="100.4" y="47.2" width="8.4" height="19.6" fill="#1E1E2E"/>
  <rect x="108.8" y="47.2" width="8.4" height="19.6" fill="#1E1E2E"/>
  <rect x="117.2" y="47.2" width="8.4" height="19.6" fill="#1E1E2E"/>
  <rect x="125.6" y="47.2" width="8.4" height="19.6" fill="#1E1E2E"/>
  <rect x="134.0" y="47.2" width="8.4" height="19.6" fill="#1E1E2E"/>
  <rect x="142.4" y="47.2" width="8.4" height="19.6" fill="#1E1E2E"/>
  <rect x="150.8" y="47.2" width="8.4" height="19.6" fill="#1E1E2E"/>
  <rect x="159.2" y="47.2" width="8.4" height="19.6" fill="#1E1E2E"/>
  <rect x="167.6" y="47.2" width="8.4" height="19.6" fill="#1E1E2E"/>
  <rect x="176.0" y="47.2" width="8.4" height="19.6" fill="#1E1E2E"/>
  <rect x="184.4" y="47.2" width="8.4" height="19.6" fill="#1E1E2E"/>
  <rect x="192.8" y="47.2" width="8.4" height="19.6" fill="#1E1E2E"/>
  <rect x="201.2" y="47.2" width="8.4" height="19.6" fill="#1E1E2E"/>
  <rect x="209.6" y="47.2" width="8.4" height="19.6" fill="#1E1E2E"/>
  <rect x="218.0" y="47.2" width="8.4" height="19.6" fill="#1E1E2E"/>
  <rect x="226.4" y="47.2" width="8.4" height="19.6" fill="#1E1E2E"/>
  <rect x="234.8" y="47.2" width="8.4" height="19.6" fill="#1E1E2E"/>
  <rect x="243.2" y="47.2" width="8.4" height="19.6" fill="#1E1E2E"/>
  <rect x="251.6" y="47.2" width="8.4" height="19.6" fill="#1E1E2E"/>
  <rect x="260.0" y="47.2" width="8.4" height="19.6" fill="#1E1E2E"/>
  <rect x="268.4" y="47.2" width="8.4" height="19.6" fill="#1E1E2E"/>
  <rect x="276.8" y="47.2" width="8.4" height="19.6" fill="#1E1E2E"/>
  <rect x="285.2" y="47.2" width="8.4" height="19.6" fill="#1E1E2E"/>
  <rect x="293.6" y="47.2" width="8.4" height="19.6" fill="#1E1E2E"/>
  <rect x="302.0" y="47.2" width="8.4" height="19.6" fill="#1E1E2E"/>
  <rect x="310.4" y="47.2" width="8.4" height="19.6" fill="#1E1E2E"/>
  <rect x="318.8" y="47.2" width="8.4" height="19.6" fill="#1E1E2E"/>
  <rect x="327.2" y="47.2" width="8.4" height="19.6" fill="#1E1E2E"/>
  <rect x="335.6" y="47.2" width="8.4" height="19.6" fill="#1E1E2E"/>
  <rect x="344.0" y="47.2" width="8.4" height="19.6" fill="#1E1E2E"/>
  <rect x="352.4" y="47.2" width="8.4" height="19.6" fill="#1E1E2E"/>
  <rect x="360.8" y="47.2" width="8.4" height="19.6" fill="#1E1E2E"/>
  <rect x="369.2" y="47.2" width="8.4" height="19.6" fill="#1E1E2E"/>
  <rect x="377.6" y="47.2" width="8.4" height="19.6" fill="#1E1E2E"/>
  <text x="8.0" y="47.2" fill="#89B4FA">│</text>
  <text x="33.2" y="47.2" class="bold" fill="#CBA6F7">Terma Snapshot Demo                    </text>
  <text x="377.6" y="47.2" fill="#89B4FA">│</text>
  <rect x="8.0" y="66.8" width="8.4" height="19.6" fill="#1E1E2E"/>
  <rect x="16.4" y="66.8" width="8.4" height="19.6" fill="#1E1E2E"/>
  <rect x="24.8" y="66.8" width="8.4" height="19.6" fill="#1E1E2E"/>
  <rect x="33.2" y="66.8" width="8.4" height="19.6" fill="#1E1E2E"/>
  <rect x="41.6" y="66.8" width="8.4" height="19.6" fill="#1E1E2E"/>
  <rect x="50.0" y="66.8" width="8.4" height="19.6" fill="#1E1E2E"/>
  <rect x="58.4" y="66.8" width="8.4" height="19.6" fill="#1E1E2E"/>
  <rect x="66.8" y="66.8" width="8.4" height="19.6" fill="#1E1E2E"/>
  <rect x="75.2" y="66.8" width="8.4" height="19.6" fill="#1E1E2E"/>
  <rect x="83.6" y="66.8" width="8.4" height="19.6" fill="#1E1E2E"/>
  <rect x="92.0" y="66.8" width="8.4" height="19.6" fill="#1E1E2E"/>
  <rect x="100.4" y="66.8" width="8.4" height="19.6" fill="#1E1E2E"/>
  <rect x="108.8" y="66.8" width="8.4" height="19.6" fill="#1E1E2E"/>
  <rect x="117.2" y="66.8" width="8.4" height="19.6" fill="#1E1E2E"/>
  <rect x="125.6" y="66.8" width="8.4" height="19.6" fill="#1E1E2E"/>
  <rect x="134.0" y="66.8" width="8.4" height="19.6" fill="#1E1E2E"/>
  <rect x="142.4" y="66.8" width="8.4" height="19.6" fill="#1E1E2E"/>
  <rect x="150.8" y="66.8" width="8.4" height="19.6" fill="#1E1E2E"/>
  <rect x="159.2" y="66.8" width="8.4" height="19.6" fill="#1E1E2E"/>
  <rect x="167.6" y="66.8" width="8.4" height="19.6" fill="#1E1E2E"/>
  <rect x="176.0" y="66.8" width="8.4" height="19.6" fill="#1E1E2E"/>
  <rect x="184.4" y="66.8" width="8.4" height="19.6" fill="#1E1E2E"/>
  <rect x="192.8" y="66.8" width="8.4" height="19.6" fill="#1E1E2E"/>
  <rect x="201.2" y="66.8" width="8.4" height="19.6" fill="#1E1E2E"/>
  <rect x="209.6" y="66.8" width="8.4" height="19.6" fill="#1E1E2E"/>
  <rect x="218.0" y="66.8" width="8.4" height="19.6" fill="#1E1E2E"/>
  <rect x="226.4" y="66.8" width="8.4" height="19.6" fill="#1E1E2E"/>
  <rect x="234.8" y="66.8" width="8.4" height="19.6" fill="#1E1E2E"/>
  <rect x="243.2" y="66.8" width="8.4" height="19.6" fill="#1E1E2E"/>
  <rect x="251.6" y="66.8" width="8.4" height="19.6" fill="#1E1E2E"/>
  <rect x="260.0" y="66.8" width="8.4" height="19.6" fill="#1E1E2E"/>
  <rect x="268.4" y="66.8" width="8.4" height="19.6" fill="#1E1E2E"/>
  <rect x="276.8" y="66.8" width="8.4" height="19.6" fill="#1E1E2E"/>
  <rect x="285.2" y="66.8" width="8.4" height="19.6" fill="#1E1E2E"/>
  <rect x="293.6" y="66.8" width="8.4" height="19.6" fill="#1E1E2E"/>
  <rect x="302.0" y="66.8" width="8.4" height="19.6" fill="#1E1E2E"/>
  <rect x="310.4" y="66.8" width="8.4" height="19.6" fill="#1E1E2E"/>
  <rect x="318.8" y="66.8" width="8.4" height="19.6" fill="#1E1E2E"/>
  <rect x="327.2" y="66.8" width="8.4" height="19.6" fill="#1E1E2E"/>
  <rect x="335.6" y="66.8" width="8.4" height="19.6" fill="#1E1E2E"/>
  <rect x="344.0" y="66.8" width="8.4" height="19.6" fill="#1E1E2E"/>
  <rect x="352.4" y="66.8" width="8.4" height="19.6" fill="#1E1E2E"/>
  <rect x="360.8" y="66.8" width="8.4" height="19.6" fill="#1E1E2E"/>
  <rect x="369.2" y="66.8" width="8.4" height="19.6" fill="#1E1E2E"/>
  <rect x="377.6" y="66.8" width="8.4" height="19.6" fill="#1E1E2E"/>
  <text x="8.0" y="66.8" fill="#89B4FA">│</text>
  <text x="377.6" y="66.8" fill="#89B4FA">│</text>
  <rect x="8.0" y="86.4" width="8.4" height="19.6" fill="#1E1E2E"/>
  <rect x="16.4" y="86.4" width="8.4" height="19.6" fill="#1E1E2E"/>
  <rect x="24.8" y="86.4" width="8.4" height="19.6" fill="#1E1E2E"/>
  <rect x="33.2" y="86.4" width="8.4" height="19.6" fill="#1E1E2E"/>
  <rect x="41.6" y="86.4" width="8.4" height="19.6" fill="#1E1E2E"/>
  <rect x="50.0" y="86.4" width="8.4" height="19.6" fill="#1E1E2E"/>
  <rect x="58.4" y="86.4" width="8.4" height="19.6" fill="#1E1E2E"/>
  <rect x="66.8" y="86.4" width="8.4" height="19.6" fill="#1E1E2E"/>
  <rect x="75.2" y="86.4" width="8.4" height="19.6" fill="#1E1E2E"/>
  <rect x="83.6" y="86.4" width="8.4" height="19.6" fill="#1E1E2E"/>
  <rect x="92.0" y="86.4" width="8.4" height="19.6" fill="#1E1E2E"/>
  <rect x="100.4" y="86.4" width="8.4" height="19.6" fill="#1E1E2E"/>
  <rect x="108.8" y="86.4" width="8.4" height="19.6" fill="#1E1E2E"/>
  <rect x="117.2" y="86.4" width="8.4" height="19.6" fill="#1E1E2E"/>
  <rect x="125.6" y="86.4" width="8.4" height="19.6" fill="#1E1E2E"/>
  <rect x="134.0" y="86.4" width="8.4" height="19.6" fill="#1E1E2E"/>
  <rect x="142.4" y="86.4" width="8.4" height="19.6" fill="#1E1E2E"/>
  <rect x="150.8" y="86.4" width="8.4" height="19.6" fill="#1E1E2E"/>
  <rect x="159.2" y="86.4" width="8.4" height="19.6" fill="#1E1E2E"/>
  <rect x="167.6" y="86.4" width="8.4" height="19.6" fill="#1E1E2E"/>
  <rect x="176.0" y="86.4" width="8.4" height="19.6" fill="#1E1E2E"/>
  <rect x="184.4" y="86.4" width="8.4" height="19.6" fill="#1E1E2E"/>
  <rect x="192.8" y="86.4" width="8.4" height="19.6" fill="#1E1E2E"/>
  <rect x="201.2" y="86.4" width="8.4" height="19.6" fill="#1E1E2E"/>
  <rect x="209.6" y="86.4" width="8.4" height="19.6" fill="#1E1E2E"/>
  <rect x="218.0" y="86.4" width="8.4" height="19.6" fill="#1E1E2E"/>
  <rect x="226.4" y="86.4" width="8.4" height="19.6" fill="#1E1E2E"/>
  <rect x="234.8" y="86.4" width="8.4" height="19.6" fill="#1E1E2E"/>
  <rect x="243.2" y="86.4" width="8.4" height="19.6" fill="#1E1E2E"/>
  <rect x="251.6" y="86.4" width="8.4" height="19.6" fill="#1E1E2E"/>
  <rect x="260.0" y="86.4" width="8.4" height="19.6" fill="#1E1E2E"/>
  <rect x="268.4" y="86.4" width="8.4" height="19.6" fill="#1E1E2E"/>
  <rect x="276.8" y="86.4" width="8.4" height="19.6" fill="#1E1E2E"/>
  <rect x="285.2" y="86.4" width="8.4" height="19.6" fill="#1E1E2E"/>
  <rect x="293.6" y="86.4" width="8.4" height="19.6" fill="#1E1E2E"/>
  <rect x="302.0" y="86.4" width="8.4" height="19.6" fill="#1E1E2E"/>
  <rect x="310.4" y="86.4" width="8.4" height="19.6" fill="#1E1E2E"/>
  <rect x="318.8" y="86.4" width="8.4" height="19.6" fill="#1E1E2E"/>
  <rect x="327.2" y="86.4" width="8.4" height="19.6" fill="#1E1E2E"/>
  <rect x="335.6" y="86.4" width="8.4" height="19.6" fill="#1E1E2E"/>
  <rect x="344.0" y="86.4" width="8.4" height="19.6" fill="#1E1E2E"/>
  <rect x="352.4" y="86.4" width="8.4" height="19.6" fill="#1E1E2E"/>
  <rect x="360.8" y="86.4" width="8.4" height="19.6" fill="#1E1E2E"/>
  <rect x="369.2" y="86.4" width="8.4" height="19.6" fill="#1E1E2E"/>
  <rect x="377.6" y="86.4" width="8.4" height="19.6" fill="#1E1E2E"/>
  <text x="8.0" y="86.4" fill="#89B4FA">│</text>
  <text x="33.2" y="86.4" fill="#CDD6F4">This is a demo of the snapshot feature.</text>
  <text x="377.6" y="86.4" fill="#89B4FA">│</text>
  <rect x="8.0" y="106.0" width="8.4" height="19.6" fill="#1E1E2E"/>
  <rect x="16.4" y="106.0" width="8.4" height="19.6" fill="#1E1E2E"/>
  <rect x="24.8" y="106.0" width="8.4" height="19.6" fill="#1E1E2E"/>
  <rect x="33.2" y="106.0" width="8.4" height="19.6" fill="#1E1E2E"/>
  <rect x="41.6" y="106.0" width="8.4" height="19.6" fill="#1E1E2E"/>
  <rect x="50.0" y="106.0" width="8.4" height="19.6" fill="#1E1E2E"/>
  <rect x="58.4" y="106.0" width="8.4" height="19.6" fill="#1E1E2E"/>
  <rect x="66.8" y="106.0" width="8.4" height="19.6" fill="#1E1E2E"/>
  <rect x="75.2" y="106.0" width="8.4" height="19.6" fill="#1E1E2E"/>
  <rect x="83.6" y="106.0" width="8.4" height="19.6" fill="#1E1E2E"/>
  <rect x="92.0" y="106.0" width="8.4" height="19.6" fill="#1E1E2E"/>
  <rect x="100.4" y="106.0" width="8.4" height="19.6" fill="#1E1E2E"/>
  <rect x="108.8" y="106.0" width="8.4" height="19.6" fill="#1E1E2E"/>
  <rect x="117.2" y="106.0" width="8.4" height="19.6" fill="#1E1E2E"/>
  <rect x="125.6" y="106.0" width="8.4" height="19.6" fill="#1E1E2E"/>
  <rect x="134.0" y="106.0" width="8.4" height="19.6" fill="#1E1E2E"/>
  <rect x="142.4" y="106.0" width="8.4" height="19.6" fill="#1E1E2E"/>
  <rect x="150.8" y="106.0" width="8.4" height="19.6" fill="#1E1E2E"/>
  <rect x="159.2" y="106.0" width="8.4" height="19.6" fill="#1E1E2E"/>
  <rect x="167.6" y="106.0" width="8.4" height="19.6" fill="#1E1E2E"/>
  <rect x="176.0" y="106.0" width="8.4" height="19.6" fill="#1E1E2E"/>
  <rect x="184.4" y="106.0" width="8.4" height="19.6" fill="#1E1E2E"/>
  <rect x="192.8" y="106.0" width="8.4" height="19.6" fill="#1E1E2E"/>
  <rect x="201.2" y="106.0" width="8.4" height="19.6" fill="#1E1E2E"/>
  <rect x="209.6" y="106.0" width="8.4" height="19.6" fill="#1E1E2E"/>
  <rect x="218.0" y="106.0" width="8.4" height="19.6" fill="#1E1E2E"/>
  <rect x="226.4" y="106.0" width="8.4" height="19.6" fill="#1E1E2E"/>
  <rect x="234.8" y="106.0" width="8.4" height="19.6" fill="#1E1E2E"/>
  <rect x="243.2" y="106.0" width="8.4" height="19.6" fill="#1E1E2E"/>
  <rect x="251.6" y="106.0" width="8.4" height="19.6" fill="#1E1E2E"/>
  <rect x="260.0" y="106.0" width="8.4" height="19.6" fill="#1E1E2E"/>
  <rect x="268.4" y="106.0" width="8.4" height="19.6" fill="#1E1E2E"/>
  <rect x="276.8" y="106.0" width="8.4" height="19.6" fill="#1E1E2E"/>
  <rect x="285.2" y="106.0" width="8.4" height="19.6" fill="#1E1E2E"/>
  <rect x="293.6" y="106.0" width="8.4" height="19.6" fill="#1E1E2E"/>
  <rect x="302.0" y="106.0" width="8.4" height="19.6" fill="#1E1E2E"/>
  <rect x="310.4" y="106.0" width="8.4" height="19.6" fill="#1E1E2E"/>
  <rect x="318.8" y="106.0" width="8.4" height="19.6" fill="#1E1E2E"/>
  <rect x="327.2" y="106.0" width="8.4" height="19.6" fill="#1E1E2E"/>
  <rect x="335.6" y="106.0" width="8.4" height="19.6" fill="#1E1E2E"/>
  <rect x="344.0" y="106.0" width="8.4" height="19.6" fill="#1E1E2E"/>
  <rect x="352.4" y="106.0" width="8.4" height="19.6" fill="#1E1E2E"/>
  <rect x="360.8" y="106.0" width="8.4" height="19.6" fill="#1E1E2E"/>
  <rect x="369.2" y="106.0" width="8.4" height="19.6" fill="#1E1E2E"/>
  <rect x="377.6" y="106.0" width="8.4" height="19.6" fill="#1E1E2E"/>
  <text x="8.0" y="106.0" fill="#89B4FA">│</text>
  <text x="33.2" y="106.0" class="italic" fill="#A6ADC8">It can capture terminal UIs as SVG.    </text>
  <text x="377.6" y="106.0" fill="#89B4FA">│</text>
  <rect x="8.0" y="125.6" width="8.4" height="19.6" fill="#1E1E2E"/>
  <rect x="16.4" y="125.6" width="8.4" height="19.6" fill="#1E1E2E"/>
  <rect x="24.8" y="125.6" width="8.4" height="19.6" fill="#1E1E2E"/>
  <rect x="33.2" y="125.6" width="8.4" height="19.6" fill="#1E1E2E"/>
  <rect x="41.6" y="125.6" width="8.4" height="19.6" fill="#1E1E2E"/>
  <rect x="50.0" y="125.6" width="8.4" height="19.6" fill="#1E1E2E"/>
  <rect x="58.4" y="125.6" width="8.4" height="19.6" fill="#1E1E2E"/>
  <rect x="66.8" y="125.6" width="8.4" height="19.6" fill="#1E1E2E"/>
  <rect x="75.2" y="125.6" width="8.4" height="19.6" fill="#1E1E2E"/>
  <rect x="83.6" y="125.6" width="8.4" height="19.6" fill="#1E1E2E"/>
  <rect x="92.0" y="125.6" width="8.4" height="19.6" fill="#1E1E2E"/>
  <rect x="100.4" y="125.6" width="8.4" height="19.6" fill="#1E1E2E"/>
  <rect x="108.8" y="125.6" width="8.4" height="19.6" fill="#1E1E2E"/>
  <rect x="117.2" y="125.6" width="8.4" height="19.6" fill="#1E1E2E"/>
  <rect x="125.6" y="125.6" width="8.4" height="19.6" fill="#1E1E2E"/>
  <rect x="134.0" y="125.6" width="8.4" height="19.6" fill="#1E1E2E"/>
  <rect x="142.4" y="125.6" width="8.4" height="19.6" fill="#1E1E2E"/>
  <rect x="150.8" y="125.6" width="8.4" height="19.6" fill="#1E1E2E"/>
  <rect x="159.2" y="125.6" width="8.4" height="19.6" fill="#1E1E2E"/>
  <rect x="167.6" y="125.6" width="8.4" height="19.6" fill="#1E1E2E"/>
  <rect x="176.0" y="125.6" width="8.4" height="19.6" fill="#1E1E2E"/>
  <rect x="184.4" y="125.6" width="8.4" height="19.6" fill="#1E1E2E"/>
  <rect x="192.8" y="125.6" width="8.4" height="19.6" fill="#1E1E2E"/>
  <rect x="201.2" y="125.6" width="8.4" height="19.6" fill="#1E1E2E"/>
  <rect x="209.6" y="125.6" width="8.4" height="19.6" fill="#1E1E2E"/>
  <rect x="218.0" y="125.6" width="8.4" height="19.6" fill="#1E1E2E"/>
  <rect x="226.4" y="125.6" width="8.4" height="19.6" fill="#1E1E2E"/>
  <rect x="234.8" y="125.6" width="8.4" height="19.6" fill="#1E1E2E"/>
  <rect x="243.2" y="125.6" width="8.4" height="19.6" fill="#1E1E2E"/>
  <rect x="251.6" y="125.6" width="8.4" height="19.6" fill="#1E1E2E"/>
  <rect x="260.0" y="125.6" width="8.4" height="19.6" fill="#1E1E2E"/>
  <rect x="268.4" y="125.6" width="8.4" height="19.6" fill="#1E1E2E"/>
  <rect x="276.8" y="125.6" width="8.4" height="19.6" fill="#1E1E2E"/>
  <rect x="285.2" y="125.6" width="8.4" height="19.6" fill="#1E1E2E"/>
  <rect x="293.6" y="125.6" width="8.4" height="19.6" fill="#1E1E2E"/>
  <rect x="302.0" y="125.6" width="8.4" height="19.6" fill="#1E1E2E"/>
  <rect x="310.4" y="125.6" width="8.4" height="19.6" fill="#1E1E2E"/>
  <rect x="318.8" y="125.6" width="8.4" height="19.6" fill="#1E1E2E"/>
  <rect x="327.2" y="125.6" width="8.4" height="19.6" fill="#1E1E2E"/>
  <rect x="335.6" y="125.6" width="8.4" height="19.6" fill="#1E1E2E"/>
  <rect x="344.0" y="125.6" width="8.4" height="19.6" fill="#1E1E2E"/>
  <rect x="352.4" y="125.6" width="8.4" height="19.6" fill="#1E1E2E"/>
  <rect x="360.8" y="125.6" width="8.4" height="19.6" fill="#1E1E2E"/>
  <rect x="369.2" y="125.6" width="8.4" height="19.6" fill="#1E1E2E"/>
  <rect x="377.6" y="125.6" width="8.4" height="19.6" fill="#1E1E2E"/>
  <text x="8.0" y="125.6" fill="#89B4FA">│</text>
  <text x="377.6" y="125.6" fill="#89B4FA">│</text>
  <rect x="8.0" y="145.2" width="8.4" height="19.6" fill="#1E1E2E"/>
  <rect x="16.4" y="145.2" width="8.4" height="19.6" fill="#1E1E2E"/>
  <rect x="24.8" y="145.2" width="8.4" height="19.6" fill="#1E1E2E"/>
  <rect x="33.2" y="145.2" width="8.4" height="19.6" fill="#1E1E2E"/>
  <rect x="41.6" y="145.2" width="8.4" height="19.6" fill="#1E1E2E"/>
  <rect x="50.0" y="145.2" width="8.4" height="19.6" fill="#1E1E2E"/>
  <rect x="58.4" y="145.2" width="8.4" height="19.6" fill="#1E1E2E"/>
  <rect x="66.8" y="145.2" width="8.4" height="19.6" fill="#1E1E2E"/>
  <rect x="75.2" y="145.2" width="8.4" height="19.6" fill="#1E1E2E"/>
  <rect x="83.6" y="145.2" width="8.4" height="19.6" fill="#1E1E2E"/>
  <rect x="92.0" y="145.2" width="8.4" height="19.6" fill="#1E1E2E"/>
  <rect x="100.4" y="145.2" width="8.4" height="19.6" fill="#1E1E2E"/>
  <rect x="108.8" y="145.2" width="8.4" height="19.6" fill="#1E1E2E"/>
  <rect x="117.2" y="145.2" width="8.4" height="19.6" fill="#1E1E2E"/>
  <rect x="125.6" y="145.2" width="8.4" height="19.6" fill="#1E1E2E"/>
  <rect x="134.0" y="145.2" width="8.4" height="19.6" fill="#1E1E2E"/>
  <rect x="142.4" y="145.2" width="8.4" height="19.6" fill="#1E1E2E"/>
  <rect x="150.8" y="145.2" width="8.4" height="19.6" fill="#1E1E2E"/>
  <rect x="159.2" y="145.2" width="8.4" height="19.6" fill="#1E1E2E"/>
  <rect x="167.6" y="145.2" width="8.4" height="19.6" fill="#1E1E2E"/>
  <rect x="176.0" y="145.2" width="8.4" height="19.6" fill="#1E1E2E"/>
  <rect x="184.4" y="145.2" width="8.4" height="19.6" fill="#1E1E2E"/>
  <rect x="192.8" y="145.2" width="8.4" height="19.6" fill="#1E1E2E"/>
  <rect x="201.2" y="145.2" width="8.4" height="19.6" fill="#1E1E2E"/>
  <rect x="209.6" y="145.2" width="8.4" height="19.6" fill="#1E1E2E"/>
  <rect x="218.0" y="145.2" width="8.4" height="19.6" fill="#1E1E2E"/>
  <rect x="226.4" y="145.2" width="8.4" height="19.6" fill="#1E1E2E"/>
  <rect x="234.8" y="145.2" width="8.4" height="19.6" fill="#1E1E2E"/>
  <rect x="243.2" y="145.2" width="8.4" height="19.6" fill="#1E1E2E"/>
  <rect x="251.6" y="145.2" width="8.4" height="19.6" fill="#1E1E2E"/>
  <rect x="260.0" y="145.2" width="8.4" height="19.6" fill="#1E1E2E"/>
  <rect x="268.4" y="145.2" width="8.4" height="19.6" fill="#1E1E2E"/>
  <rect x="276.8" y="145.2" width="8.4" height="19.6" fill="#1E1E2E"/>
  <rect x="285.2" y="145.2" width="8.4" height="19.6" fill="#1E1E2E"/>
  <rect x="293.6" y="145.2" width="8.4" height="19.6" fill="#1E1E2E"/>
  <rect x="302.0" y="145.2" width="8.4" height="19.6" fill="#1E1E2E"/>
  <rect x="310.4" y="145.2" width="8.4" height="19.6" fill="#1E1E2E"/>
  <rect x="318.8" y="145.2" width="8.4" height="19.6" fill="#1E1E2E"/>
  <rect x="327.2" y="145.2" width="8.4" height="19.6" fill="#1E1E2E"/>
  <rect x="335.6" y="145.2" width="8.4" height="19.6" fill="#1E1E2E"/>
  <rect x="344.0" y="145.2" width="8.4" height="19.6" fill="#1E1E2E"/>
  <rect x="352.4" y="145.2" width="8.4" height="19.6" fill="#1E1E2E"/>
  <rect x="360.8" y="145.2" width="8.4" height="19.6" fill="#1E1E2E"/>
  <rect x="369.2" y="145.2" width="8.4" height="19.6" fill="#1E1E2E"/>
  <rect x="377.6" y="145.2" width="8.4" height="19.6" fill="#1E1E2E"/>
  <text x="8.0" y="145.2" fill="#89B4FA">╰───────────────────────────────────────────╯</text>
</svg>
