<svg xmlns="http://www.w3.org/2000/svg" width="386" height="232" viewBox="0 0 386 232">
  <style>
    @import url('https://fonts.googleapis.com/css2?family=Fira+Code:wght@400;700&amp;display=swap');
    text { font-family: Fira Code, Menlo, Monaco, Consolas, monospace; font-size: 14px; dominant-baseline: central; }
    rect { shape-rendering: crispEdges; }
    .bold { font-weight: bold; }
    .italic { font-style: italic; }
    .underline { text-decoration: underline; }
    .strikethrough { text-decoration: line-through; }
  </style>
  <rect width="100%" height="100%" fill="#000000"/>
  <rect x="8.0" y="8.0" width="8.4" height="19.6" fill="#1A1826"/>
  <rect x="16.4" y="8.0" width="8.4" height="19.6" fill="#1A1826"/>
  <rect x="24.8" y="8.0" width="8.4" height="19.6" fill="#1A1826"/>
  <rect x="33.2" y="8.0" width="8.4" height="19.6" fill="#1A1826"/>
  <rect x="41.6" y="8.0" width="8.4" height="19.6" fill="#1A1826"/>
  <rect x="50.0" y="8.0" width="8.4" height="19.6" fill="#1A1826"/>
  <rect x="58.4" y="8.0" width="8.4" height="19.6" fill="#1A1826"/>
  <rect x="66.8" y="8.0" width="8.4" height="19.6" fill="#1A1826"/>
  <rect x="75.2" y="8.0" width="8.4" height="19.6" fill="#1A1826"/>
  <rect x="83.6" y="8.0" width="8.4" height="19.6" fill="#1A1826"/>
  <rect x="92.0" y="8.0" width="8.4" height="19.6" fill="#1A1826"/>
  <rect x="100.4" y="8.0" width="8.4" height="19.6" fill="#1A1826"/>
  <rect x="108.8" y="8.0" width="8.4" height="19.6" fill="#1A1826"/>
  <rect x="117.2" y="8.0" width="8.4" height="19.6" fill="#14121D"/>
  <rect x="125.6" y="8.0" width="8.4" height="19.6" fill="#14121D"/>
  <rect x="134.0" y="8.0" width="8.4" height="19.6" fill="#14121D"/>
  <rect x="142.4" y="8.0" width="8.4" height="19.6" fill="#14121D"/>
  <rect x="150.8" y="8.0" width="8.4" height="19.6" fill="#14121D"/>
  <rect x="159.2" y="8.0" width="8.4" height="19.6" fill="#14121D"/>
  <rect x="167.6" y="8.0" width="8.4" height="19.6" fill="#14121D"/>
  <rect x="176.0" y="8.0" width="8.4" height="19.6" fill="#14121D"/>
  <rect x="184.4" y="8.0" width="8.4" height="19.6" fill="#14121D"/>
  <rect x="192.8" y="8.0" width="8.4" height="19.6" fill="#14121D"/>
  <rect x="201.2" y="8.0" width="8.4" height="19.6" fill="#14121D"/>
  <rect x="209.6" y="8.0" width="8.4" height="19.6" fill="#14121D"/>
  <rect x="218.0" y="8.0" width="8.4" height="19.6" fill="#14121D"/>
  <rect x="226.4" y="8.0" width="8.4" height="19.6" fill="#14121D"/>
  <rect x="234.8" y="8.0" width="8.4" height="19.6" fill="#14121D"/>
  <rect x="243.2" y="8.0" width="8.4" height="19.6" fill="#14121D"/>
  <rect x="251.6" y="8.0" width="8.4" height="19.6" fill="#14121D"/>
  <rect x="260.0" y="8.0" width="8.4" height="19.6" fill="#14121D"/>
  <rect x="268.4" y="8.0" width="8.4" height="19.6" fill="#14121D"/>
  <rect x="276.8" y="8.0" width="8.4" height="19.6" fill="#14121D"/>
  <rect x="285.2" y="8.0" width="8.4" height="19.6" fill="#14121D"/>
  <rect x="293.6" y="8.0" width="8.4" height="19.6" fill="#14121D"/>
  <rect x="302.0" y="8.0" width="8.4" height="19.6" fill="#14121D"/>
  <rect x="310.4" y="8.0" width="8.4" height="19.6" fill="#14121D"/>
  <rect x="318.8" y="8.0" width="8.4" height="19.6" fill="#14121D"/>
  <rect x="327.2" y="8.0" width="8.4" height="19.6" fill="#14121D"/>
  <rect x="335.6" y="8.0" width="8.4" height="19.6" fill="#14121D"/>
  <rect x="344.0" y="8.0" width="8.4" height="19.6" fill="#14121D"/>
  <rect x="352.4" y="8.0" width="8.4" height="19.6" fill="#14121D"/>
  <rect x="360.8" y="8.0" width="8.4" height="19.6" fill="#14121D"/>
  <rect x="369.2" y="8.0" width="8.4" height="19.6" fill="#14121D"/>
  <text x="8.0" y="17.8" fill="#242231">[</text>
  <text x="16.4" y="17.8" fill="#555364">Show</text>
  <text x="58.4" y="17.8" fill="#555364">dialog</text>
  <text x="108.8" y="17.8" fill="#242231">]</text>
  <rect x="8.0" y="27.6" width="8.4" height="19.6" fill="#14121D"/>
  <rect x="16.4" y="27.6" width="8.4" height="19.6" fill="#14121D"/>
  <rect x="24.8" y="27.6" width="8.4" height="19.6" fill="#14121D"/>
  <rect x="33.2" y="27.6" width="8.4" height="19.6" fill="#14121D"/>
  <rect x="41.6" y="27.6" width="8.4" height="19.6" fill="#14121D"/>
  <rect x="50.0" y="27.6" width="8.4" height="19.6" fill="#14121D"/>
  <rect x="58.4" y="27.6" width="8.4" height="19.6" fill="#14121D"/>
  <rect x="66.8" y="27.6" width="8.4" height="19.6" fill="#14121D"/>
  <rect x="75.2" y="27.6" width="8.4" height="19.6" fill="#14121D"/>
  <rect x="83.6" y="27.6" width="8.4" height="19.6" fill="#14121D"/>
  <rect x="92.0" y="27.6" width="8.4" height="19.6" fill="#14121D"/>
  <rect x="100.4" y="27.6" width="8.4" height="19.6" fill="#14121D"/>
  <rect x="108.8" y="27.6" width="8.4" height="19.6" fill="#14121D"/>
  <rect x="117.2" y="27.6" width="8.4" height="19.6" fill="#14121D"/>
  <rect x="125.6" y="27.6" width="8.4" height="19.6" fill="#14121D"/>
  <rect x="134.0" y="27.6" width="8.4" height="19.6" fill="#14121D"/>
  <rect x="142.4" y="27.6" width="8.4" height="19.6" fill="#14121D"/>
  <rect x="150.8" y="27.6" width="8.4" height="19.6" fill="#14121D"/>
  <rect x="159.2" y="27.6" width="8.4" height="19.6" fill="#14121D"/>
  <rect x="167.6" y="27.6" width="8.4" height="19.6" fill="#14121D"/>
  <rect x="176.0" y="27.6" width="8.4" height="19.6" fill="#14121D"/>
  <rect x="184.4" y="27.6" width="8.4" height="19.6" fill="#14121D"/>
  <rect x="192.8" y="27.6" width="8.4" height="19.6" fill="#14121D"/>
  <rect x="201.2" y="27.6" width="8.4" height="19.6" fill="#14121D"/>
  <rect x="209.6" y="27.6" width="8.4" height="19.6" fill="#14121D"/>
  <rect x="218.0" y="27.6" width="8.4" height="19.6" fill="#14121D"/>
  <rect x="226.4" y="27.6" width="8.4" height="19.6" fill="#14121D"/>
  <rect x="234.8" y="27.6" width="8.4" height="19.6" fill="#14121D"/>
  <rect x="243.2" y="27.6" width="8.4" height="19.6" fill="#14121D"/>
  <rect x="251.6" y="27.6" width="8.4" height="19.6" fill="#14121D"/>
  <rect x="260.0" y="27.6" width="8.4" height="19.6" fill="#14121D"/>
  <rect x="268.4" y="27.6" width="8.4" height="19.6" fill="#14121D"/>
  <rect x="276.8" y="27.6" width="8.4" height="19.6" fill="#14121D"/>
  <rect x="285.2" y="27.6" width="8.4" height="19.6" fill="#14121D"/>
  <rect x="293.6" y="27.6" width="8.4" height="19.6" fill="#14121D"/>
  <rect x="302.0" y="27.6" width="8.4" height="19.6" fill="#14121D"/>
  <rect x="310.4" y="27.6" width="8.4" height="19.6" fill="#14121D"/>
  <rect x="318.8" y="27.6" width="8.4" height="19.6" fill="#14121D"/>
  <rect x="327.2" y="27.6" width="8.4" height="19.6" fill="#14121D"/>
  <rect x="335.6" y="27.6" width="8.4" height="19.6" fill="#14121D"/>
  <rect x="344.0" y="27.6" width="8.4" height="19.6" fill="#14121D"/>
  <rect x="352.4" y="27.6" width="8.4" height="19.6" fill="#14121D"/>
  <rect x="360.8" y="27.6" width="8.4" height="19.6" fill="#14121D"/>
  <rect x="369.2" y="27.6" width="8.4" height="19.6" fill="#14121D"/>
  <rect x="8.0" y="47.2" width="8.4" height="19.6" fill="#14121D"/>
  <rect x="16.4" y="47.2" width="8.4" height="19.6" fill="#14121D"/>
  <rect x="24.8" y="47.2" width="8.4" height="19.6" fill="#14121D"/>
  <rect x="33.2" y="47.2" width="8.4" height="19.6" fill="#14121D"/>
  <rect x="41.6" y="47.2" width="8.4" height="19.6" fill="#1F1D2E"/>
  <rect x="50.0" y="47.2" width="8.4" height="19.6" fill="#1F1D2E"/>
  <rect x="58.4" y="47.2" width="8.4" height="19.6" fill="#1F1D2E"/>
  <rect x="66.8" y="47.2" width="8.4" height="19.6" fill="#1F1D2E"/>
  <rect x="75.2" y="47.2" width="8.4" height="19.6" fill="#1F1D2E"/>
  <rect x="83.6" y="47.2" width="8.4" height="19.6" fill="#1F1D2E"/>
  <rect x="92.0" y="47.2" width="8.4" height="19.6" fill="#1F1D2E"/>
  <rect x="100.4" y="47.2" width="8.4" height="19.6" fill="#1F1D2E"/>
  <rect x="108.8" y="47.2" width="8.4" height="19.6" fill="#1F1D2E"/>
  <rect x="117.2" y="47.2" width="8.4" height="19.6" fill="#1F1D2E"/>
  <rect x="125.6" y="47.2" width="8.4" height="19.6" fill="#1F1D2E"/>
  <rect x="134.0" y="47.2" width="8.4" height="19.6" fill="#1F1D2E"/>
  <rect x="142.4" y="47.2" width="8.4" height="19.6" fill="#1F1D2E"/>
  <rect x="150.8" y="47.2" width="8.4" height="19.6" fill="#1F1D2E"/>
  <rect x="159.2" y="47.2" width="8.4" height="19.6" fill="#1F1D2E"/>
  <rect x="167.6" y="47.2" width="8.4" height="19.6" fill="#1F1D2E"/>
  <rect x="176.0" y="47.2" width="8.4" height="19.6" fill="#1F1D2E"/>
  <rect x="184.4" y="47.2" width="8.4" height="19.6" fill="#1F1D2E"/>
  <rect x="192.8" y="47.2" width="8.4" height="19.6" fill="#1F1D2E"/>
  <rect x="201.2" y="47.2" width="8.4" height="19.6" fill="#1F1D2E"/>
  <rect x="209.6" y="47.2" width="8.4" height="19.6" fill="#1F1D2E"/>
  <rect x="218.0" y="47.2" width="8.4" height="19.6" fill="#1F1D2E"/>
  <rect x="226.4" y="47.2" width="8.4" height="19.6" fill="#1F1D2E"/>
  <rect x="234.8" y="47.2" width="8.4" height="19.6" fill="#1F1D2E"/>
  <rect x="243.2" y="47.2" width="8.4" height="19.6" fill="#1F1D2E"/>
  <rect x="251.6" y="47.2" width="8.4" height="19.6" fill="#1F1D2E"/>
  <rect x="260.0" y="47.2" width="8.4" height="19.6" fill="#1F1D2E"/>
  <rect x="268.4" y="47.2" width="8.4" height="19.6" fill="#1F1D2E"/>
  <rect x="276.8" y="47.2" width="8.4" height="19.6" fill="#1F1D2E"/>
  <rect x="285.2" y="47.2" width="8.4" height="19.6" fill="#1F1D2E"/>
  <rect x="293.6" y="47.2" width="8.4" height="19.6" fill="#1F1D2E"/>
  <rect x="302.0" y="47.2" width="8.4" height="19.6" fill="#1F1D2E"/>
  <rect x="310.4" y="47.2" width="8.4" height="19.6" fill="#1F1D2E"/>
  <rect x="318.8" y="47.2" width="8.4" height="19.6" fill="#1F1D2E"/>
  <rect x="327.2" y="47.2" width="8.4" height="19.6" fill="#1F1D2E"/>
  <rect x="335.6" y="47.2" width="8.4" height="19.6" fill="#1F1D2E"/>
  <rect x="344.0" y="47.2" width="8.4" height="19.6" fill="#14121D"/>
  <rect x="352.4" y="47.2" width="8.4" height="19.6" fill="#14121D"/>
  <rect x="360.8" y="47.2" width="8.4" height="19.6" fill="#14121D"/>
  <rect x="369.2" y="47.2" width="8.4" height="19.6" fill="#14121D"/>
  <path d="M 50.0000 57.0000 L 50.0000 57.0000 Q 45.8000 57.0000 45.8000 61.2000 L 45.8000 66.8000" fill="none" stroke="#403D52" stroke-width="1.0500"/>
  <path d="M 50.0000 57.0000 L 58.4000 57.0000" fill="none" stroke="#403D52" stroke-width="1.0500" shape-rendering="crispEdges"/>
  <path d="M 58.4000 57.0000 L 66.8000 57.0000" fill="none" stroke="#403D52" stroke-width="1.0500" shape-rendering="crispEdges"/>
  <path d="M 66.8000 57.0000 L 75.2000 57.0000" fill="none" stroke="#403D52" stroke-width="1.0500" shape-rendering="crispEdges"/>
  <path d="M 75.2000 57.0000 L 83.6000 57.0000" fill="none" stroke="#403D52" stroke-width="1.0500" shape-rendering="crispEdges"/>
  <path d="M 83.6000 57.0000 L 92.0000 57.0000" fill="none" stroke="#403D52" stroke-width="1.0500" shape-rendering="crispEdges"/>
  <path d="M 92.0000 57.0000 L 100.4000 57.0000" fill="none" stroke="#403D52" stroke-width="1.0500" shape-rendering="crispEdges"/>
  <path d="M 100.4000 57.0000 L 108.8000 57.0000" fill="none" stroke="#403D52" stroke-width="1.0500" shape-rendering="crispEdges"/>
  <path d="M 108.8000 57.0000 L 117.2000 57.0000" fill="none" stroke="#403D52" stroke-width="1.0500" shape-rendering="crispEdges"/>
  <path d="M 117.2000 57.0000 L 125.6000 57.0000" fill="none" stroke="#403D52" stroke-width="1.0500" shape-rendering="crispEdges"/>
  <path d="M 125.6000 57.0000 L 134.0000 57.0000" fill="none" stroke="#403D52" stroke-width="1.0500" shape-rendering="crispEdges"/>
  <path d="M 134.0000 57.0000 L 142.4000 57.0000" fill="none" stroke="#403D52" stroke-width="1.0500" shape-rendering="crispEdges"/>
  <text x="159.2" y="57.0" fill="#403D52">Welcome</text>
  <path d="M 234.8000 57.0000 L 243.2000 57.0000" fill="none" stroke="#403D52" stroke-width="1.0500" shape-rendering="crispEdges"/>
  <path d="M 243.2000 57.0000 L 251.6000 57.0000" fill="none" stroke="#403D52" stroke-width="1.0500" shape-rendering="crispEdges"/>
  <path d="M 251.6000 57.0000 L 260.0000 57.0000" fill="none" stroke="#403D52" stroke-width="1.0500" shape-rendering="crispEdges"/>
  <path d="M 260.0000 57.0000 L 268.4000 57.0000" fill="none" stroke="#403D52" stroke-width="1.0500" shape-rendering="crispEdges"/>
  <path d="M 268.4000 57.0000 L 276.8000 57.0000" fill="none" stroke="#403D52" stroke-width="1.0500" shape-rendering="crispEdges"/>
  <path d="M 276.8000 57.0000 L 285.2000 57.0000" fill="none" stroke="#403D52" stroke-width="1.0500" shape-rendering="crispEdges"/>
  <path d="M 285.2000 57.0000 L 293.6000 57.0000" fill="none" stroke="#403D52" stroke-width="1.0500" shape-rendering="crispEdges"/>
  <path d="M 293.6000 57.0000 L 302.0000 57.0000" fill="none" stroke="#403D52" stroke-width="1.0500" shape-rendering="crispEdges"/>
  <path d="M 302.0000 57.0000 L 310.4000 57.0000" fill="none" stroke="#403D52" stroke-width="1.0500" shape-rendering="crispEdges"/>
  <path d="M 310.4000 57.0000 L 318.8000 57.0000" fill="none" stroke="#403D52" stroke-width="1.0500" shape-rendering="crispEdges"/>
  <path d="M 318.8000 57.0000 L 327.2000 57.0000" fill="none" stroke="#403D52" stroke-width="1.0500" shape-rendering="crispEdges"/>
  <path d="M 327.2000 57.0000 L 335.6000 57.0000" fill="none" stroke="#403D52" stroke-width="1.0500" shape-rendering="crispEdges"/>
  <path d="M 335.6000 57.0000 L 335.6000 57.0000 Q 339.8000 57.0000 339.8000 61.2000 L 339.8000 66.8000" fill="none" stroke="#403D52" stroke-width="1.0500"/>
  <rect x="8.0" y="66.8" width="8.4" height="19.6" fill="#14121D"/>
  <rect x="16.4" y="66.8" width="8.4" height="19.6" fill="#14121D"/>
  <rect x="24.8" y="66.8" width="8.4" height="19.6" fill="#14121D"/>
  <rect x="33.2" y="66.8" width="8.4" height="19.6" fill="#14121D"/>
  <rect x="41.6" y="66.8" width="8.4" height="19.6" fill="#1F1D2E"/>
  <rect x="50.0" y="66.8" width="8.4" height="19.6" fill="#1F1D2E"/>
  <rect x="58.4" y="66.8" width="8.4" height="19.6" fill="#1F1D2E"/>
  <rect x="66.8" y="66.8" width="8.4" height="19.6" fill="#1F1D2E"/>
  <rect x="75.2" y="66.8" width="8.4" height="19.6" fill="#1F1D2E"/>
  <rect x="83.6" y="66.8" width="8.4" height="19.6" fill="#1F1D2E"/>
  <rect x="92.0" y="66.8" width="8.4" height="19.6" fill="#1F1D2E"/>
  <rect x="100.4" y="66.8" width="8.4" height="19.6" fill="#1F1D2E"/>
  <rect x="108.8" y="66.8" width="8.4" height="19.6" fill="#1F1D2E"/>
  <rect x="117.2" y="66.8" width="8.4" height="19.6" fill="#1F1D2E"/>
  <rect x="125.6" y="66.8" width="8.4" height="19.6" fill="#1F1D2E"/>
  <rect x="134.0" y="66.8" width="8.4" height="19.6" fill="#1F1D2E"/>
  <rect x="142.4" y="66.8" width="8.4" height="19.6" fill="#1F1D2E"/>
  <rect x="150.8" y="66.8" width="8.4" height="19.6" fill="#1F1D2E"/>
  <rect x="159.2" y="66.8" width="8.4" height="19.6" fill="#1F1D2E"/>
  <rect x="167.6" y="66.8" width="8.4" height="19.6" fill="#1F1D2E"/>
  <rect x="176.0" y="66.8" width="8.4" height="19.6" fill="#1F1D2E"/>
  <rect x="184.4" y="66.8" width="8.4" height="19.6" fill="#1F1D2E"/>
  <rect x="192.8" y="66.8" width="8.4" height="19.6" fill="#1F1D2E"/>
  <rect x="201.2" y="66.8" width="8.4" height="19.6" fill="#1F1D2E"/>
  <rect x="209.6" y="66.8" width="8.4" height="19.6" fill="#1F1D2E"/>
  <rect x="218.0" y="66.8" width="8.4" height="19.6" fill="#1F1D2E"/>
  <rect x="226.4" y="66.8" width="8.4" height="19.6" fill="#1F1D2E"/>
  <rect x="234.8" y="66.8" width="8.4" height="19.6" fill="#1F1D2E"/>
  <rect x="243.2" y="66.8" width="8.4" height="19.6" fill="#1F1D2E"/>
  <rect x="251.6" y="66.8" width="8.4" height="19.6" fill="#1F1D2E"/>
  <rect x="260.0" y="66.8" width="8.4" height="19.6" fill="#1F1D2E"/>
  <rect x="268.4" y="66.8" width="8.4" height="19.6" fill="#1F1D2E"/>
  <rect x="276.8" y="66.8" width="8.4" height="19.6" fill="#1F1D2E"/>
  <rect x="285.2" y="66.8" width="8.4" height="19.6" fill="#1F1D2E"/>
  <rect x="293.6" y="66.8" width="8.4" height="19.6" fill="#1F1D2E"/>
  <rect x="302.0" y="66.8" width="8.4" height="19.6" fill="#1F1D2E"/>
  <rect x="310.4" y="66.8" width="8.4" height="19.6" fill="#1F1D2E"/>
  <rect x="318.8" y="66.8" width="8.4" height="19.6" fill="#1F1D2E"/>
  <rect x="327.2" y="66.8" width="8.4" height="19.6" fill="#1F1D2E"/>
  <rect x="335.6" y="66.8" width="8.4" height="19.6" fill="#1F1D2E"/>
  <rect x="344.0" y="66.8" width="8.4" height="19.6" fill="#14121D"/>
  <rect x="352.4" y="66.8" width="8.4" height="19.6" fill="#14121D"/>
  <rect x="360.8" y="66.8" width="8.4" height="19.6" fill="#14121D"/>
  <rect x="369.2" y="66.8" width="8.4" height="19.6" fill="#14121D"/>
  <path d="M 45.8000 66.8000 L 45.8000 86.4000" fill="none" stroke="#403D52" stroke-width="1.0500" shape-rendering="crispEdges"/>
  <path d="M 339.8000 66.8000 L 339.8000 86.4000" fill="none" stroke="#403D52" stroke-width="1.0500" shape-rendering="crispEdges"/>
  <rect x="8.0" y="86.4" width="8.4" height="19.6" fill="#14121D"/>
  <rect x="16.4" y="86.4" width="8.4" height="19.6" fill="#14121D"/>
  <rect x="24.8" y="86.4" width="8.4" height="19.6" fill="#14121D"/>
  <rect x="33.2" y="86.4" width="8.4" height="19.6" fill="#14121D"/>
  <rect x="41.6" y="86.4" width="8.4" height="19.6" fill="#1F1D2E"/>
  <rect x="50.0" y="86.4" width="8.4" height="19.6" fill="#1F1D2E"/>
  <rect x="58.4" y="86.4" width="8.4" height="19.6" fill="#1F1D2E"/>
  <rect x="66.8" y="86.4" width="8.4" height="19.6" fill="#1F1D2E"/>
  <rect x="75.2" y="86.4" width="8.4" height="19.6" fill="#1F1D2E"/>
  <rect x="83.6" y="86.4" width="8.4" height="19.6" fill="#1F1D2E"/>
  <rect x="92.0" y="86.4" width="8.4" height="19.6" fill="#1F1D2E"/>
  <rect x="100.4" y="86.4" width="8.4" height="19.6" fill="#1F1D2E"/>
  <rect x="108.8" y="86.4" width="8.4" height="19.6" fill="#1F1D2E"/>
  <rect x="117.2" y="86.4" width="8.4" height="19.6" fill="#1F1D2E"/>
  <rect x="125.6" y="86.4" width="8.4" height="19.6" fill="#1F1D2E"/>
  <rect x="134.0" y="86.4" width="8.4" height="19.6" fill="#1F1D2E"/>
  <rect x="142.4" y="86.4" width="8.4" height="19.6" fill="#1F1D2E"/>
  <rect x="150.8" y="86.4" width="8.4" height="19.6" fill="#1F1D2E"/>
  <rect x="159.2" y="86.4" width="8.4" height="19.6" fill="#1F1D2E"/>
  <rect x="167.6" y="86.4" width="8.4" height="19.6" fill="#1F1D2E"/>
  <rect x="176.0" y="86.4" width="8.4" height="19.6" fill="#1F1D2E"/>
  <rect x="184.4" y="86.4" width="8.4" height="19.6" fill="#1F1D2E"/>
  <rect x="192.8" y="86.4" width="8.4" height="19.6" fill="#1F1D2E"/>
  <rect x="201.2" y="86.4" width="8.4" height="19.6" fill="#1F1D2E"/>
  <rect x="209.6" y="86.4" width="8.4" height="19.6" fill="#1F1D2E"/>
  <rect x="218.0" y="86.4" width="8.4" height="19.6" fill="#1F1D2E"/>
  <rect x="226.4" y="86.4" width="8.4" height="19.6" fill="#1F1D2E"/>
  <rect x="234.8" y="86.4" width="8.4" height="19.6" fill="#1F1D2E"/>
  <rect x="243.2" y="86.4" width="8.4" height="19.6" fill="#1F1D2E"/>
  <rect x="251.6" y="86.4" width="8.4" height="19.6" fill="#1F1D2E"/>
  <rect x="260.0" y="86.4" width="8.4" height="19.6" fill="#1F1D2E"/>
  <rect x="268.4" y="86.4" width="8.4" height="19.6" fill="#1F1D2E"/>
  <rect x="276.8" y="86.4" width="8.4" height="19.6" fill="#1F1D2E"/>
  <rect x="285.2" y="86.4" width="8.4" height="19.6" fill="#1F1D2E"/>
  <rect x="293.6" y="86.4" width="8.4" height="19.6" fill="#1F1D2E"/>
  <rect x="302.0" y="86.4" width="8.4" height="19.6" fill="#1F1D2E"/>
  <rect x="310.4" y="86.4" width="8.4" height="19.6" fill="#1F1D2E"/>
  <rect x="318.8" y="86.4" width="8.4" height="19.6" fill="#1F1D2E"/>
  <rect x="327.2" y="86.4" width="8.4" height="19.6" fill="#1F1D2E"/>
  <rect x="335.6" y="86.4" width="8.4" height="19.6" fill="#1F1D2E"/>
  <rect x="344.0" y="86.4" width="8.4" height="19.6" fill="#14121D"/>
  <rect x="352.4" y="86.4" width="8.4" height="19.6" fill="#14121D"/>
  <rect x="360.8" y="86.4" width="8.4" height="19.6" fill="#14121D"/>
  <rect x="369.2" y="86.4" width="8.4" height="19.6" fill="#14121D"/>
  <path d="M 45.8000 86.4000 L 45.8000 106.0000" fill="none" stroke="#403D52" stroke-width="1.0500" shape-rendering="crispEdges"/>
  <text x="66.8" y="96.2" fill="#E0DEF4">Your</text>
  <text x="108.8" y="96.2" fill="#E0DEF4">workspace</text>
  <text x="192.8" y="96.2" fill="#E0DEF4">is</text>
  <text x="218.0" y="96.2" fill="#E0DEF4">ready.</text>
  <path d="M 339.8000 86.4000 L 339.8000 106.0000" fill="none" stroke="#403D52" stroke-width="1.0500" shape-rendering="crispEdges"/>
  <rect x="8.0" y="106.0" width="8.4" height="19.6" fill="#14121D"/>
  <rect x="16.4" y="106.0" width="8.4" height="19.6" fill="#14121D"/>
  <rect x="24.8" y="106.0" width="8.4" height="19.6" fill="#14121D"/>
  <rect x="33.2" y="106.0" width="8.4" height="19.6" fill="#14121D"/>
  <rect x="41.6" y="106.0" width="8.4" height="19.6" fill="#1F1D2E"/>
  <rect x="50.0" y="106.0" width="8.4" height="19.6" fill="#1F1D2E"/>
  <rect x="58.4" y="106.0" width="8.4" height="19.6" fill="#1F1D2E"/>
  <rect x="66.8" y="106.0" width="8.4" height="19.6" fill="#1F1D2E"/>
  <rect x="75.2" y="106.0" width="8.4" height="19.6" fill="#1F1D2E"/>
  <rect x="83.6" y="106.0" width="8.4" height="19.6" fill="#1F1D2E"/>
  <rect x="92.0" y="106.0" width="8.4" height="19.6" fill="#1F1D2E"/>
  <rect x="100.4" y="106.0" width="8.4" height="19.6" fill="#1F1D2E"/>
  <rect x="108.8" y="106.0" width="8.4" height="19.6" fill="#1F1D2E"/>
  <rect x="117.2" y="106.0" width="8.4" height="19.6" fill="#1F1D2E"/>
  <rect x="125.6" y="106.0" width="8.4" height="19.6" fill="#1F1D2E"/>
  <rect x="134.0" y="106.0" width="8.4" height="19.6" fill="#1F1D2E"/>
  <rect x="142.4" y="106.0" width="8.4" height="19.6" fill="#1F1D2E"/>
  <rect x="150.8" y="106.0" width="8.4" height="19.6" fill="#1F1D2E"/>
  <rect x="159.2" y="106.0" width="8.4" height="19.6" fill="#1F1D2E"/>
  <rect x="167.6" y="106.0" width="8.4" height="19.6" fill="#1F1D2E"/>
  <rect x="176.0" y="106.0" width="8.4" height="19.6" fill="#1F1D2E"/>
  <rect x="184.4" y="106.0" width="8.4" height="19.6" fill="#1F1D2E"/>
  <rect x="192.8" y="106.0" width="8.4" height="19.6" fill="#1F1D2E"/>
  <rect x="201.2" y="106.0" width="8.4" height="19.6" fill="#1F1D2E"/>
  <rect x="209.6" y="106.0" width="8.4" height="19.6" fill="#1F1D2E"/>
  <rect x="218.0" y="106.0" width="8.4" height="19.6" fill="#1F1D2E"/>
  <rect x="226.4" y="106.0" width="8.4" height="19.6" fill="#1F1D2E"/>
  <rect x="234.8" y="106.0" width="8.4" height="19.6" fill="#1F1D2E"/>
  <rect x="243.2" y="106.0" width="8.4" height="19.6" fill="#1F1D2E"/>
  <rect x="251.6" y="106.0" width="8.4" height="19.6" fill="#1F1D2E"/>
  <rect x="260.0" y="106.0" width="8.4" height="19.6" fill="#1F1D2E"/>
  <rect x="268.4" y="106.0" width="8.4" height="19.6" fill="#1F1D2E"/>
  <rect x="276.8" y="106.0" width="8.4" height="19.6" fill="#1F1D2E"/>
  <rect x="285.2" y="106.0" width="8.4" height="19.6" fill="#1F1D2E"/>
  <rect x="293.6" y="106.0" width="8.4" height="19.6" fill="#1F1D2E"/>
  <rect x="302.0" y="106.0" width="8.4" height="19.6" fill="#1F1D2E"/>
  <rect x="310.4" y="106.0" width="8.4" height="19.6" fill="#1F1D2E"/>
  <rect x="318.8" y="106.0" width="8.4" height="19.6" fill="#1F1D2E"/>
  <rect x="327.2" y="106.0" width="8.4" height="19.6" fill="#1F1D2E"/>
  <rect x="335.6" y="106.0" width="8.4" height="19.6" fill="#1F1D2E"/>
  <rect x="344.0" y="106.0" width="8.4" height="19.6" fill="#14121D"/>
  <rect x="352.4" y="106.0" width="8.4" height="19.6" fill="#14121D"/>
  <rect x="360.8" y="106.0" width="8.4" height="19.6" fill="#14121D"/>
  <rect x="369.2" y="106.0" width="8.4" height="19.6" fill="#14121D"/>
  <path d="M 45.8000 106.0000 L 45.8000 125.6000" fill="none" stroke="#403D52" stroke-width="1.0500" shape-rendering="crispEdges"/>
  <path d="M 339.8000 106.0000 L 339.8000 125.6000" fill="none" stroke="#403D52" stroke-width="1.0500" shape-rendering="crispEdges"/>
  <rect x="8.0" y="125.6" width="8.4" height="19.6" fill="#14121D"/>
  <rect x="16.4" y="125.6" width="8.4" height="19.6" fill="#14121D"/>
  <rect x="24.8" y="125.6" width="8.4" height="19.6" fill="#14121D"/>
  <rect x="33.2" y="125.6" width="8.4" height="19.6" fill="#14121D"/>
  <rect x="41.6" y="125.6" width="8.4" height="19.6" fill="#1F1D2E"/>
  <rect x="50.0" y="125.6" width="8.4" height="19.6" fill="#1F1D2E"/>
  <rect x="58.4" y="125.6" width="8.4" height="19.6" fill="#1F1D2E"/>
  <rect x="66.8" y="125.6" width="8.4" height="19.6" fill="#C4A7E7"/>
  <rect x="75.2" y="125.6" width="8.4" height="19.6" fill="#C4A7E7"/>
  <rect x="83.6" y="125.6" width="8.4" height="19.6" fill="#C4A7E7"/>
  <rect x="92.0" y="125.6" width="8.4" height="19.6" fill="#C4A7E7"/>
  <rect x="100.4" y="125.6" width="8.4" height="19.6" fill="#C4A7E7"/>
  <rect x="108.8" y="125.6" width="8.4" height="19.6" fill="#C4A7E7"/>
  <rect x="117.2" y="125.6" width="8.4" height="19.6" fill="#C4A7E7"/>
  <rect x="125.6" y="125.6" width="8.4" height="19.6" fill="#C4A7E7"/>
  <rect x="134.0" y="125.6" width="8.4" height="19.6" fill="#C4A7E7"/>
  <rect x="142.4" y="125.6" width="8.4" height="19.6" fill="#C4A7E7"/>
  <rect x="150.8" y="125.6" width="8.4" height="19.6" fill="#1F1D2E"/>
  <rect x="159.2" y="125.6" width="8.4" height="19.6" fill="#1F1D2E"/>
  <rect x="167.6" y="125.6" width="8.4" height="19.6" fill="#1F1D2E"/>
  <rect x="176.0" y="125.6" width="8.4" height="19.6" fill="#1F1D2E"/>
  <rect x="184.4" y="125.6" width="8.4" height="19.6" fill="#1F1D2E"/>
  <rect x="192.8" y="125.6" width="8.4" height="19.6" fill="#1F1D2E"/>
  <rect x="201.2" y="125.6" width="8.4" height="19.6" fill="#1F1D2E"/>
  <rect x="209.6" y="125.6" width="8.4" height="19.6" fill="#1F1D2E"/>
  <rect x="218.0" y="125.6" width="8.4" height="19.6" fill="#1F1D2E"/>
  <rect x="226.4" y="125.6" width="8.4" height="19.6" fill="#1F1D2E"/>
  <rect x="234.8" y="125.6" width="8.4" height="19.6" fill="#1F1D2E"/>
  <rect x="243.2" y="125.6" width="8.4" height="19.6" fill="#1F1D2E"/>
  <rect x="251.6" y="125.6" width="8.4" height="19.6" fill="#1F1D2E"/>
  <rect x="260.0" y="125.6" width="8.4" height="19.6" fill="#1F1D2E"/>
  <rect x="268.4" y="125.6" width="8.4" height="19.6" fill="#1F1D2E"/>
  <rect x="276.8" y="125.6" width="8.4" height="19.6" fill="#1F1D2E"/>
  <rect x="285.2" y="125.6" width="8.4" height="19.6" fill="#1F1D2E"/>
  <rect x="293.6" y="125.6" width="8.4" height="19.6" fill="#1F1D2E"/>
  <rect x="302.0" y="125.6" width="8.4" height="19.6" fill="#1F1D2E"/>
  <rect x="310.4" y="125.6" width="8.4" height="19.6" fill="#1F1D2E"/>
  <rect x="318.8" y="125.6" width="8.4" height="19.6" fill="#1F1D2E"/>
  <rect x="327.2" y="125.6" width="8.4" height="19.6" fill="#1F1D2E"/>
  <rect x="335.6" y="125.6" width="8.4" height="19.6" fill="#1F1D2E"/>
  <rect x="344.0" y="125.6" width="8.4" height="19.6" fill="#14121D"/>
  <rect x="352.4" y="125.6" width="8.4" height="19.6" fill="#14121D"/>
  <rect x="360.8" y="125.6" width="8.4" height="19.6" fill="#14121D"/>
  <rect x="369.2" y="125.6" width="8.4" height="19.6" fill="#14121D"/>
  <path d="M 45.8000 125.6000 L 45.8000 145.2000" fill="none" stroke="#403D52" stroke-width="1.0500" shape-rendering="crispEdges"/>
  <text x="66.8" y="135.4" fill="#77668F">[</text>
  <text x="75.2" y="135.4" fill="#191724">Continue</text>
  <text x="142.4" y="135.4" fill="#77668F">]</text>
  <path d="M 339.8000 125.6000 L 339.8000 145.2000" fill="none" stroke="#403D52" stroke-width="1.0500" shape-rendering="crispEdges"/>
  <rect x="8.0" y="145.2" width="8.4" height="19.6" fill="#14121D"/>
  <rect x="16.4" y="145.2" width="8.4" height="19.6" fill="#14121D"/>
  <rect x="24.8" y="145.2" width="8.4" height="19.6" fill="#14121D"/>
  <rect x="33.2" y="145.2" width="8.4" height="19.6" fill="#14121D"/>
  <rect x="41.6" y="145.2" width="8.4" height="19.6" fill="#1F1D2E"/>
  <rect x="50.0" y="145.2" width="8.4" height="19.6" fill="#1F1D2E"/>
  <rect x="58.4" y="145.2" width="8.4" height="19.6" fill="#1F1D2E"/>
  <rect x="66.8" y="145.2" width="8.4" height="19.6" fill="#1F1D2E"/>
  <rect x="75.2" y="145.2" width="8.4" height="19.6" fill="#1F1D2E"/>
  <rect x="83.6" y="145.2" width="8.4" height="19.6" fill="#1F1D2E"/>
  <rect x="92.0" y="145.2" width="8.4" height="19.6" fill="#1F1D2E"/>
  <rect x="100.4" y="145.2" width="8.4" height="19.6" fill="#1F1D2E"/>
  <rect x="108.8" y="145.2" width="8.4" height="19.6" fill="#1F1D2E"/>
  <rect x="117.2" y="145.2" width="8.4" height="19.6" fill="#1F1D2E"/>
  <rect x="125.6" y="145.2" width="8.4" height="19.6" fill="#1F1D2E"/>
  <rect x="134.0" y="145.2" width="8.4" height="19.6" fill="#1F1D2E"/>
  <rect x="142.4" y="145.2" width="8.4" height="19.6" fill="#1F1D2E"/>
  <rect x="150.8" y="145.2" width="8.4" height="19.6" fill="#1F1D2E"/>
  <rect x="159.2" y="145.2" width="8.4" height="19.6" fill="#1F1D2E"/>
  <rect x="167.6" y="145.2" width="8.4" height="19.6" fill="#1F1D2E"/>
  <rect x="176.0" y="145.2" width="8.4" height="19.6" fill="#1F1D2E"/>
  <rect x="184.4" y="145.2" width="8.4" height="19.6" fill="#1F1D2E"/>
  <rect x="192.8" y="145.2" width="8.4" height="19.6" fill="#1F1D2E"/>
  <rect x="201.2" y="145.2" width="8.4" height="19.6" fill="#1F1D2E"/>
  <rect x="209.6" y="145.2" width="8.4" height="19.6" fill="#1F1D2E"/>
  <rect x="218.0" y="145.2" width="8.4" height="19.6" fill="#1F1D2E"/>
  <rect x="226.4" y="145.2" width="8.4" height="19.6" fill="#1F1D2E"/>
  <rect x="234.8" y="145.2" width="8.4" height="19.6" fill="#1F1D2E"/>
  <rect x="243.2" y="145.2" width="8.4" height="19.6" fill="#1F1D2E"/>
  <rect x="251.6" y="145.2" width="8.4" height="19.6" fill="#1F1D2E"/>
  <rect x="260.0" y="145.2" width="8.4" height="19.6" fill="#1F1D2E"/>
  <rect x="268.4" y="145.2" width="8.4" height="19.6" fill="#1F1D2E"/>
  <rect x="276.8" y="145.2" width="8.4" height="19.6" fill="#1F1D2E"/>
  <rect x="285.2" y="145.2" width="8.4" height="19.6" fill="#1F1D2E"/>
  <rect x="293.6" y="145.2" width="8.4" height="19.6" fill="#1F1D2E"/>
  <rect x="302.0" y="145.2" width="8.4" height="19.6" fill="#1F1D2E"/>
  <rect x="310.4" y="145.2" width="8.4" height="19.6" fill="#1F1D2E"/>
  <rect x="318.8" y="145.2" width="8.4" height="19.6" fill="#1F1D2E"/>
  <rect x="327.2" y="145.2" width="8.4" height="19.6" fill="#1F1D2E"/>
  <rect x="335.6" y="145.2" width="8.4" height="19.6" fill="#1F1D2E"/>
  <rect x="344.0" y="145.2" width="8.4" height="19.6" fill="#14121D"/>
  <rect x="352.4" y="145.2" width="8.4" height="19.6" fill="#14121D"/>
  <rect x="360.8" y="145.2" width="8.4" height="19.6" fill="#14121D"/>
  <rect x="369.2" y="145.2" width="8.4" height="19.6" fill="#14121D"/>
  <path d="M 45.8000 145.2000 L 45.8000 164.8000" fill="none" stroke="#403D52" stroke-width="1.0500" shape-rendering="crispEdges"/>
  <path d="M 339.8000 145.2000 L 339.8000 164.8000" fill="none" stroke="#403D52" stroke-width="1.0500" shape-rendering="crispEdges"/>
  <rect x="8.0" y="164.8" width="8.4" height="19.6" fill="#14121D"/>
  <rect x="16.4" y="164.8" width="8.4" height="19.6" fill="#14121D"/>
  <rect x="24.8" y="164.8" width="8.4" height="19.6" fill="#14121D"/>
  <rect x="33.2" y="164.8" width="8.4" height="19.6" fill="#14121D"/>
  <rect x="41.6" y="164.8" width="8.4" height="19.6" fill="#1F1D2E"/>
  <rect x="50.0" y="164.8" width="8.4" height="19.6" fill="#1F1D2E"/>
  <rect x="58.4" y="164.8" width="8.4" height="19.6" fill="#1F1D2E"/>
  <rect x="66.8" y="164.8" width="8.4" height="19.6" fill="#1F1D2E"/>
  <rect x="75.2" y="164.8" width="8.4" height="19.6" fill="#1F1D2E"/>
  <rect x="83.6" y="164.8" width="8.4" height="19.6" fill="#1F1D2E"/>
  <rect x="92.0" y="164.8" width="8.4" height="19.6" fill="#1F1D2E"/>
  <rect x="100.4" y="164.8" width="8.4" height="19.6" fill="#1F1D2E"/>
  <rect x="108.8" y="164.8" width="8.4" height="19.6" fill="#1F1D2E"/>
  <rect x="117.2" y="164.8" width="8.4" height="19.6" fill="#1F1D2E"/>
  <rect x="125.6" y="164.8" width="8.4" height="19.6" fill="#1F1D2E"/>
  <rect x="134.0" y="164.8" width="8.4" height="19.6" fill="#1F1D2E"/>
  <rect x="142.4" y="164.8" width="8.4" height="19.6" fill="#1F1D2E"/>
  <rect x="150.8" y="164.8" width="8.4" height="19.6" fill="#1F1D2E"/>
  <rect x="159.2" y="164.8" width="8.4" height="19.6" fill="#1F1D2E"/>
  <rect x="167.6" y="164.8" width="8.4" height="19.6" fill="#1F1D2E"/>
  <rect x="176.0" y="164.8" width="8.4" height="19.6" fill="#1F1D2E"/>
  <rect x="184.4" y="164.8" width="8.4" height="19.6" fill="#1F1D2E"/>
  <rect x="192.8" y="164.8" width="8.4" height="19.6" fill="#1F1D2E"/>
  <rect x="201.2" y="164.8" width="8.4" height="19.6" fill="#1F1D2E"/>
  <rect x="209.6" y="164.8" width="8.4" height="19.6" fill="#1F1D2E"/>
  <rect x="218.0" y="164.8" width="8.4" height="19.6" fill="#1F1D2E"/>
  <rect x="226.4" y="164.8" width="8.4" height="19.6" fill="#1F1D2E"/>
  <rect x="234.8" y="164.8" width="8.4" height="19.6" fill="#1F1D2E"/>
  <rect x="243.2" y="164.8" width="8.4" height="19.6" fill="#1F1D2E"/>
  <rect x="251.6" y="164.8" width="8.4" height="19.6" fill="#1F1D2E"/>
  <rect x="260.0" y="164.8" width="8.4" height="19.6" fill="#1F1D2E"/>
  <rect x="268.4" y="164.8" width="8.4" height="19.6" fill="#1F1D2E"/>
  <rect x="276.8" y="164.8" width="8.4" height="19.6" fill="#1F1D2E"/>
  <rect x="285.2" y="164.8" width="8.4" height="19.6" fill="#1F1D2E"/>
  <rect x="293.6" y="164.8" width="8.4" height="19.6" fill="#1F1D2E"/>
  <rect x="302.0" y="164.8" width="8.4" height="19.6" fill="#1F1D2E"/>
  <rect x="310.4" y="164.8" width="8.4" height="19.6" fill="#1F1D2E"/>
  <rect x="318.8" y="164.8" width="8.4" height="19.6" fill="#1F1D2E"/>
  <rect x="327.2" y="164.8" width="8.4" height="19.6" fill="#1F1D2E"/>
  <rect x="335.6" y="164.8" width="8.4" height="19.6" fill="#1F1D2E"/>
  <rect x="344.0" y="164.8" width="8.4" height="19.6" fill="#14121D"/>
  <rect x="352.4" y="164.8" width="8.4" height="19.6" fill="#14121D"/>
  <rect x="360.8" y="164.8" width="8.4" height="19.6" fill="#14121D"/>
  <rect x="369.2" y="164.8" width="8.4" height="19.6" fill="#14121D"/>
  <path d="M 50.0000 174.6000 L 50.0000 174.6000 Q 45.8000 174.6000 45.8000 170.4000 L 45.8000 164.8000" fill="none" stroke="#403D52" stroke-width="1.0500"/>
  <path d="M 50.0000 174.6000 L 58.4000 174.6000" fill="none" stroke="#403D52" stroke-width="1.0500" shape-rendering="crispEdges"/>
  <path d="M 58.4000 174.6000 L 66.8000 174.6000" fill="none" stroke="#403D52" stroke-width="1.0500" shape-rendering="crispEdges"/>
  <path d="M 66.8000 174.6000 L 75.2000 174.6000" fill="none" stroke="#403D52" stroke-width="1.0500" shape-rendering="crispEdges"/>
  <path d="M 75.2000 174.6000 L 83.6000 174.6000" fill="none" stroke="#403D52" stroke-width="1.0500" shape-rendering="crispEdges"/>
  <path d="M 83.6000 174.6000 L 92.0000 174.6000" fill="none" stroke="#403D52" stroke-width="1.0500" shape-rendering="crispEdges"/>
  <path d="M 92.0000 174.6000 L 100.4000 174.6000" fill="none" stroke="#403D52" stroke-width="1.0500" shape-rendering="crispEdges"/>
  <path d="M 100.4000 174.6000 L 108.8000 174.6000" fill="none" stroke="#403D52" stroke-width="1.0500" shape-rendering="crispEdges"/>
  <path d="M 108.8000 174.6000 L 117.2000 174.6000" fill="none" stroke="#403D52" stroke-width="1.0500" shape-rendering="crispEdges"/>
  <path d="M 117.2000 174.6000 L 125.6000 174.6000" fill="none" stroke="#403D52" stroke-width="1.0500" shape-rendering="crispEdges"/>
  <path d="M 125.6000 174.6000 L 134.0000 174.6000" fill="none" stroke="#403D52" stroke-width="1.0500" shape-rendering="crispEdges"/>
  <path d="M 134.0000 174.6000 L 142.4000 174.6000" fill="none" stroke="#403D52" stroke-width="1.0500" shape-rendering="crispEdges"/>
  <path d="M 142.4000 174.6000 L 150.8000 174.6000" fill="none" stroke="#403D52" stroke-width="1.0500" shape-rendering="crispEdges"/>
  <path d="M 150.8000 174.6000 L 159.2000 174.6000" fill="none" stroke="#403D52" stroke-width="1.0500" shape-rendering="crispEdges"/>
  <path d="M 159.2000 174.6000 L 167.6000 174.6000" fill="none" stroke="#403D52" stroke-width="1.0500" shape-rendering="crispEdges"/>
  <path d="M 167.6000 174.6000 L 176.0000 174.6000" fill="none" stroke="#403D52" stroke-width="1.0500" shape-rendering="crispEdges"/>
  <path d="M 176.0000 174.6000 L 184.4000 174.6000" fill="none" stroke="#403D52" stroke-width="1.0500" shape-rendering="crispEdges"/>
  <path d="M 184.4000 174.6000 L 192.8000 174.6000" fill="none" stroke="#403D52" stroke-width="1.0500" shape-rendering="crispEdges"/>
  <path d="M 192.8000 174.6000 L 201.2000 174.6000" fill="none" stroke="#403D52" stroke-width="1.0500" shape-rendering="crispEdges"/>
  <path d="M 201.2000 174.6000 L 209.6000 174.6000" fill="none" stroke="#403D52" stroke-width="1.0500" shape-rendering="crispEdges"/>
  <path d="M 209.6000 174.6000 L 218.0000 174.6000" fill="none" stroke="#403D52" stroke-width="1.0500" shape-rendering="crispEdges"/>
  <path d="M 218.0000 174.6000 L 226.4000 174.6000" fill="none" stroke="#403D52" stroke-width="1.0500" shape-rendering="crispEdges"/>
  <path d="M 226.4000 174.6000 L 234.8000 174.6000" fill="none" stroke="#403D52" stroke-width="1.0500" shape-rendering="crispEdges"/>
  <path d="M 234.8000 174.6000 L 243.2000 174.6000" fill="none" stroke="#403D52" stroke-width="1.0500" shape-rendering="crispEdges"/>
  <path d="M 243.2000 174.6000 L 251.6000 174.6000" fill="none" stroke="#403D52" stroke-width="1.0500" shape-rendering="crispEdges"/>
  <path d="M 251.6000 174.6000 L 260.0000 174.6000" fill="none" stroke="#403D52" stroke-width="1.0500" shape-rendering="crispEdges"/>
  <path d="M 260.0000 174.6000 L 268.4000 174.6000" fill="none" stroke="#403D52" stroke-width="1.0500" shape-rendering="crispEdges"/>
  <path d="M 268.4000 174.6000 L 276.8000 174.6000" fill="none" stroke="#403D52" stroke-width="1.0500" shape-rendering="crispEdges"/>
  <path d="M 276.8000 174.6000 L 285.2000 174.6000" fill="none" stroke="#403D52" stroke-width="1.0500" shape-rendering="crispEdges"/>
  <path d="M 285.2000 174.6000 L 293.6000 174.6000" fill="none" stroke="#403D52" stroke-width="1.0500" shape-rendering="crispEdges"/>
  <path d="M 293.6000 174.6000 L 302.0000 174.6000" fill="none" stroke="#403D52" stroke-width="1.0500" shape-rendering="crispEdges"/>
  <path d="M 302.0000 174.6000 L 310.4000 174.6000" fill="none" stroke="#403D52" stroke-width="1.0500" shape-rendering="crispEdges"/>
  <path d="M 310.4000 174.6000 L 318.8000 174.6000" fill="none" stroke="#403D52" stroke-width="1.0500" shape-rendering="crispEdges"/>
  <path d="M 318.8000 174.6000 L 327.2000 174.6000" fill="none" stroke="#403D52" stroke-width="1.0500" shape-rendering="crispEdges"/>
  <path d="M 327.2000 174.6000 L 335.6000 174.6000" fill="none" stroke="#403D52" stroke-width="1.0500" shape-rendering="crispEdges"/>
  <path d="M 335.6000 174.6000 L 335.6000 174.6000 Q 339.8000 174.6000 339.8000 170.4000 L 339.8000 164.8000" fill="none" stroke="#403D52" stroke-width="1.0500"/>
  <rect x="8.0" y="184.4" width="8.4" height="19.6" fill="#14121D"/>
  <rect x="16.4" y="184.4" width="8.4" height="19.6" fill="#14121D"/>
  <rect x="24.8" y="184.4" width="8.4" height="19.6" fill="#14121D"/>
  <rect x="33.2" y="184.4" width="8.4" height="19.6" fill="#14121D"/>
  <rect x="41.6" y="184.4" width="8.4" height="19.6" fill="#14121D"/>
  <rect x="50.0" y="184.4" width="8.4" height="19.6" fill="#14121D"/>
  <rect x="58.4" y="184.4" width="8.4" height="19.6" fill="#14121D"/>
  <rect x="66.8" y="184.4" width="8.4" height="19.6" fill="#14121D"/>
  <rect x="75.2" y="184.4" width="8.4" height="19.6" fill="#14121D"/>
  <rect x="83.6" y="184.4" width="8.4" height="19.6" fill="#14121D"/>
  <rect x="92.0" y="184.4" width="8.4" height="19.6" fill="#14121D"/>
  <rect x="100.4" y="184.4" width="8.4" height="19.6" fill="#14121D"/>
  <rect x="108.8" y="184.4" width="8.4" height="19.6" fill="#14121D"/>
  <rect x="117.2" y="184.4" width="8.4" height="19.6" fill="#14121D"/>
  <rect x="125.6" y="184.4" width="8.4" height="19.6" fill="#14121D"/>
  <rect x="134.0" y="184.4" width="8.4" height="19.6" fill="#14121D"/>
  <rect x="142.4" y="184.4" width="8.4" height="19.6" fill="#14121D"/>
  <rect x="150.8" y="184.4" width="8.4" height="19.6" fill="#14121D"/>
  <rect x="159.2" y="184.4" width="8.4" height="19.6" fill="#14121D"/>
  <rect x="167.6" y="184.4" width="8.4" height="19.6" fill="#14121D"/>
  <rect x="176.0" y="184.4" width="8.4" height="19.6" fill="#14121D"/>
  <rect x="184.4" y="184.4" width="8.4" height="19.6" fill="#14121D"/>
  <rect x="192.8" y="184.4" width="8.4" height="19.6" fill="#14121D"/>
  <rect x="201.2" y="184.4" width="8.4" height="19.6" fill="#14121D"/>
  <rect x="209.6" y="184.4" width="8.4" height="19.6" fill="#14121D"/>
  <rect x="218.0" y="184.4" width="8.4" height="19.6" fill="#14121D"/>
  <rect x="226.4" y="184.4" width="8.4" height="19.6" fill="#14121D"/>
  <rect x="234.8" y="184.4" width="8.4" height="19.6" fill="#14121D"/>
  <rect x="243.2" y="184.4" width="8.4" height="19.6" fill="#14121D"/>
  <rect x="251.6" y="184.4" width="8.4" height="19.6" fill="#14121D"/>
  <rect x="260.0" y="184.4" width="8.4" height="19.6" fill="#14121D"/>
  <rect x="268.4" y="184.4" width="8.4" height="19.6" fill="#14121D"/>
  <rect x="276.8" y="184.4" width="8.4" height="19.6" fill="#14121D"/>
  <rect x="285.2" y="184.4" width="8.4" height="19.6" fill="#14121D"/>
  <rect x="293.6" y="184.4" width="8.4" height="19.6" fill="#14121D"/>
  <rect x="302.0" y="184.4" width="8.4" height="19.6" fill="#14121D"/>
  <rect x="310.4" y="184.4" width="8.4" height="19.6" fill="#14121D"/>
  <rect x="318.8" y="184.4" width="8.4" height="19.6" fill="#14121D"/>
  <rect x="327.2" y="184.4" width="8.4" height="19.6" fill="#14121D"/>
  <rect x="335.6" y="184.4" width="8.4" height="19.6" fill="#14121D"/>
  <rect x="344.0" y="184.4" width="8.4" height="19.6" fill="#14121D"/>
  <rect x="352.4" y="184.4" width="8.4" height="19.6" fill="#14121D"/>
  <rect x="360.8" y="184.4" width="8.4" height="19.6" fill="#14121D"/>
  <rect x="369.2" y="184.4" width="8.4" height="19.6" fill="#14121D"/>
  <rect x="8.0" y="204.0" width="8.4" height="19.6" fill="#14121D"/>
  <rect x="16.4" y="204.0" width="8.4" height="19.6" fill="#14121D"/>
  <rect x="24.8" y="204.0" width="8.4" height="19.6" fill="#14121D"/>
  <rect x="33.2" y="204.0" width="8.4" height="19.6" fill="#14121D"/>
  <rect x="41.6" y="204.0" width="8.4" height="19.6" fill="#14121D"/>
  <rect x="50.0" y="204.0" width="8.4" height="19.6" fill="#14121D"/>
  <rect x="58.4" y="204.0" width="8.4" height="19.6" fill="#14121D"/>
  <rect x="66.8" y="204.0" width="8.4" height="19.6" fill="#14121D"/>
  <rect x="75.2" y="204.0" width="8.4" height="19.6" fill="#14121D"/>
  <rect x="83.6" y="204.0" width="8.4" height="19.6" fill="#14121D"/>
  <rect x="92.0" y="204.0" width="8.4" height="19.6" fill="#14121D"/>
  <rect x="100.4" y="204.0" width="8.4" height="19.6" fill="#14121D"/>
  <rect x="108.8" y="204.0" width="8.4" height="19.6" fill="#14121D"/>
  <rect x="117.2" y="204.0" width="8.4" height="19.6" fill="#14121D"/>
  <rect x="125.6" y="204.0" width="8.4" height="19.6" fill="#14121D"/>
  <rect x="134.0" y="204.0" width="8.4" height="19.6" fill="#14121D"/>
  <rect x="142.4" y="204.0" width="8.4" height="19.6" fill="#14121D"/>
  <rect x="150.8" y="204.0" width="8.4" height="19.6" fill="#14121D"/>
  <rect x="159.2" y="204.0" width="8.4" height="19.6" fill="#14121D"/>
  <rect x="167.6" y="204.0" width="8.4" height="19.6" fill="#14121D"/>
  <rect x="176.0" y="204.0" width="8.4" height="19.6" fill="#14121D"/>
  <rect x="184.4" y="204.0" width="8.4" height="19.6" fill="#14121D"/>
  <rect x="192.8" y="204.0" width="8.4" height="19.6" fill="#14121D"/>
  <rect x="201.2" y="204.0" width="8.4" height="19.6" fill="#14121D"/>
  <rect x="209.6" y="204.0" width="8.4" height="19.6" fill="#14121D"/>
  <rect x="218.0" y="204.0" width="8.4" height="19.6" fill="#14121D"/>
  <rect x="226.4" y="204.0" width="8.4" height="19.6" fill="#14121D"/>
  <rect x="234.8" y="204.0" width="8.4" height="19.6" fill="#14121D"/>
  <rect x="243.2" y="204.0" width="8.4" height="19.6" fill="#14121D"/>
  <rect x="251.6" y="204.0" width="8.4" height="19.6" fill="#14121D"/>
  <rect x="260.0" y="204.0" width="8.4" height="19.6" fill="#14121D"/>
  <rect x="268.4" y="204.0" width="8.4" height="19.6" fill="#14121D"/>
  <rect x="276.8" y="204.0" width="8.4" height="19.6" fill="#14121D"/>
  <rect x="285.2" y="204.0" width="8.4" height="19.6" fill="#14121D"/>
  <rect x="293.6" y="204.0" width="8.4" height="19.6" fill="#14121D"/>
  <rect x="302.0" y="204.0" width="8.4" height="19.6" fill="#14121D"/>
  <rect x="310.4" y="204.0" width="8.4" height="19.6" fill="#14121D"/>
  <rect x="318.8" y="204.0" width="8.4" height="19.6" fill="#14121D"/>
  <rect x="327.2" y="204.0" width="8.4" height="19.6" fill="#14121D"/>
  <rect x="335.6" y="204.0" width="8.4" height="19.6" fill="#14121D"/>
  <rect x="344.0" y="204.0" width="8.4" height="19.6" fill="#14121D"/>
  <rect x="352.4" y="204.0" width="8.4" height="19.6" fill="#14121D"/>
  <rect x="360.8" y="204.0" width="8.4" height="19.6" fill="#14121D"/>
  <rect x="369.2" y="204.0" width="8.4" height="19.6" fill="#14121D"/>
</svg>
