<svg xmlns="http://www.w3.org/2000/svg" width="386" height="153" viewBox="0 0 386 153">
  <style>
    @import url('https://fonts.googleapis.com/css2?family=Fira+Code:wght@400;700&amp;display=swap');
    text { font-family: Fira Code, Menlo, Monaco, Consolas, monospace; font-size: 14px; dominant-baseline: central; }
    rect { shape-rendering: crispEdges; }
    .bold { font-weight: bold; }
    .italic { font-style: italic; }
    .underline { text-decoration: underline; }
    .strikethrough { text-decoration: line-through; }
  </style>
  <rect width="100%" height="100%" fill="#000000"/>
  <rect x="8.0" y="8.0" width="8.4" height="19.6" fill="#2E415B"/>
  <rect x="16.4" y="8.0" width="8.4" height="19.6" fill="#2E415B"/>
  <rect x="24.8" y="8.0" width="8.4" height="19.6" fill="#2E415B"/>
  <rect x="33.2" y="8.0" width="8.4" height="19.6" fill="#2E415B"/>
  <rect x="41.6" y="8.0" width="8.4" height="19.6" fill="#2E415B"/>
  <rect x="50.0" y="8.0" width="8.4" height="19.6" fill="#2E415B"/>
  <rect x="58.4" y="8.0" width="8.4" height="19.6" fill="#2E415B"/>
  <rect x="66.8" y="8.0" width="8.4" height="19.6" fill="#2E415B"/>
  <rect x="75.2" y="8.0" width="8.4" height="19.6" fill="#2E415B"/>
  <rect x="83.6" y="8.0" width="8.4" height="19.6" fill="#2E415B"/>
  <rect x="92.0" y="8.0" width="8.4" height="19.6" fill="#2E415B"/>
  <rect x="100.4" y="8.0" width="8.4" height="19.6" fill="#2E415B"/>
  <rect x="108.8" y="8.0" width="8.4" height="19.6" fill="#2E415B"/>
  <rect x="117.2" y="8.0" width="8.4" height="19.6" fill="#2E415B"/>
  <rect x="125.6" y="8.0" width="8.4" height="19.6" fill="#2E415B"/>
  <rect x="134.0" y="8.0" width="8.4" height="19.6" fill="#2E415B"/>
  <rect x="142.4" y="8.0" width="8.4" height="19.6" fill="#2E415B"/>
  <rect x="150.8" y="8.0" width="8.4" height="19.6" fill="#2E415B"/>
  <rect x="159.2" y="8.0" width="8.4" height="19.6" fill="#2E415B"/>
  <rect x="167.6" y="8.0" width="8.4" height="19.6" fill="#2E415B"/>
  <rect x="176.0" y="8.0" width="8.4" height="19.6" fill="#2E415B"/>
  <rect x="184.4" y="8.0" width="8.4" height="19.6" fill="#2E415B"/>
  <rect x="192.8" y="8.0" width="8.4" height="19.6" fill="#2E415B"/>
  <rect x="201.2" y="8.0" width="8.4" height="19.6" fill="#2E415B"/>
  <rect x="209.6" y="8.0" width="8.4" height="19.6" fill="#2E415B"/>
  <rect x="218.0" y="8.0" width="8.4" height="19.6" fill="#2E415B"/>
  <rect x="226.4" y="8.0" width="8.4" height="19.6" fill="#2E415B"/>
  <rect x="234.8" y="8.0" width="8.4" height="19.6" fill="#2E415B"/>
  <rect x="243.2" y="8.0" width="8.4" height="19.6" fill="#2E415B"/>
  <rect x="251.6" y="8.0" width="8.4" height="19.6" fill="#2E415B"/>
  <rect x="260.0" y="8.0" width="8.4" height="19.6" fill="#2E415B"/>
  <rect x="268.4" y="8.0" width="8.4" height="19.6" fill="#2E415B"/>
  <rect x="276.8" y="8.0" width="8.4" height="19.6" fill="#2E415B"/>
  <rect x="285.2" y="8.0" width="8.4" height="19.6" fill="#2E415B"/>
  <rect x="293.6" y="8.0" width="8.4" height="19.6" fill="#2E415B"/>
  <rect x="302.0" y="8.0" width="8.4" height="19.6" fill="#2E415B"/>
  <rect x="310.4" y="8.0" width="8.4" height="19.6" fill="#2E415B"/>
  <rect x="318.8" y="8.0" width="8.4" height="19.6" fill="#2E415B"/>
  <rect x="327.2" y="8.0" width="8.4" height="19.6" fill="#2E415B"/>
  <rect x="335.6" y="8.0" width="8.4" height="19.6" fill="#2E415B"/>
  <rect x="344.0" y="8.0" width="8.4" height="19.6" fill="#2E415B"/>
  <rect x="352.4" y="8.0" width="8.4" height="19.6" fill="#2E415B"/>
  <rect x="360.8" y="8.0" width="8.4" height="19.6" fill="#2E415B"/>
  <rect x="369.2" y="8.0" width="8.4" height="19.6" fill="#2E415B"/>
  <text x="8.0" y="17.8" fill="#E0DEF4">Files</text>
  <rect x="8.0" y="27.6" width="8.4" height="19.6" fill="#212B3D"/>
  <rect x="16.4" y="27.6" width="8.4" height="19.6" fill="#212B3D"/>
  <rect x="24.8" y="27.6" width="8.4" height="19.6" fill="#212B3D"/>
  <rect x="33.2" y="27.6" width="8.4" height="19.6" fill="#212B3D"/>
  <rect x="41.6" y="27.6" width="8.4" height="19.6" fill="#212B3D"/>
  <rect x="50.0" y="27.6" width="8.4" height="19.6" fill="#212B3D"/>
  <rect x="58.4" y="27.6" width="8.4" height="19.6" fill="#212B3D"/>
  <rect x="66.8" y="27.6" width="8.4" height="19.6" fill="#212B3D"/>
  <rect x="75.2" y="27.6" width="8.4" height="19.6" fill="#212B3D"/>
  <rect x="83.6" y="27.6" width="8.4" height="19.6" fill="#212B3D"/>
  <rect x="92.0" y="27.6" width="8.4" height="19.6" fill="#212B3D"/>
  <rect x="100.4" y="27.6" width="8.4" height="19.6" fill="#212B3D"/>
  <text x="8.0" y="37.4" fill="#E0DEF4">src</text>
  <text x="108.8" y="37.4" fill="#E0DEF4">Select</text>
  <text x="167.6" y="37.4" fill="#E0DEF4">a</text>
  <text x="184.4" y="37.4" fill="#E0DEF4">file</text>
  <text x="226.4" y="37.4" fill="#E0DEF4">to</text>
  <text x="251.6" y="37.4" fill="#E0DEF4">preview.</text>
  <rect x="8.0" y="47.2" width="8.4" height="19.6" fill="#212B3D"/>
  <rect x="16.4" y="47.2" width="8.4" height="19.6" fill="#212B3D"/>
  <rect x="24.8" y="47.2" width="8.4" height="19.6" fill="#212B3D"/>
  <rect x="33.2" y="47.2" width="8.4" height="19.6" fill="#212B3D"/>
  <rect x="41.6" y="47.2" width="8.4" height="19.6" fill="#212B3D"/>
  <rect x="50.0" y="47.2" width="8.4" height="19.6" fill="#212B3D"/>
  <rect x="58.4" y="47.2" width="8.4" height="19.6" fill="#212B3D"/>
  <rect x="66.8" y="47.2" width="8.4" height="19.6" fill="#212B3D"/>
  <rect x="75.2" y="47.2" width="8.4" height="19.6" fill="#212B3D"/>
  <rect x="83.6" y="47.2" width="8.4" height="19.6" fill="#212B3D"/>
  <rect x="92.0" y="47.2" width="8.4" height="19.6" fill="#212B3D"/>
  <rect x="100.4" y="47.2" width="8.4" height="19.6" fill="#212B3D"/>
  <text x="8.0" y="57.0" fill="#E0DEF4">docs</text>
  <rect x="8.0" y="66.8" width="8.4" height="19.6" fill="#212B3D"/>
  <rect x="16.4" y="66.8" width="8.4" height="19.6" fill="#212B3D"/>
  <rect x="24.8" y="66.8" width="8.4" height="19.6" fill="#212B3D"/>
  <rect x="33.2" y="66.8" width="8.4" height="19.6" fill="#212B3D"/>
  <rect x="41.6" y="66.8" width="8.4" height="19.6" fill="#212B3D"/>
  <rect x="50.0" y="66.8" width="8.4" height="19.6" fill="#212B3D"/>
  <rect x="58.4" y="66.8" width="8.4" height="19.6" fill="#212B3D"/>
  <rect x="66.8" y="66.8" width="8.4" height="19.6" fill="#212B3D"/>
  <rect x="75.2" y="66.8" width="8.4" height="19.6" fill="#212B3D"/>
  <rect x="83.6" y="66.8" width="8.4" height="19.6" fill="#212B3D"/>
  <rect x="92.0" y="66.8" width="8.4" height="19.6" fill="#212B3D"/>
  <rect x="100.4" y="66.8" width="8.4" height="19.6" fill="#212B3D"/>
  <text x="8.0" y="76.6" fill="#E0DEF4">tests</text>
  <rect x="8.0" y="86.4" width="8.4" height="19.6" fill="#212B3D"/>
  <rect x="16.4" y="86.4" width="8.4" height="19.6" fill="#212B3D"/>
  <rect x="24.8" y="86.4" width="8.4" height="19.6" fill="#212B3D"/>
  <rect x="33.2" y="86.4" width="8.4" height="19.6" fill="#212B3D"/>
  <rect x="41.6" y="86.4" width="8.4" height="19.6" fill="#212B3D"/>
  <rect x="50.0" y="86.4" width="8.4" height="19.6" fill="#212B3D"/>
  <rect x="58.4" y="86.4" width="8.4" height="19.6" fill="#212B3D"/>
  <rect x="66.8" y="86.4" width="8.4" height="19.6" fill="#212B3D"/>
  <rect x="75.2" y="86.4" width="8.4" height="19.6" fill="#212B3D"/>
  <rect x="83.6" y="86.4" width="8.4" height="19.6" fill="#212B3D"/>
  <rect x="92.0" y="86.4" width="8.4" height="19.6" fill="#212B3D"/>
  <rect x="100.4" y="86.4" width="8.4" height="19.6" fill="#212B3D"/>
  <rect x="8.0" y="106.0" width="8.4" height="19.6" fill="#212B3D"/>
  <rect x="16.4" y="106.0" width="8.4" height="19.6" fill="#212B3D"/>
  <rect x="24.8" y="106.0" width="8.4" height="19.6" fill="#212B3D"/>
  <rect x="33.2" y="106.0" width="8.4" height="19.6" fill="#212B3D"/>
  <rect x="41.6" y="106.0" width="8.4" height="19.6" fill="#212B3D"/>
  <rect x="50.0" y="106.0" width="8.4" height="19.6" fill="#212B3D"/>
  <rect x="58.4" y="106.0" width="8.4" height="19.6" fill="#212B3D"/>
  <rect x="66.8" y="106.0" width="8.4" height="19.6" fill="#212B3D"/>
  <rect x="75.2" y="106.0" width="8.4" height="19.6" fill="#212B3D"/>
  <rect x="83.6" y="106.0" width="8.4" height="19.6" fill="#212B3D"/>
  <rect x="92.0" y="106.0" width="8.4" height="19.6" fill="#212B3D"/>
  <rect x="100.4" y="106.0" width="8.4" height="19.6" fill="#212B3D"/>
  <text x="8.0" y="135.4" fill="#E0DEF4">Ready</text>
</svg>
