<svg xmlns="http://www.w3.org/2000/svg" width="302" height="94" viewBox="0 0 302 94">
  <style>
    @import url('https://fonts.googleapis.com/css2?family=Fira+Code:wght@400;700&amp;display=swap');
    text { font-family: Fira Code, Menlo, Monaco, Consolas, monospace; font-size: 14px; dominant-baseline: central; }
    rect { shape-rendering: crispEdges; }
    .bold { font-weight: bold; }
    .italic { font-style: italic; }
    .underline { text-decoration: underline; }
    .strikethrough { text-decoration: line-through; }
  </style>
  <rect width="100%" height="100%" fill="#000000"/>
  <text x="8.0" y="17.8" fill="#E0DEF4">Requests</text>
  <text x="83.6" y="17.8" fill="#E0DEF4">per</text>
  <text x="117.2" y="17.8" fill="#E0DEF4">minute</text>
  <rect x="8.00" y="64.35" width="8.40" height="2.45" fill="#908CAA"/>
  <rect x="16.40" y="64.35" width="8.40" height="2.45" fill="#938EAD"/>
  <rect x="24.80" y="61.90" width="8.40" height="4.90" fill="#968FB1"/>
  <rect x="33.20" y="61.90" width="8.40" height="4.90" fill="#9890B3"/>
  <rect x="41.60" y="61.90" width="8.40" height="4.90" fill="#978FB2"/>
  <rect x="50.00" y="61.90" width="8.40" height="4.90" fill="#958FB0"/>
  <rect x="58.40" y="61.90" width="8.40" height="4.90" fill="#9790B2"/>
  <rect x="66.80" y="59.45" width="8.40" height="7.35" fill="#9E93BB"/>
  <rect x="75.20" y="57.00" width="8.40" height="9.80" fill="#A597C3"/>
  <rect x="83.60" y="57.00" width="8.40" height="9.80" fill="#A698C4"/>
  <rect x="92.00" y="59.45" width="8.40" height="7.35" fill="#A295BF"/>
  <rect x="100.40" y="59.45" width="8.40" height="7.35" fill="#9E93BA"/>
  <rect x="108.80" y="57.00" width="8.40" height="9.80" fill="#A496C1"/>
  <rect x="117.20" y="54.55" width="8.40" height="12.25" fill="#AE9CCD"/>
  <rect x="125.60" y="52.10" width="8.40" height="14.70" fill="#B8A1D9"/>
  <rect x="134.00" y="52.10" width="8.40" height="14.70" fill="#B59FD6"/>
  <rect x="142.40" y="54.55" width="8.40" height="12.25" fill="#B19DD1"/>
  <rect x="150.80" y="54.55" width="8.40" height="12.25" fill="#AE9BCD"/>
  <rect x="159.20" y="52.10" width="8.40" height="14.70" fill="#B6A0D7"/>
  <rect x="167.60" y="49.65" width="8.40" height="17.15" fill="#BFA5E1"/>
  <rect x="176.00" y="47.20" width="8.40" height="19.60" fill="#C4A7E7"/>
  <rect x="184.40" y="49.65" width="8.40" height="17.15" fill="#BEA4E0"/>
  <rect x="192.80" y="52.10" width="8.40" height="14.70" fill="#B8A1D9"/>
  <rect x="201.20" y="52.10" width="8.40" height="14.70" fill="#B29ED2"/>
  <rect x="209.60" y="54.55" width="8.40" height="12.25" fill="#AA9AC9"/>
  <rect x="218.00" y="57.00" width="8.40" height="9.80" fill="#A396C0"/>
  <rect x="226.40" y="59.45" width="8.40" height="7.35" fill="#A296C0"/>
  <rect x="234.80" y="57.00" width="8.40" height="9.80" fill="#A597C3"/>
  <rect x="243.20" y="57.00" width="8.40" height="9.80" fill="#A899C6"/>
  <rect x="251.60" y="54.55" width="8.40" height="12.25" fill="#B09DCF"/>
  <rect x="260.00" y="52.10" width="8.40" height="14.70" fill="#B9A1DA"/>
  <rect x="268.40" y="47.20" width="8.40" height="19.60" fill="#C1A6E4"/>
</svg>
