<svg xmlns="http://www.w3.org/2000/svg" width="352" height="251" viewBox="0 0 352 251">
  <style>
    @import url('https://fonts.googleapis.com/css2?family=Fira+Code:wght@400;700&amp;display=swap');
    text { font-family: Fira Code, Menlo, Monaco, Consolas, monospace; font-size: 14px; dominant-baseline: central; }
    rect { shape-rendering: crispEdges; }
    .bold { font-weight: bold; }
    .italic { font-style: italic; }
    .underline { text-decoration: underline; }
    .strikethrough { text-decoration: line-through; }
  </style>
  <rect width="100%" height="100%" fill="#000000"/>
  <text x="16.4" y="37.4" fill="#E0DEF4">outside</text>
  <path d="M 24.8000 57.0000 L 24.8000 57.0000 Q 20.6000 57.0000 20.6000 61.2000 L 20.6000 66.8000" fill="none" stroke="#0000AA" stroke-width="1.0500"/>
  <path d="M 24.8000 57.0000 L 33.2000 57.0000" fill="none" stroke="#0000AA" stroke-width="1.0500" shape-rendering="crispEdges"/>
  <path d="M 33.2000 57.0000 L 41.6000 57.0000" fill="none" stroke="#0000AA" stroke-width="1.0500" shape-rendering="crispEdges"/>
  <path d="M 41.6000 57.0000 L 50.0000 57.0000" fill="none" stroke="#0000AA" stroke-width="1.0500" shape-rendering="crispEdges"/>
  <path d="M 50.0000 57.0000 L 58.4000 57.0000" fill="none" stroke="#0000AA" stroke-width="1.0500" shape-rendering="crispEdges"/>
  <path d="M 58.4000 57.0000 L 66.8000 57.0000" fill="none" stroke="#0000AA" stroke-width="1.0500" shape-rendering="crispEdges"/>
  <path d="M 66.8000 57.0000 L 75.2000 57.0000" fill="none" stroke="#0000AA" stroke-width="1.0500" shape-rendering="crispEdges"/>
  <path d="M 75.2000 57.0000 L 83.6000 57.0000" fill="none" stroke="#0000AA" stroke-width="1.0500" shape-rendering="crispEdges"/>
  <path d="M 83.6000 57.0000 L 92.0000 57.0000" fill="none" stroke="#0000AA" stroke-width="1.0500" shape-rendering="crispEdges"/>
  <path d="M 92.0000 57.0000 L 100.4000 57.0000" fill="none" stroke="#0000AA" stroke-width="1.0500" shape-rendering="crispEdges"/>
  <path d="M 100.4000 57.0000 L 108.8000 57.0000" fill="none" stroke="#0000AA" stroke-width="1.0500" shape-rendering="crispEdges"/>
  <path d="M 108.8000 57.0000 L 117.2000 57.0000" fill="none" stroke="#0000AA" stroke-width="1.0500" shape-rendering="crispEdges"/>
  <path d="M 117.2000 57.0000 L 125.6000 57.0000" fill="none" stroke="#0000AA" stroke-width="1.0500" shape-rendering="crispEdges"/>
  <path d="M 125.6000 57.0000 L 134.0000 57.0000" fill="none" stroke="#0000AA" stroke-width="1.0500" shape-rendering="crispEdges"/>
  <path d="M 134.0000 57.0000 L 142.4000 57.0000" fill="none" stroke="#0000AA" stroke-width="1.0500" shape-rendering="crispEdges"/>
  <path d="M 142.4000 57.0000 L 150.8000 57.0000" fill="none" stroke="#0000AA" stroke-width="1.0500" shape-rendering="crispEdges"/>
  <path d="M 150.8000 57.0000 L 159.2000 57.0000" fill="none" stroke="#0000AA" stroke-width="1.0500" shape-rendering="crispEdges"/>
  <path d="M 159.2000 57.0000 L 167.6000 57.0000" fill="none" stroke="#0000AA" stroke-width="1.0500" shape-rendering="crispEdges"/>
  <path d="M 167.6000 57.0000 L 176.0000 57.0000" fill="none" stroke="#0000AA" stroke-width="1.0500" shape-rendering="crispEdges"/>
  <path d="M 176.0000 57.0000 L 184.4000 57.0000" fill="none" stroke="#0000AA" stroke-width="1.0500" shape-rendering="crispEdges"/>
  <path d="M 184.4000 57.0000 L 192.8000 57.0000" fill="none" stroke="#0000AA" stroke-width="1.0500" shape-rendering="crispEdges"/>
  <path d="M 192.8000 57.0000 L 201.2000 57.0000" fill="none" stroke="#0000AA" stroke-width="1.0500" shape-rendering="crispEdges"/>
  <path d="M 201.2000 57.0000 L 209.6000 57.0000" fill="none" stroke="#0000AA" stroke-width="1.0500" shape-rendering="crispEdges"/>
  <path d="M 209.6000 57.0000 L 218.0000 57.0000" fill="none" stroke="#0000AA" stroke-width="1.0500" shape-rendering="crispEdges"/>
  <path d="M 218.0000 57.0000 L 226.4000 57.0000" fill="none" stroke="#0000AA" stroke-width="1.0500" shape-rendering="crispEdges"/>
  <path d="M 226.4000 57.0000 L 234.8000 57.0000" fill="none" stroke="#0000AA" stroke-width="1.0500" shape-rendering="crispEdges"/>
  <path d="M 234.8000 57.0000 L 243.2000 57.0000" fill="none" stroke="#0000AA" stroke-width="1.0500" shape-rendering="crispEdges"/>
  <path d="M 243.2000 57.0000 L 251.6000 57.0000" fill="none" stroke="#0000AA" stroke-width="1.0500" shape-rendering="crispEdges"/>
  <path d="M 251.6000 57.0000 L 260.0000 57.0000" fill="none" stroke="#0000AA" stroke-width="1.0500" shape-rendering="crispEdges"/>
  <path d="M 260.0000 57.0000 L 268.4000 57.0000" fill="none" stroke="#0000AA" stroke-width="1.0500" shape-rendering="crispEdges"/>
  <path d="M 268.4000 57.0000 L 276.8000 57.0000" fill="none" stroke="#0000AA" stroke-width="1.0500" shape-rendering="crispEdges"/>
  <path d="M 276.8000 57.0000 L 285.2000 57.0000" fill="none" stroke="#0000AA" stroke-width="1.0500" shape-rendering="crispEdges"/>
  <path d="M 285.2000 57.0000 L 293.6000 57.0000" fill="none" stroke="#0000AA" stroke-width="1.0500" shape-rendering="crispEdges"/>
  <path d="M 293.6000 57.0000 L 293.6000 57.0000 Q 297.8000 57.0000 297.8000 61.2000 L 297.8000 66.8000" fill="none" stroke="#0000AA" stroke-width="1.0500"/>
  <path d="M 20.6000 66.8000 L 20.6000 86.4000" fill="none" stroke="#0000AA" stroke-width="1.0500" shape-rendering="crispEdges"/>
  <path d="M 297.8000 66.8000 L 297.8000 86.4000" fill="none" stroke="#0000AA" stroke-width="1.0500" shape-rendering="crispEdges"/>
  <path d="M 20.6000 86.4000 L 20.6000 106.0000" fill="none" stroke="#0000AA" stroke-width="1.0500" shape-rendering="crispEdges"/>
  <text x="33.2" y="96.2" fill="#E0DEF4">Name</text>
  <text x="75.2" y="96.2" fill="#E0DEF4">↑</text>
  <text x="184.4" y="96.2" fill="#E0DEF4">Age</text>
  <text x="218.0" y="96.2" fill="#E0DEF4">↕</text>
  <text x="268.4" y="96.2" fill="#E0DEF4">No</text>
  <path d="M 297.8000 86.4000 L 297.8000 106.0000" fill="none" stroke="#0000AA" stroke-width="1.0500" shape-rendering="crispEdges"/>
  <path d="M 20.6000 106.0000 L 20.6000 125.6000" fill="none" stroke="#0000AA" stroke-width="1.0500" shape-rendering="crispEdges"/>
  <text x="33.2" y="115.8" fill="#E0DEF4">Leo</text>
  <text x="184.4" y="115.8" fill="#E0DEF4">40</text>
  <text x="268.4" y="115.8" fill="#E0DEF4">re</text>
  <path d="M 297.8000 106.0000 L 297.8000 125.6000" fill="none" stroke="#0000AA" stroke-width="1.0500" shape-rendering="crispEdges"/>
  <path d="M 20.6000 125.6000 L 20.6000 145.2000" fill="none" stroke="#0000AA" stroke-width="1.0500" shape-rendering="crispEdges"/>
  <text x="33.2" y="135.4" fill="#E0DEF4">Mia</text>
  <text x="184.4" y="135.4" fill="#E0DEF4">20</text>
  <text x="268.4" y="135.4" fill="#E0DEF4">re</text>
  <path d="M 297.8000 125.6000 L 297.8000 145.2000" fill="none" stroke="#0000AA" stroke-width="1.0500" shape-rendering="crispEdges"/>
  <path d="M 20.6000 145.2000 L 20.6000 164.8000" fill="none" stroke="#0000AA" stroke-width="1.0500" shape-rendering="crispEdges"/>
  <text x="33.2" y="155.0" fill="#E0DEF4">Uma</text>
  <text x="184.4" y="155.0" fill="#E0DEF4">25</text>
  <text x="268.4" y="155.0" fill="#E0DEF4">re</text>
  <path d="M 297.8000 145.2000 L 297.8000 164.8000" fill="none" stroke="#0000AA" stroke-width="1.0500" shape-rendering="crispEdges"/>
  <rect x="33.2" y="164.8" width="8.4" height="19.6" fill="#0000AA"/>
  <rect x="41.6" y="164.8" width="8.4" height="19.6" fill="#0000AA"/>
  <rect x="50.0" y="164.8" width="8.4" height="19.6" fill="#0000AA"/>
  <rect x="58.4" y="164.8" width="8.4" height="19.6" fill="#0000AA"/>
  <rect x="66.8" y="164.8" width="8.4" height="19.6" fill="#0000AA"/>
  <rect x="75.2" y="164.8" width="8.4" height="19.6" fill="#0000AA"/>
  <rect x="83.6" y="164.8" width="8.4" height="19.6" fill="#0000AA"/>
  <rect x="92.0" y="164.8" width="8.4" height="19.6" fill="#0000AA"/>
  <rect x="100.4" y="164.8" width="8.4" height="19.6" fill="#0000AA"/>
  <rect x="108.8" y="164.8" width="8.4" height="19.6" fill="#0000AA"/>
  <rect x="117.2" y="164.8" width="8.4" height="19.6" fill="#0000AA"/>
  <rect x="125.6" y="164.8" width="8.4" height="19.6" fill="#0000AA"/>
  <rect x="134.0" y="164.8" width="8.4" height="19.6" fill="#0000AA"/>
  <rect x="142.4" y="164.8" width="8.4" height="19.6" fill="#0000AA"/>
  <rect x="150.8" y="164.8" width="8.4" height="19.6" fill="#0000AA"/>
  <rect x="159.2" y="164.8" width="8.4" height="19.6" fill="#0000AA"/>
  <rect x="167.6" y="164.8" width="8.4" height="19.6" fill="#0000AA"/>
  <rect x="184.4" y="164.8" width="8.4" height="19.6" fill="#0000AA"/>
  <rect x="192.8" y="164.8" width="8.4" height="19.6" fill="#0000AA"/>
  <rect x="201.2" y="164.8" width="8.4" height="19.6" fill="#0000AA"/>
  <rect x="209.6" y="164.8" width="8.4" height="19.6" fill="#0000AA"/>
  <rect x="218.0" y="164.8" width="8.4" height="19.6" fill="#0000AA"/>
  <rect x="226.4" y="164.8" width="8.4" height="19.6" fill="#0000AA"/>
  <rect x="234.8" y="164.8" width="8.4" height="19.6" fill="#0000AA"/>
  <rect x="243.2" y="164.8" width="8.4" height="19.6" fill="#0000AA"/>
  <rect x="251.6" y="164.8" width="8.4" height="19.6" fill="#0000AA"/>
  <rect x="268.4" y="164.8" width="8.4" height="19.6" fill="#0000AA"/>
  <rect x="276.8" y="164.8" width="8.4" height="19.6" fill="#0000AA"/>
  <path d="M 20.6000 164.8000 L 20.6000 184.4000" fill="none" stroke="#0000AA" stroke-width="1.0500" shape-rendering="crispEdges"/>
  <text x="33.2" y="174.6" class="bold" fill="#E0DEF4">Zoe</text>
  <text x="184.4" y="174.6" class="bold" fill="#E0DEF4">30</text>
  <text x="268.4" y="174.6" class="bold" fill="#E0DEF4">re</text>
  <path d="M 297.8000 164.8000 L 297.8000 184.4000" fill="none" stroke="#0000AA" stroke-width="1.0500" shape-rendering="crispEdges"/>
  <path d="M 20.6000 184.4000 L 20.6000 204.0000" fill="none" stroke="#0000AA" stroke-width="1.0500" shape-rendering="crispEdges"/>
  <path d="M 297.8000 184.4000 L 297.8000 204.0000" fill="none" stroke="#0000AA" stroke-width="1.0500" shape-rendering="crispEdges"/>
  <path d="M 24.8000 213.8000 L 24.8000 213.8000 Q 20.6000 213.8000 20.6000 209.6000 L 20.6000 204.0000" fill="none" stroke="#0000AA" stroke-width="1.0500"/>
  <path d="M 24.8000 213.8000 L 33.2000 213.8000" fill="none" stroke="#0000AA" stroke-width="1.0500" shape-rendering="crispEdges"/>
  <path d="M 33.2000 213.8000 L 41.6000 213.8000" fill="none" stroke="#0000AA" stroke-width="1.0500" shape-rendering="crispEdges"/>
  <path d="M 41.6000 213.8000 L 50.0000 213.8000" fill="none" stroke="#0000AA" stroke-width="1.0500" shape-rendering="crispEdges"/>
  <path d="M 50.0000 213.8000 L 58.4000 213.8000" fill="none" stroke="#0000AA" stroke-width="1.0500" shape-rendering="crispEdges"/>
  <path d="M 58.4000 213.8000 L 66.8000 213.8000" fill="none" stroke="#0000AA" stroke-width="1.0500" shape-rendering="crispEdges"/>
  <path d="M 66.8000 213.8000 L 75.2000 213.8000" fill="none" stroke="#0000AA" stroke-width="1.0500" shape-rendering="crispEdges"/>
  <path d="M 75.2000 213.8000 L 83.6000 213.8000" fill="none" stroke="#0000AA" stroke-width="1.0500" shape-rendering="crispEdges"/>
  <path d="M 83.6000 213.8000 L 92.0000 213.8000" fill="none" stroke="#0000AA" stroke-width="1.0500" shape-rendering="crispEdges"/>
  <path d="M 92.0000 213.8000 L 100.4000 213.8000" fill="none" stroke="#0000AA" stroke-width="1.0500" shape-rendering="crispEdges"/>
  <path d="M 100.4000 213.8000 L 108.8000 213.8000" fill="none" stroke="#0000AA" stroke-width="1.0500" shape-rendering="crispEdges"/>
  <path d="M 108.8000 213.8000 L 117.2000 213.8000" fill="none" stroke="#0000AA" stroke-width="1.0500" shape-rendering="crispEdges"/>
  <path d="M 117.2000 213.8000 L 125.6000 213.8000" fill="none" stroke="#0000AA" stroke-width="1.0500" shape-rendering="crispEdges"/>
  <path d="M 125.6000 213.8000 L 134.0000 213.8000" fill="none" stroke="#0000AA" stroke-width="1.0500" shape-rendering="crispEdges"/>
  <path d="M 134.0000 213.8000 L 142.4000 213.8000" fill="none" stroke="#0000AA" stroke-width="1.0500" shape-rendering="crispEdges"/>
  <path d="M 142.4000 213.8000 L 150.8000 213.8000" fill="none" stroke="#0000AA" stroke-width="1.0500" shape-rendering="crispEdges"/>
  <path d="M 150.8000 213.8000 L 159.2000 213.8000" fill="none" stroke="#0000AA" stroke-width="1.0500" shape-rendering="crispEdges"/>
  <path d="M 159.2000 213.8000 L 167.6000 213.8000" fill="none" stroke="#0000AA" stroke-width="1.0500" shape-rendering="crispEdges"/>
  <path d="M 167.6000 213.8000 L 176.0000 213.8000" fill="none" stroke="#0000AA" stroke-width="1.0500" shape-rendering="crispEdges"/>
  <path d="M 176.0000 213.8000 L 184.4000 213.8000" fill="none" stroke="#0000AA" stroke-width="1.0500" shape-rendering="crispEdges"/>
  <path d="M 184.4000 213.8000 L 192.8000 213.8000" fill="none" stroke="#0000AA" stroke-width="1.0500" shape-rendering="crispEdges"/>
  <path d="M 192.8000 213.8000 L 201.2000 213.8000" fill="none" stroke="#0000AA" stroke-width="1.0500" shape-rendering="crispEdges"/>
  <path d="M 201.2000 213.8000 L 209.6000 213.8000" fill="none" stroke="#0000AA" stroke-width="1.0500" shape-rendering="crispEdges"/>
  <path d="M 209.6000 213.8000 L 218.0000 213.8000" fill="none" stroke="#0000AA" stroke-width="1.0500" shape-rendering="crispEdges"/>
  <path d="M 218.0000 213.8000 L 226.4000 213.8000" fill="none" stroke="#0000AA" stroke-width="1.0500" shape-rendering="crispEdges"/>
  <path d="M 226.4000 213.8000 L 234.8000 213.8000" fill="none" stroke="#0000AA" stroke-width="1.0500" shape-rendering="crispEdges"/>
  <path d="M 234.8000 213.8000 L 243.2000 213.8000" fill="none" stroke="#0000AA" stroke-width="1.0500" shape-rendering="crispEdges"/>
  <path d="M 243.2000 213.8000 L 251.6000 213.8000" fill="none" stroke="#0000AA" stroke-width="1.0500" shape-rendering="crispEdges"/>
  <path d="M 251.6000 213.8000 L 260.0000 213.8000" fill="none" stroke="#0000AA" stroke-width="1.0500" shape-rendering="crispEdges"/>
  <path d="M 260.0000 213.8000 L 268.4000 213.8000" fill="none" stroke="#0000AA" stroke-width="1.0500" shape-rendering="crispEdges"/>
  <path d="M 268.4000 213.8000 L 276.8000 213.8000" fill="none" stroke="#0000AA" stroke-width="1.0500" shape-rendering="crispEdges"/>
  <path d="M 276.8000 213.8000 L 285.2000 213.8000" fill="none" stroke="#0000AA" stroke-width="1.0500" shape-rendering="crispEdges"/>
  <path d="M 285.2000 213.8000 L 293.6000 213.8000" fill="none" stroke="#0000AA" stroke-width="1.0500" shape-rendering="crispEdges"/>
  <path d="M 293.6000 213.8000 L 293.6000 213.8000 Q 297.8000 213.8000 297.8000 209.6000 L 297.8000 204.0000" fill="none" stroke="#0000AA" stroke-width="1.0500"/>
</svg>
