<svg xmlns="http://www.w3.org/2000/svg" width="318" height="212" viewBox="0 0 318 212">
  <style>
    @import url('https://fonts.googleapis.com/css2?family=Fira+Code:wght@400;700&amp;display=swap');
    text { font-family: Fira Code, Menlo, Monaco, Consolas, monospace; font-size: 14px; dominant-baseline: central; }
    rect { shape-rendering: crispEdges; }
    .bold { font-weight: bold; }
    .italic { font-style: italic; }
    .underline { text-decoration: underline; }
    .strikethrough { text-decoration: line-through; }
  </style>
  <rect width="100%" height="100%" fill="#000000"/>
  <rect x="8.0" y="8.0" width="8.4" height="19.6" fill="#F6C177"/>
  <rect x="16.4" y="8.0" width="8.4" height="19.6" fill="#F6C177"/>
  <rect x="24.8" y="8.0" width="8.4" height="19.6" fill="#F6C177"/>
  <rect x="33.2" y="8.0" width="8.4" height="19.6" fill="#F6C177"/>
  <rect x="41.6" y="8.0" width="8.4" height="19.6" fill="#F6C177"/>
  <rect x="50.0" y="8.0" width="8.4" height="19.6" fill="#F6C177"/>
  <rect x="58.4" y="8.0" width="8.4" height="19.6" fill="#F6C177"/>
  <rect x="66.8" y="8.0" width="8.4" height="19.6" fill="#F6C177"/>
  <rect x="75.2" y="8.0" width="8.4" height="19.6" fill="#F6C177"/>
  <rect x="83.6" y="8.0" width="8.4" height="19.6" fill="#F6C177"/>
  <rect x="92.0" y="8.0" width="8.4" height="19.6" fill="#F6C177"/>
  <rect x="100.4" y="8.0" width="8.4" height="19.6" fill="#F6C177"/>
  <rect x="108.8" y="8.0" width="8.4" height="19.6" fill="#F6C177"/>
  <rect x="117.2" y="8.0" width="8.4" height="19.6" fill="#F6C177"/>
  <rect x="125.6" y="8.0" width="8.4" height="19.6" fill="#F6C177"/>
  <rect x="134.0" y="8.0" width="8.4" height="19.6" fill="#F6C177"/>
  <rect x="142.4" y="8.0" width="8.4" height="19.6" fill="#F6C177"/>
  <rect x="150.8" y="8.0" width="8.4" height="19.6" fill="#F6C177"/>
  <rect x="159.2" y="8.0" width="8.4" height="19.6" fill="#F6C177"/>
  <rect x="167.6" y="8.0" width="8.4" height="19.6" fill="#F6C177"/>
  <rect x="176.0" y="8.0" width="8.4" height="19.6" fill="#F6C177"/>
  <rect x="184.4" y="8.0" width="8.4" height="19.6" fill="#F6C177"/>
  <rect x="192.8" y="8.0" width="8.4" height="19.6" fill="#F6C177"/>
  <rect x="201.2" y="8.0" width="8.4" height="19.6" fill="#F6C177"/>
  <text x="8.0" y="17.8" fill="#191724">Choose</text>
  <text x="66.8" y="17.8" fill="#191724">an</text>
  <text x="92.0" y="17.8" fill="#191724">option</text>
  <text x="150.8" y="17.8" fill="#191724">▴</text>
  <rect x="8.0" y="27.6" width="8.4" height="19.6" fill="#1F1D2E"/>
  <rect x="16.4" y="27.6" width="8.4" height="19.6" fill="#1F1D2E"/>
  <rect x="24.8" y="27.6" width="8.4" height="19.6" fill="#1F1D2E"/>
  <rect x="33.2" y="27.6" width="8.4" height="19.6" fill="#1F1D2E"/>
  <rect x="41.6" y="27.6" width="8.4" height="19.6" fill="#1F1D2E"/>
  <rect x="50.0" y="27.6" width="8.4" height="19.6" fill="#1F1D2E"/>
  <rect x="58.4" y="27.6" width="8.4" height="19.6" fill="#1F1D2E"/>
  <rect x="66.8" y="27.6" width="8.4" height="19.6" fill="#1F1D2E"/>
  <rect x="75.2" y="27.6" width="8.4" height="19.6" fill="#1F1D2E"/>
  <rect x="83.6" y="27.6" width="8.4" height="19.6" fill="#1F1D2E"/>
  <rect x="92.0" y="27.6" width="8.4" height="19.6" fill="#1F1D2E"/>
  <rect x="100.4" y="27.6" width="8.4" height="19.6" fill="#1F1D2E"/>
  <rect x="108.8" y="27.6" width="8.4" height="19.6" fill="#1F1D2E"/>
  <rect x="117.2" y="27.6" width="8.4" height="19.6" fill="#1F1D2E"/>
  <rect x="125.6" y="27.6" width="8.4" height="19.6" fill="#1F1D2E"/>
  <rect x="134.0" y="27.6" width="8.4" height="19.6" fill="#1F1D2E"/>
  <rect x="142.4" y="27.6" width="8.4" height="19.6" fill="#1F1D2E"/>
  <rect x="150.8" y="27.6" width="8.4" height="19.6" fill="#1F1D2E"/>
  <rect x="159.2" y="27.6" width="8.4" height="19.6" fill="#1F1D2E"/>
  <rect x="167.6" y="27.6" width="8.4" height="19.6" fill="#1F1D2E"/>
  <rect x="176.0" y="27.6" width="8.4" height="19.6" fill="#1F1D2E"/>
  <rect x="184.4" y="27.6" width="8.4" height="19.6" fill="#1F1D2E"/>
  <rect x="192.8" y="27.6" width="8.4" height="19.6" fill="#1F1D2E"/>
  <rect x="201.2" y="27.6" width="8.4" height="19.6" fill="#1F1D2E"/>
  <rect x="209.6" y="27.6" width="8.4" height="19.6" fill="#1F1D2E"/>
  <rect x="218.0" y="27.6" width="8.4" height="19.6" fill="#1F1D2E"/>
  <path d="M 16.4000 37.4000 L 16.4000 37.4000 Q 12.2000 37.4000 12.2000 41.6000 L 12.2000 47.2000" fill="none" stroke="#C4A7E7" stroke-width="1.0500"/>
  <path d="M 16.4000 37.4000 L 24.8000 37.4000" fill="none" stroke="#C4A7E7" stroke-width="1.0500" shape-rendering="crispEdges"/>
  <path d="M 24.8000 37.4000 L 33.2000 37.4000" fill="none" stroke="#C4A7E7" stroke-width="1.0500" shape-rendering="crispEdges"/>
  <path d="M 33.2000 37.4000 L 41.6000 37.4000" fill="none" stroke="#C4A7E7" stroke-width="1.0500" shape-rendering="crispEdges"/>
  <path d="M 41.6000 37.4000 L 50.0000 37.4000" fill="none" stroke="#C4A7E7" stroke-width="1.0500" shape-rendering="crispEdges"/>
  <path d="M 50.0000 37.4000 L 58.4000 37.4000" fill="none" stroke="#C4A7E7" stroke-width="1.0500" shape-rendering="crispEdges"/>
  <path d="M 58.4000 37.4000 L 66.8000 37.4000" fill="none" stroke="#C4A7E7" stroke-width="1.0500" shape-rendering="crispEdges"/>
  <path d="M 66.8000 37.4000 L 75.2000 37.4000" fill="none" stroke="#C4A7E7" stroke-width="1.0500" shape-rendering="crispEdges"/>
  <path d="M 75.2000 37.4000 L 83.6000 37.4000" fill="none" stroke="#C4A7E7" stroke-width="1.0500" shape-rendering="crispEdges"/>
  <path d="M 83.6000 37.4000 L 92.0000 37.4000" fill="none" stroke="#C4A7E7" stroke-width="1.0500" shape-rendering="crispEdges"/>
  <path d="M 92.0000 37.4000 L 100.4000 37.4000" fill="none" stroke="#C4A7E7" stroke-width="1.0500" shape-rendering="crispEdges"/>
  <path d="M 100.4000 37.4000 L 108.8000 37.4000" fill="none" stroke="#C4A7E7" stroke-width="1.0500" shape-rendering="crispEdges"/>
  <path d="M 108.8000 37.4000 L 117.2000 37.4000" fill="none" stroke="#C4A7E7" stroke-width="1.0500" shape-rendering="crispEdges"/>
  <path d="M 117.2000 37.4000 L 125.6000 37.4000" fill="none" stroke="#C4A7E7" stroke-width="1.0500" shape-rendering="crispEdges"/>
  <path d="M 125.6000 37.4000 L 134.0000 37.4000" fill="none" stroke="#C4A7E7" stroke-width="1.0500" shape-rendering="crispEdges"/>
  <path d="M 134.0000 37.4000 L 142.4000 37.4000" fill="none" stroke="#C4A7E7" stroke-width="1.0500" shape-rendering="crispEdges"/>
  <path d="M 142.4000 37.4000 L 150.8000 37.4000" fill="none" stroke="#C4A7E7" stroke-width="1.0500" shape-rendering="crispEdges"/>
  <path d="M 150.8000 37.4000 L 159.2000 37.4000" fill="none" stroke="#C4A7E7" stroke-width="1.0500" shape-rendering="crispEdges"/>
  <path d="M 159.2000 37.4000 L 167.6000 37.4000" fill="none" stroke="#C4A7E7" stroke-width="1.0500" shape-rendering="crispEdges"/>
  <path d="M 167.6000 37.4000 L 176.0000 37.4000" fill="none" stroke="#C4A7E7" stroke-width="1.0500" shape-rendering="crispEdges"/>
  <path d="M 176.0000 37.4000 L 184.4000 37.4000" fill="none" stroke="#C4A7E7" stroke-width="1.0500" shape-rendering="crispEdges"/>
  <path d="M 184.4000 37.4000 L 192.8000 37.4000" fill="none" stroke="#C4A7E7" stroke-width="1.0500" shape-rendering="crispEdges"/>
  <path d="M 192.8000 37.4000 L 201.2000 37.4000" fill="none" stroke="#C4A7E7" stroke-width="1.0500" shape-rendering="crispEdges"/>
  <path d="M 201.2000 37.4000 L 209.6000 37.4000" fill="none" stroke="#C4A7E7" stroke-width="1.0500" shape-rendering="crispEdges"/>
  <path d="M 209.6000 37.4000 L 218.0000 37.4000" fill="none" stroke="#C4A7E7" stroke-width="1.0500" shape-rendering="crispEdges"/>
  <path d="M 218.0000 37.4000 L 218.0000 37.4000 Q 222.2000 37.4000 222.2000 41.6000 L 222.2000 47.2000" fill="none" stroke="#C4A7E7" stroke-width="1.0500"/>
  <rect x="8.0" y="47.2" width="8.4" height="19.6" fill="#1F1D2E"/>
  <rect x="16.4" y="47.2" width="8.4" height="19.6" fill="#1F1D2E"/>
  <rect x="24.8" y="47.2" width="8.4" height="19.6" fill="#1F1D2E"/>
  <rect x="33.2" y="47.2" width="8.4" height="19.6" fill="#1F1D2E"/>
  <rect x="41.6" y="47.2" width="8.4" height="19.6" fill="#1F1D2E"/>
  <rect x="50.0" y="47.2" width="8.4" height="19.6" fill="#1F1D2E"/>
  <rect x="58.4" y="47.2" width="8.4" height="19.6" fill="#1F1D2E"/>
  <rect x="66.8" y="47.2" width="8.4" height="19.6" fill="#1F1D2E"/>
  <rect x="75.2" y="47.2" width="8.4" height="19.6" fill="#1F1D2E"/>
  <rect x="83.6" y="47.2" width="8.4" height="19.6" fill="#1F1D2E"/>
  <rect x="92.0" y="47.2" width="8.4" height="19.6" fill="#1F1D2E"/>
  <rect x="100.4" y="47.2" width="8.4" height="19.6" fill="#1F1D2E"/>
  <rect x="108.8" y="47.2" width="8.4" height="19.6" fill="#1F1D2E"/>
  <rect x="117.2" y="47.2" width="8.4" height="19.6" fill="#1F1D2E"/>
  <rect x="125.6" y="47.2" width="8.4" height="19.6" fill="#1F1D2E"/>
  <rect x="134.0" y="47.2" width="8.4" height="19.6" fill="#1F1D2E"/>
  <rect x="142.4" y="47.2" width="8.4" height="19.6" fill="#1F1D2E"/>
  <rect x="150.8" y="47.2" width="8.4" height="19.6" fill="#1F1D2E"/>
  <rect x="159.2" y="47.2" width="8.4" height="19.6" fill="#1F1D2E"/>
  <rect x="167.6" y="47.2" width="8.4" height="19.6" fill="#1F1D2E"/>
  <rect x="176.0" y="47.2" width="8.4" height="19.6" fill="#1F1D2E"/>
  <rect x="184.4" y="47.2" width="8.4" height="19.6" fill="#1F1D2E"/>
  <rect x="192.8" y="47.2" width="8.4" height="19.6" fill="#1F1D2E"/>
  <rect x="201.2" y="47.2" width="8.4" height="19.6" fill="#1F1D2E"/>
  <rect x="209.6" y="47.2" width="8.4" height="19.6" fill="#1F1D2E"/>
  <rect x="218.0" y="47.2" width="8.4" height="19.6" fill="#1F1D2E"/>
  <path d="M 12.2000 47.2000 L 12.2000 66.8000" fill="none" stroke="#C4A7E7" stroke-width="1.0500" shape-rendering="crispEdges"/>
  <text x="16.4" y="57.0" fill="#908CAA">Type</text>
  <text x="58.4" y="57.0" fill="#908CAA">to</text>
  <text x="83.6" y="57.0" fill="#908CAA">search…</text>
  <path d="M 222.2000 47.2000 L 222.2000 66.8000" fill="none" stroke="#C4A7E7" stroke-width="1.0500" shape-rendering="crispEdges"/>
  <rect x="8.0" y="66.8" width="8.4" height="19.6" fill="#1F1D2E"/>
  <rect x="16.4" y="66.8" width="8.4" height="19.6" fill="#1F1D2E"/>
  <rect x="24.8" y="66.8" width="8.4" height="19.6" fill="#1F1D2E"/>
  <rect x="33.2" y="66.8" width="8.4" height="19.6" fill="#1F1D2E"/>
  <rect x="41.6" y="66.8" width="8.4" height="19.6" fill="#1F1D2E"/>
  <rect x="50.0" y="66.8" width="8.4" height="19.6" fill="#1F1D2E"/>
  <rect x="58.4" y="66.8" width="8.4" height="19.6" fill="#1F1D2E"/>
  <rect x="66.8" y="66.8" width="8.4" height="19.6" fill="#1F1D2E"/>
  <rect x="75.2" y="66.8" width="8.4" height="19.6" fill="#1F1D2E"/>
  <rect x="83.6" y="66.8" width="8.4" height="19.6" fill="#1F1D2E"/>
  <rect x="92.0" y="66.8" width="8.4" height="19.6" fill="#1F1D2E"/>
  <rect x="100.4" y="66.8" width="8.4" height="19.6" fill="#1F1D2E"/>
  <rect x="108.8" y="66.8" width="8.4" height="19.6" fill="#1F1D2E"/>
  <rect x="117.2" y="66.8" width="8.4" height="19.6" fill="#1F1D2E"/>
  <rect x="125.6" y="66.8" width="8.4" height="19.6" fill="#1F1D2E"/>
  <rect x="134.0" y="66.8" width="8.4" height="19.6" fill="#1F1D2E"/>
  <rect x="142.4" y="66.8" width="8.4" height="19.6" fill="#1F1D2E"/>
  <rect x="150.8" y="66.8" width="8.4" height="19.6" fill="#1F1D2E"/>
  <rect x="159.2" y="66.8" width="8.4" height="19.6" fill="#1F1D2E"/>
  <rect x="167.6" y="66.8" width="8.4" height="19.6" fill="#1F1D2E"/>
  <rect x="176.0" y="66.8" width="8.4" height="19.6" fill="#1F1D2E"/>
  <rect x="184.4" y="66.8" width="8.4" height="19.6" fill="#1F1D2E"/>
  <rect x="192.8" y="66.8" width="8.4" height="19.6" fill="#1F1D2E"/>
  <rect x="201.2" y="66.8" width="8.4" height="19.6" fill="#1F1D2E"/>
  <rect x="209.6" y="66.8" width="8.4" height="19.6" fill="#1F1D2E"/>
  <rect x="218.0" y="66.8" width="8.4" height="19.6" fill="#1F1D2E"/>
  <path d="M 12.2000 66.8000 L 12.2000 86.4000" fill="none" stroke="#C4A7E7" stroke-width="1.0500" shape-rendering="crispEdges"/>
  <text x="16.4" y="76.6" fill="#908CAA">No</text>
  <text x="41.6" y="76.6" fill="#908CAA">options</text>
  <path d="M 222.2000 66.8000 L 222.2000 86.4000" fill="none" stroke="#C4A7E7" stroke-width="1.0500" shape-rendering="crispEdges"/>
  <rect x="8.0" y="86.4" width="8.4" height="19.6" fill="#1F1D2E"/>
  <rect x="16.4" y="86.4" width="8.4" height="19.6" fill="#1F1D2E"/>
  <rect x="24.8" y="86.4" width="8.4" height="19.6" fill="#1F1D2E"/>
  <rect x="33.2" y="86.4" width="8.4" height="19.6" fill="#1F1D2E"/>
  <rect x="41.6" y="86.4" width="8.4" height="19.6" fill="#1F1D2E"/>
  <rect x="50.0" y="86.4" width="8.4" height="19.6" fill="#1F1D2E"/>
  <rect x="58.4" y="86.4" width="8.4" height="19.6" fill="#1F1D2E"/>
  <rect x="66.8" y="86.4" width="8.4" height="19.6" fill="#1F1D2E"/>
  <rect x="75.2" y="86.4" width="8.4" height="19.6" fill="#1F1D2E"/>
  <rect x="83.6" y="86.4" width="8.4" height="19.6" fill="#1F1D2E"/>
  <rect x="92.0" y="86.4" width="8.4" height="19.6" fill="#1F1D2E"/>
  <rect x="100.4" y="86.4" width="8.4" height="19.6" fill="#1F1D2E"/>
  <rect x="108.8" y="86.4" width="8.4" height="19.6" fill="#1F1D2E"/>
  <rect x="117.2" y="86.4" width="8.4" height="19.6" fill="#1F1D2E"/>
  <rect x="125.6" y="86.4" width="8.4" height="19.6" fill="#1F1D2E"/>
  <rect x="134.0" y="86.4" width="8.4" height="19.6" fill="#1F1D2E"/>
  <rect x="142.4" y="86.4" width="8.4" height="19.6" fill="#1F1D2E"/>
  <rect x="150.8" y="86.4" width="8.4" height="19.6" fill="#1F1D2E"/>
  <rect x="159.2" y="86.4" width="8.4" height="19.6" fill="#1F1D2E"/>
  <rect x="167.6" y="86.4" width="8.4" height="19.6" fill="#1F1D2E"/>
  <rect x="176.0" y="86.4" width="8.4" height="19.6" fill="#1F1D2E"/>
  <rect x="184.4" y="86.4" width="8.4" height="19.6" fill="#1F1D2E"/>
  <rect x="192.8" y="86.4" width="8.4" height="19.6" fill="#1F1D2E"/>
  <rect x="201.2" y="86.4" width="8.4" height="19.6" fill="#1F1D2E"/>
  <rect x="209.6" y="86.4" width="8.4" height="19.6" fill="#1F1D2E"/>
  <rect x="218.0" y="86.4" width="8.4" height="19.6" fill="#1F1D2E"/>
  <path d="M 16.4000 96.2000 L 16.4000 96.2000 Q 12.2000 96.2000 12.2000 92.0000 L 12.2000 86.4000" fill="none" stroke="#C4A7E7" stroke-width="1.0500"/>
  <path d="M 16.4000 96.2000 L 24.8000 96.2000" fill="none" stroke="#C4A7E7" stroke-width="1.0500" shape-rendering="crispEdges"/>
  <path d="M 24.8000 96.2000 L 33.2000 96.2000" fill="none" stroke="#C4A7E7" stroke-width="1.0500" shape-rendering="crispEdges"/>
  <path d="M 33.2000 96.2000 L 41.6000 96.2000" fill="none" stroke="#C4A7E7" stroke-width="1.0500" shape-rendering="crispEdges"/>
  <path d="M 41.6000 96.2000 L 50.0000 96.2000" fill="none" stroke="#C4A7E7" stroke-width="1.0500" shape-rendering="crispEdges"/>
  <path d="M 50.0000 96.2000 L 58.4000 96.2000" fill="none" stroke="#C4A7E7" stroke-width="1.0500" shape-rendering="crispEdges"/>
  <path d="M 58.4000 96.2000 L 66.8000 96.2000" fill="none" stroke="#C4A7E7" stroke-width="1.0500" shape-rendering="crispEdges"/>
  <path d="M 66.8000 96.2000 L 75.2000 96.2000" fill="none" stroke="#C4A7E7" stroke-width="1.0500" shape-rendering="crispEdges"/>
  <path d="M 75.2000 96.2000 L 83.6000 96.2000" fill="none" stroke="#C4A7E7" stroke-width="1.0500" shape-rendering="crispEdges"/>
  <path d="M 83.6000 96.2000 L 92.0000 96.2000" fill="none" stroke="#C4A7E7" stroke-width="1.0500" shape-rendering="crispEdges"/>
  <path d="M 92.0000 96.2000 L 100.4000 96.2000" fill="none" stroke="#C4A7E7" stroke-width="1.0500" shape-rendering="crispEdges"/>
  <path d="M 100.4000 96.2000 L 108.8000 96.2000" fill="none" stroke="#C4A7E7" stroke-width="1.0500" shape-rendering="crispEdges"/>
  <path d="M 108.8000 96.2000 L 117.2000 96.2000" fill="none" stroke="#C4A7E7" stroke-width="1.0500" shape-rendering="crispEdges"/>
  <path d="M 117.2000 96.2000 L 125.6000 96.2000" fill="none" stroke="#C4A7E7" stroke-width="1.0500" shape-rendering="crispEdges"/>
  <path d="M 125.6000 96.2000 L 134.0000 96.2000" fill="none" stroke="#C4A7E7" stroke-width="1.0500" shape-rendering="crispEdges"/>
  <path d="M 134.0000 96.2000 L 142.4000 96.2000" fill="none" stroke="#C4A7E7" stroke-width="1.0500" shape-rendering="crispEdges"/>
  <path d="M 142.4000 96.2000 L 150.8000 96.2000" fill="none" stroke="#C4A7E7" stroke-width="1.0500" shape-rendering="crispEdges"/>
  <path d="M 150.8000 96.2000 L 159.2000 96.2000" fill="none" stroke="#C4A7E7" stroke-width="1.0500" shape-rendering="crispEdges"/>
  <path d="M 159.2000 96.2000 L 167.6000 96.2000" fill="none" stroke="#C4A7E7" stroke-width="1.0500" shape-rendering="crispEdges"/>
  <path d="M 167.6000 96.2000 L 176.0000 96.2000" fill="none" stroke="#C4A7E7" stroke-width="1.0500" shape-rendering="crispEdges"/>
  <path d="M 176.0000 96.2000 L 184.4000 96.2000" fill="none" stroke="#C4A7E7" stroke-width="1.0500" shape-rendering="crispEdges"/>
  <path d="M 184.4000 96.2000 L 192.8000 96.2000" fill="none" stroke="#C4A7E7" stroke-width="1.0500" shape-rendering="crispEdges"/>
  <path d="M 192.8000 96.2000 L 201.2000 96.2000" fill="none" stroke="#C4A7E7" stroke-width="1.0500" shape-rendering="crispEdges"/>
  <path d="M 201.2000 96.2000 L 209.6000 96.2000" fill="none" stroke="#C4A7E7" stroke-width="1.0500" shape-rendering="crispEdges"/>
  <path d="M 209.6000 96.2000 L 218.0000 96.2000" fill="none" stroke="#C4A7E7" stroke-width="1.0500" shape-rendering="crispEdges"/>
  <path d="M 218.0000 96.2000 L 218.0000 96.2000 Q 222.2000 96.2000 222.2000 92.0000 L 222.2000 86.4000" fill="none" stroke="#C4A7E7" stroke-width="1.0500"/>
</svg>
