<svg xmlns="http://www.w3.org/2000/svg" width="520" height="643" viewBox="0 0 520 643">
  <style>
    @import url('https://fonts.googleapis.com/css2?family=Fira+Code:wght@400;700&amp;display=swap');
    text { font-family: Fira Code, Menlo, Monaco, Consolas, monospace; font-size: 14px; dominant-baseline: central; }
    rect { shape-rendering: crispEdges; }
    .bold { font-weight: bold; }
    .italic { font-style: italic; }
    .underline { text-decoration: underline; }
    .strikethrough { text-decoration: line-through; }
  </style>
  <rect width="100%" height="100%" fill="#000000"/>
  <text x="8.0" y="17.8" class="bold" fill="#E0DEF4">Reading</text>
  <text x="75.2" y="17.8" class="bold" fill="#E0DEF4">room</text>
  <rect x="302.0" y="47.2" width="8.4" height="19.6" fill="#1F1D2E"/>
  <rect x="310.4" y="47.2" width="8.4" height="19.6" fill="#1F1D2E"/>
  <rect x="318.8" y="47.2" width="8.4" height="19.6" fill="#1F1D2E"/>
  <rect x="327.2" y="47.2" width="8.4" height="19.6" fill="#1F1D2E"/>
  <rect x="335.6" y="47.2" width="8.4" height="19.6" fill="#1F1D2E"/>
  <rect x="344.0" y="47.2" width="8.4" height="19.6" fill="#1F1D2E"/>
  <rect x="352.4" y="47.2" width="8.4" height="19.6" fill="#1F1D2E"/>
  <rect x="360.8" y="47.2" width="8.4" height="19.6" fill="#1F1D2E"/>
  <rect x="369.2" y="47.2" width="8.4" height="19.6" fill="#1F1D2E"/>
  <rect x="377.6" y="47.2" width="8.4" height="19.6" fill="#1F1D2E"/>
  <rect x="386.0" y="47.2" width="8.4" height="19.6" fill="#1F1D2E"/>
  <text x="8.0" y="57.0" fill="#E0DEF4">A</text>
  <text x="24.8" y="57.0" class="bold" fill="#E0DEF4">bold</text>
  <text x="66.8" y="57.0" fill="#E0DEF4">introduction</text>
  <text x="176.0" y="57.0" fill="#E0DEF4">with</text>
  <text x="218.0" y="57.0" class="italic" fill="#E0DEF4">emphasis</text>
  <text x="285.2" y="57.0" fill="#E0DEF4">,</text>
  <text x="302.0" y="57.0" fill="#F6C177">inline</text>
  <text x="360.8" y="57.0" fill="#F6C177">code</text>
  <text x="394.4" y="57.0" fill="#E0DEF4">,</text>
  <text x="411.2" y="57.0" fill="#E0DEF4">and</text>
  <text x="444.8" y="57.0" fill="#E0DEF4">a</text>
  <a href="https://example.com/guide"><text x="8.0" y="76.6" class="underline" fill="#C4A7E7">helpful guide</text></a>
  <text x="117.2" y="76.6" fill="#E0DEF4">.</text>
  <text x="8.0" y="115.8" fill="#908CAA">3.</text>
  <text x="33.2" y="115.8" fill="#E0DEF4">First</text>
  <text x="83.6" y="115.8" fill="#E0DEF4">ordered</text>
  <text x="150.8" y="115.8" fill="#E0DEF4">item</text>
  <text x="8.0" y="135.4" fill="#908CAA">4.</text>
  <text x="33.2" y="135.4" fill="#E0DEF4">Second</text>
  <text x="92.0" y="135.4" fill="#E0DEF4">item</text>
  <text x="134.0" y="135.4" fill="#E0DEF4">with</text>
  <text x="176.0" y="135.4" fill="#E0DEF4">a</text>
  <text x="192.8" y="135.4" fill="#E0DEF4">longer</text>
  <text x="251.6" y="135.4" fill="#E0DEF4">description</text>
  <text x="352.4" y="135.4" fill="#E0DEF4">that</text>
  <text x="394.4" y="135.4" fill="#E0DEF4">wraps.</text>
  <text x="33.2" y="155.0" fill="#908CAA">•</text>
  <text x="50.0" y="155.0" fill="#E0DEF4">Nested</text>
  <text x="108.8" y="155.0" fill="#E0DEF4">bullet</text>
  <text x="167.6" y="155.0" fill="#E0DEF4">with</text>
  <text x="209.6" y="155.0" fill="#E0DEF4">Unicode:</text>
  <text x="285.2" y="155.0" fill="#E0DEF4">café</text>
  <text x="327.2" y="155.0" fill="#E0DEF4">é</text>
  <text x="352.4" y="155.0" fill="#E0DEF4" text-anchor="middle">👩‍💻</text>
  <text x="377.6" y="155.0" fill="#E0DEF4" text-anchor="middle">中</text>
  <text x="394.4" y="155.0" fill="#E0DEF4" text-anchor="middle">文</text>
  <path d="M 12.2000 184.4000 L 12.2000 204.0000" fill="none" stroke="#908CAA" stroke-width="1.0500" shape-rendering="crispEdges"/>
  <text x="24.8" y="194.2" fill="#E0DEF4">A</text>
  <text x="41.6" y="194.2" fill="#E0DEF4">quote</text>
  <text x="92.0" y="194.2" fill="#E0DEF4">with</text>
  <text x="134.0" y="194.2" class="bold" fill="#E0DEF4">weight</text>
  <text x="192.8" y="194.2" fill="#E0DEF4">and</text>
  <text x="226.4" y="194.2" fill="#E0DEF4">words</text>
  <text x="276.8" y="194.2" fill="#E0DEF4">that</text>
  <text x="318.8" y="194.2" fill="#E0DEF4">wrap.</text>
  <path d="M 12.2000 223.6000 L 12.2000 243.2000" fill="none" stroke="#908CAA" stroke-width="1.0500" shape-rendering="crispEdges"/>
  <path d="M 29.0000 223.6000 L 29.0000 243.2000" fill="none" stroke="#908CAA" stroke-width="1.0500" shape-rendering="crispEdges"/>
  <text x="41.6" y="233.4" fill="#E0DEF4">Nested</text>
  <text x="100.4" y="233.4" fill="#E0DEF4">thought.</text>
  <rect x="8.0" y="262.8" width="8.4" height="19.6" fill="#1F1D2E"/>
  <rect x="16.4" y="262.8" width="8.4" height="19.6" fill="#1F1D2E"/>
  <rect x="24.8" y="262.8" width="8.4" height="19.6" fill="#1F1D2E"/>
  <rect x="33.2" y="262.8" width="8.4" height="19.6" fill="#1F1D2E"/>
  <rect x="41.6" y="262.8" width="8.4" height="19.6" fill="#1F1D2E"/>
  <rect x="50.0" y="262.8" width="8.4" height="19.6" fill="#1F1D2E"/>
  <rect x="58.4" y="262.8" width="8.4" height="19.6" fill="#1F1D2E"/>
  <rect x="66.8" y="262.8" width="8.4" height="19.6" fill="#1F1D2E"/>
  <rect x="75.2" y="262.8" width="8.4" height="19.6" fill="#1F1D2E"/>
  <rect x="83.6" y="262.8" width="8.4" height="19.6" fill="#1F1D2E"/>
  <rect x="92.0" y="262.8" width="8.4" height="19.6" fill="#1F1D2E"/>
  <rect x="100.4" y="262.8" width="8.4" height="19.6" fill="#1F1D2E"/>
  <rect x="108.8" y="262.8" width="8.4" height="19.6" fill="#1F1D2E"/>
  <rect x="117.2" y="262.8" width="8.4" height="19.6" fill="#1F1D2E"/>
  <rect x="125.6" y="262.8" width="8.4" height="19.6" fill="#1F1D2E"/>
  <rect x="134.0" y="262.8" width="8.4" height="19.6" fill="#1F1D2E"/>
  <rect x="142.4" y="262.8" width="8.4" height="19.6" fill="#1F1D2E"/>
  <rect x="150.8" y="262.8" width="8.4" height="19.6" fill="#1F1D2E"/>
  <rect x="159.2" y="262.8" width="8.4" height="19.6" fill="#1F1D2E"/>
  <rect x="167.6" y="262.8" width="8.4" height="19.6" fill="#1F1D2E"/>
  <rect x="176.0" y="262.8" width="8.4" height="19.6" fill="#1F1D2E"/>
  <rect x="184.4" y="262.8" width="8.4" height="19.6" fill="#1F1D2E"/>
  <rect x="192.8" y="262.8" width="8.4" height="19.6" fill="#1F1D2E"/>
  <rect x="201.2" y="262.8" width="8.4" height="19.6" fill="#1F1D2E"/>
  <rect x="209.6" y="262.8" width="8.4" height="19.6" fill="#1F1D2E"/>
  <rect x="218.0" y="262.8" width="8.4" height="19.6" fill="#1F1D2E"/>
  <rect x="226.4" y="262.8" width="8.4" height="19.6" fill="#1F1D2E"/>
  <rect x="234.8" y="262.8" width="8.4" height="19.6" fill="#1F1D2E"/>
  <rect x="243.2" y="262.8" width="8.4" height="19.6" fill="#1F1D2E"/>
  <rect x="251.6" y="262.8" width="8.4" height="19.6" fill="#1F1D2E"/>
  <rect x="260.0" y="262.8" width="8.4" height="19.6" fill="#1F1D2E"/>
  <rect x="268.4" y="262.8" width="8.4" height="19.6" fill="#1F1D2E"/>
  <rect x="276.8" y="262.8" width="8.4" height="19.6" fill="#1F1D2E"/>
  <rect x="285.2" y="262.8" width="8.4" height="19.6" fill="#1F1D2E"/>
  <rect x="293.6" y="262.8" width="8.4" height="19.6" fill="#1F1D2E"/>
  <rect x="302.0" y="262.8" width="8.4" height="19.6" fill="#1F1D2E"/>
  <rect x="310.4" y="262.8" width="8.4" height="19.6" fill="#1F1D2E"/>
  <rect x="318.8" y="262.8" width="8.4" height="19.6" fill="#1F1D2E"/>
  <rect x="327.2" y="262.8" width="8.4" height="19.6" fill="#1F1D2E"/>
  <rect x="335.6" y="262.8" width="8.4" height="19.6" fill="#1F1D2E"/>
  <rect x="344.0" y="262.8" width="8.4" height="19.6" fill="#1F1D2E"/>
  <rect x="352.4" y="262.8" width="8.4" height="19.6" fill="#1F1D2E"/>
  <rect x="360.8" y="262.8" width="8.4" height="19.6" fill="#1F1D2E"/>
  <rect x="369.2" y="262.8" width="8.4" height="19.6" fill="#1F1D2E"/>
  <rect x="377.6" y="262.8" width="8.4" height="19.6" fill="#1F1D2E"/>
  <rect x="386.0" y="262.8" width="8.4" height="19.6" fill="#1F1D2E"/>
  <rect x="394.4" y="262.8" width="8.4" height="19.6" fill="#1F1D2E"/>
  <rect x="402.8" y="262.8" width="8.4" height="19.6" fill="#1F1D2E"/>
  <rect x="411.2" y="262.8" width="8.4" height="19.6" fill="#1F1D2E"/>
  <rect x="419.6" y="262.8" width="8.4" height="19.6" fill="#1F1D2E"/>
  <rect x="428.0" y="262.8" width="8.4" height="19.6" fill="#1F1D2E"/>
  <rect x="436.4" y="262.8" width="8.4" height="19.6" fill="#1F1D2E"/>
  <rect x="444.8" y="262.8" width="8.4" height="19.6" fill="#1F1D2E"/>
  <rect x="453.2" y="262.8" width="8.4" height="19.6" fill="#1F1D2E"/>
  <rect x="461.6" y="262.8" width="8.4" height="19.6" fill="#1F1D2E"/>
  <rect x="470.0" y="262.8" width="8.4" height="19.6" fill="#1F1D2E"/>
  <rect x="478.4" y="262.8" width="8.4" height="19.6" fill="#1F1D2E"/>
  <rect x="486.8" y="262.8" width="8.4" height="19.6" fill="#1F1D2E"/>
  <rect x="495.2" y="262.8" width="8.4" height="19.6" fill="#1F1D2E"/>
  <rect x="503.6" y="262.8" width="8.4" height="19.6" fill="#1F1D2E"/>
  <text x="8.0" y="272.6" fill="#66D9EF">func</text>
  <text x="50.0" y="272.6" fill="#A6E22E">main</text>
  <text x="83.6" y="272.6" fill="#F8F8F2">()</text>
  <text x="108.8" y="272.6" fill="#F8F8F2">{</text>
  <rect x="8.0" y="282.4" width="8.4" height="19.6" fill="#1F1D2E"/>
  <rect x="16.4" y="282.4" width="8.4" height="19.6" fill="#1F1D2E"/>
  <rect x="24.8" y="282.4" width="8.4" height="19.6" fill="#1F1D2E"/>
  <rect x="33.2" y="282.4" width="8.4" height="19.6" fill="#1F1D2E"/>
  <rect x="41.6" y="282.4" width="8.4" height="19.6" fill="#1F1D2E"/>
  <rect x="50.0" y="282.4" width="8.4" height="19.6" fill="#1F1D2E"/>
  <rect x="58.4" y="282.4" width="8.4" height="19.6" fill="#1F1D2E"/>
  <rect x="66.8" y="282.4" width="8.4" height="19.6" fill="#1F1D2E"/>
  <rect x="75.2" y="282.4" width="8.4" height="19.6" fill="#1F1D2E"/>
  <rect x="83.6" y="282.4" width="8.4" height="19.6" fill="#1F1D2E"/>
  <rect x="92.0" y="282.4" width="8.4" height="19.6" fill="#1F1D2E"/>
  <rect x="100.4" y="282.4" width="8.4" height="19.6" fill="#1F1D2E"/>
  <rect x="108.8" y="282.4" width="8.4" height="19.6" fill="#1F1D2E"/>
  <rect x="117.2" y="282.4" width="8.4" height="19.6" fill="#1F1D2E"/>
  <rect x="125.6" y="282.4" width="8.4" height="19.6" fill="#1F1D2E"/>
  <rect x="134.0" y="282.4" width="8.4" height="19.6" fill="#1F1D2E"/>
  <rect x="142.4" y="282.4" width="8.4" height="19.6" fill="#1F1D2E"/>
  <rect x="150.8" y="282.4" width="8.4" height="19.6" fill="#1F1D2E"/>
  <rect x="159.2" y="282.4" width="8.4" height="19.6" fill="#1F1D2E"/>
  <rect x="167.6" y="282.4" width="8.4" height="19.6" fill="#1F1D2E"/>
  <rect x="176.0" y="282.4" width="8.4" height="19.6" fill="#1F1D2E"/>
  <rect x="184.4" y="282.4" width="8.4" height="19.6" fill="#1F1D2E"/>
  <rect x="192.8" y="282.4" width="8.4" height="19.6" fill="#1F1D2E"/>
  <rect x="201.2" y="282.4" width="8.4" height="19.6" fill="#1F1D2E"/>
  <rect x="209.6" y="282.4" width="8.4" height="19.6" fill="#1F1D2E"/>
  <rect x="218.0" y="282.4" width="8.4" height="19.6" fill="#1F1D2E"/>
  <rect x="226.4" y="282.4" width="8.4" height="19.6" fill="#1F1D2E"/>
  <rect x="234.8" y="282.4" width="8.4" height="19.6" fill="#1F1D2E"/>
  <rect x="243.2" y="282.4" width="8.4" height="19.6" fill="#1F1D2E"/>
  <rect x="251.6" y="282.4" width="8.4" height="19.6" fill="#1F1D2E"/>
  <rect x="260.0" y="282.4" width="8.4" height="19.6" fill="#1F1D2E"/>
  <rect x="268.4" y="282.4" width="8.4" height="19.6" fill="#1F1D2E"/>
  <rect x="276.8" y="282.4" width="8.4" height="19.6" fill="#1F1D2E"/>
  <rect x="285.2" y="282.4" width="8.4" height="19.6" fill="#1F1D2E"/>
  <rect x="293.6" y="282.4" width="8.4" height="19.6" fill="#1F1D2E"/>
  <rect x="302.0" y="282.4" width="8.4" height="19.6" fill="#1F1D2E"/>
  <rect x="310.4" y="282.4" width="8.4" height="19.6" fill="#1F1D2E"/>
  <rect x="318.8" y="282.4" width="8.4" height="19.6" fill="#1F1D2E"/>
  <rect x="327.2" y="282.4" width="8.4" height="19.6" fill="#1F1D2E"/>
  <rect x="335.6" y="282.4" width="8.4" height="19.6" fill="#1F1D2E"/>
  <rect x="344.0" y="282.4" width="8.4" height="19.6" fill="#1F1D2E"/>
  <rect x="352.4" y="282.4" width="8.4" height="19.6" fill="#1F1D2E"/>
  <rect x="360.8" y="282.4" width="8.4" height="19.6" fill="#1F1D2E"/>
  <rect x="369.2" y="282.4" width="8.4" height="19.6" fill="#1F1D2E"/>
  <rect x="377.6" y="282.4" width="8.4" height="19.6" fill="#1F1D2E"/>
  <rect x="386.0" y="282.4" width="8.4" height="19.6" fill="#1F1D2E"/>
  <rect x="394.4" y="282.4" width="8.4" height="19.6" fill="#1F1D2E"/>
  <rect x="402.8" y="282.4" width="8.4" height="19.6" fill="#1F1D2E"/>
  <rect x="411.2" y="282.4" width="8.4" height="19.6" fill="#1F1D2E"/>
  <rect x="419.6" y="282.4" width="8.4" height="19.6" fill="#1F1D2E"/>
  <rect x="428.0" y="282.4" width="8.4" height="19.6" fill="#1F1D2E"/>
  <rect x="436.4" y="282.4" width="8.4" height="19.6" fill="#1F1D2E"/>
  <rect x="444.8" y="282.4" width="8.4" height="19.6" fill="#1F1D2E"/>
  <rect x="453.2" y="282.4" width="8.4" height="19.6" fill="#1F1D2E"/>
  <rect x="461.6" y="282.4" width="8.4" height="19.6" fill="#1F1D2E"/>
  <rect x="470.0" y="282.4" width="8.4" height="19.6" fill="#1F1D2E"/>
  <rect x="478.4" y="282.4" width="8.4" height="19.6" fill="#1F1D2E"/>
  <rect x="486.8" y="282.4" width="8.4" height="19.6" fill="#1F1D2E"/>
  <rect x="495.2" y="282.4" width="8.4" height="19.6" fill="#1F1D2E"/>
  <rect x="503.6" y="282.4" width="8.4" height="19.6" fill="#1F1D2E"/>
  <text x="41.6" y="292.2" fill="#F8F8F2">println(</text>
  <text x="108.8" y="292.2" fill="#E6DB74">&#34;Hello,</text>
  <text x="176.0" y="292.2" fill="#E6DB74">terminal&#34;</text>
  <text x="251.6" y="292.2" fill="#F8F8F2">)</text>
  <rect x="8.0" y="302.0" width="8.4" height="19.6" fill="#1F1D2E"/>
  <rect x="16.4" y="302.0" width="8.4" height="19.6" fill="#1F1D2E"/>
  <rect x="24.8" y="302.0" width="8.4" height="19.6" fill="#1F1D2E"/>
  <rect x="33.2" y="302.0" width="8.4" height="19.6" fill="#1F1D2E"/>
  <rect x="41.6" y="302.0" width="8.4" height="19.6" fill="#1F1D2E"/>
  <rect x="50.0" y="302.0" width="8.4" height="19.6" fill="#1F1D2E"/>
  <rect x="58.4" y="302.0" width="8.4" height="19.6" fill="#1F1D2E"/>
  <rect x="66.8" y="302.0" width="8.4" height="19.6" fill="#1F1D2E"/>
  <rect x="75.2" y="302.0" width="8.4" height="19.6" fill="#1F1D2E"/>
  <rect x="83.6" y="302.0" width="8.4" height="19.6" fill="#1F1D2E"/>
  <rect x="92.0" y="302.0" width="8.4" height="19.6" fill="#1F1D2E"/>
  <rect x="100.4" y="302.0" width="8.4" height="19.6" fill="#1F1D2E"/>
  <rect x="108.8" y="302.0" width="8.4" height="19.6" fill="#1F1D2E"/>
  <rect x="117.2" y="302.0" width="8.4" height="19.6" fill="#1F1D2E"/>
  <rect x="125.6" y="302.0" width="8.4" height="19.6" fill="#1F1D2E"/>
  <rect x="134.0" y="302.0" width="8.4" height="19.6" fill="#1F1D2E"/>
  <rect x="142.4" y="302.0" width="8.4" height="19.6" fill="#1F1D2E"/>
  <rect x="150.8" y="302.0" width="8.4" height="19.6" fill="#1F1D2E"/>
  <rect x="159.2" y="302.0" width="8.4" height="19.6" fill="#1F1D2E"/>
  <rect x="167.6" y="302.0" width="8.4" height="19.6" fill="#1F1D2E"/>
  <rect x="176.0" y="302.0" width="8.4" height="19.6" fill="#1F1D2E"/>
  <rect x="184.4" y="302.0" width="8.4" height="19.6" fill="#1F1D2E"/>
  <rect x="192.8" y="302.0" width="8.4" height="19.6" fill="#1F1D2E"/>
  <rect x="201.2" y="302.0" width="8.4" height="19.6" fill="#1F1D2E"/>
  <rect x="209.6" y="302.0" width="8.4" height="19.6" fill="#1F1D2E"/>
  <rect x="218.0" y="302.0" width="8.4" height="19.6" fill="#1F1D2E"/>
  <rect x="226.4" y="302.0" width="8.4" height="19.6" fill="#1F1D2E"/>
  <rect x="234.8" y="302.0" width="8.4" height="19.6" fill="#1F1D2E"/>
  <rect x="243.2" y="302.0" width="8.4" height="19.6" fill="#1F1D2E"/>
  <rect x="251.6" y="302.0" width="8.4" height="19.6" fill="#1F1D2E"/>
  <rect x="260.0" y="302.0" width="8.4" height="19.6" fill="#1F1D2E"/>
  <rect x="268.4" y="302.0" width="8.4" height="19.6" fill="#1F1D2E"/>
  <rect x="276.8" y="302.0" width="8.4" height="19.6" fill="#1F1D2E"/>
  <rect x="285.2" y="302.0" width="8.4" height="19.6" fill="#1F1D2E"/>
  <rect x="293.6" y="302.0" width="8.4" height="19.6" fill="#1F1D2E"/>
  <rect x="302.0" y="302.0" width="8.4" height="19.6" fill="#1F1D2E"/>
  <rect x="310.4" y="302.0" width="8.4" height="19.6" fill="#1F1D2E"/>
  <rect x="318.8" y="302.0" width="8.4" height="19.6" fill="#1F1D2E"/>
  <rect x="327.2" y="302.0" width="8.4" height="19.6" fill="#1F1D2E"/>
  <rect x="335.6" y="302.0" width="8.4" height="19.6" fill="#1F1D2E"/>
  <rect x="344.0" y="302.0" width="8.4" height="19.6" fill="#1F1D2E"/>
  <rect x="352.4" y="302.0" width="8.4" height="19.6" fill="#1F1D2E"/>
  <rect x="360.8" y="302.0" width="8.4" height="19.6" fill="#1F1D2E"/>
  <rect x="369.2" y="302.0" width="8.4" height="19.6" fill="#1F1D2E"/>
  <rect x="377.6" y="302.0" width="8.4" height="19.6" fill="#1F1D2E"/>
  <rect x="386.0" y="302.0" width="8.4" height="19.6" fill="#1F1D2E"/>
  <rect x="394.4" y="302.0" width="8.4" height="19.6" fill="#1F1D2E"/>
  <rect x="402.8" y="302.0" width="8.4" height="19.6" fill="#1F1D2E"/>
  <rect x="411.2" y="302.0" width="8.4" height="19.6" fill="#1F1D2E"/>
  <rect x="419.6" y="302.0" width="8.4" height="19.6" fill="#1F1D2E"/>
  <rect x="428.0" y="302.0" width="8.4" height="19.6" fill="#1F1D2E"/>
  <rect x="436.4" y="302.0" width="8.4" height="19.6" fill="#1F1D2E"/>
  <rect x="444.8" y="302.0" width="8.4" height="19.6" fill="#1F1D2E"/>
  <rect x="453.2" y="302.0" width="8.4" height="19.6" fill="#1F1D2E"/>
  <rect x="461.6" y="302.0" width="8.4" height="19.6" fill="#1F1D2E"/>
  <rect x="470.0" y="302.0" width="8.4" height="19.6" fill="#1F1D2E"/>
  <rect x="478.4" y="302.0" width="8.4" height="19.6" fill="#1F1D2E"/>
  <rect x="486.8" y="302.0" width="8.4" height="19.6" fill="#1F1D2E"/>
  <rect x="495.2" y="302.0" width="8.4" height="19.6" fill="#1F1D2E"/>
  <rect x="503.6" y="302.0" width="8.4" height="19.6" fill="#1F1D2E"/>
  <text x="8.0" y="311.8" fill="#F8F8F2">}</text>
  <path d="M 8.0000 351.0000 L 16.4000 351.0000" fill="none" stroke="#908CAA" stroke-width="1.0500" shape-rendering="crispEdges"/>
  <path d="M 16.4000 351.0000 L 24.8000 351.0000" fill="none" stroke="#908CAA" stroke-width="1.0500" shape-rendering="crispEdges"/>
  <path d="M 24.8000 351.0000 L 33.2000 351.0000" fill="none" stroke="#908CAA" stroke-width="1.0500" shape-rendering="crispEdges"/>
  <path d="M 33.2000 351.0000 L 41.6000 351.0000" fill="none" stroke="#908CAA" stroke-width="1.0500" shape-rendering="crispEdges"/>
  <path d="M 41.6000 351.0000 L 50.0000 351.0000" fill="none" stroke="#908CAA" stroke-width="1.0500" shape-rendering="crispEdges"/>
  <path d="M 50.0000 351.0000 L 58.4000 351.0000" fill="none" stroke="#908CAA" stroke-width="1.0500" shape-rendering="crispEdges"/>
  <path d="M 58.4000 351.0000 L 66.8000 351.0000" fill="none" stroke="#908CAA" stroke-width="1.0500" shape-rendering="crispEdges"/>
  <path d="M 66.8000 351.0000 L 75.2000 351.0000" fill="none" stroke="#908CAA" stroke-width="1.0500" shape-rendering="crispEdges"/>
  <path d="M 75.2000 351.0000 L 83.6000 351.0000" fill="none" stroke="#908CAA" stroke-width="1.0500" shape-rendering="crispEdges"/>
  <path d="M 83.6000 351.0000 L 92.0000 351.0000" fill="none" stroke="#908CAA" stroke-width="1.0500" shape-rendering="crispEdges"/>
  <path d="M 92.0000 351.0000 L 100.4000 351.0000" fill="none" stroke="#908CAA" stroke-width="1.0500" shape-rendering="crispEdges"/>
  <path d="M 100.4000 351.0000 L 108.8000 351.0000" fill="none" stroke="#908CAA" stroke-width="1.0500" shape-rendering="crispEdges"/>
  <path d="M 108.8000 351.0000 L 117.2000 351.0000" fill="none" stroke="#908CAA" stroke-width="1.0500" shape-rendering="crispEdges"/>
  <path d="M 117.2000 351.0000 L 125.6000 351.0000" fill="none" stroke="#908CAA" stroke-width="1.0500" shape-rendering="crispEdges"/>
  <path d="M 125.6000 351.0000 L 134.0000 351.0000" fill="none" stroke="#908CAA" stroke-width="1.0500" shape-rendering="crispEdges"/>
  <path d="M 134.0000 351.0000 L 142.4000 351.0000" fill="none" stroke="#908CAA" stroke-width="1.0500" shape-rendering="crispEdges"/>
  <path d="M 142.4000 351.0000 L 150.8000 351.0000" fill="none" stroke="#908CAA" stroke-width="1.0500" shape-rendering="crispEdges"/>
  <path d="M 150.8000 351.0000 L 159.2000 351.0000" fill="none" stroke="#908CAA" stroke-width="1.0500" shape-rendering="crispEdges"/>
  <path d="M 159.2000 351.0000 L 167.6000 351.0000" fill="none" stroke="#908CAA" stroke-width="1.0500" shape-rendering="crispEdges"/>
  <path d="M 167.6000 351.0000 L 176.0000 351.0000" fill="none" stroke="#908CAA" stroke-width="1.0500" shape-rendering="crispEdges"/>
  <path d="M 176.0000 351.0000 L 184.4000 351.0000" fill="none" stroke="#908CAA" stroke-width="1.0500" shape-rendering="crispEdges"/>
  <path d="M 184.4000 351.0000 L 192.8000 351.0000" fill="none" stroke="#908CAA" stroke-width="1.0500" shape-rendering="crispEdges"/>
  <path d="M 192.8000 351.0000 L 201.2000 351.0000" fill="none" stroke="#908CAA" stroke-width="1.0500" shape-rendering="crispEdges"/>
  <path d="M 201.2000 351.0000 L 209.6000 351.0000" fill="none" stroke="#908CAA" stroke-width="1.0500" shape-rendering="crispEdges"/>
  <path d="M 209.6000 351.0000 L 218.0000 351.0000" fill="none" stroke="#908CAA" stroke-width="1.0500" shape-rendering="crispEdges"/>
  <path d="M 218.0000 351.0000 L 226.4000 351.0000" fill="none" stroke="#908CAA" stroke-width="1.0500" shape-rendering="crispEdges"/>
  <path d="M 226.4000 351.0000 L 234.8000 351.0000" fill="none" stroke="#908CAA" stroke-width="1.0500" shape-rendering="crispEdges"/>
  <path d="M 234.8000 351.0000 L 243.2000 351.0000" fill="none" stroke="#908CAA" stroke-width="1.0500" shape-rendering="crispEdges"/>
  <path d="M 243.2000 351.0000 L 251.6000 351.0000" fill="none" stroke="#908CAA" stroke-width="1.0500" shape-rendering="crispEdges"/>
  <path d="M 251.6000 351.0000 L 260.0000 351.0000" fill="none" stroke="#908CAA" stroke-width="1.0500" shape-rendering="crispEdges"/>
  <path d="M 260.0000 351.0000 L 268.4000 351.0000" fill="none" stroke="#908CAA" stroke-width="1.0500" shape-rendering="crispEdges"/>
  <path d="M 268.4000 351.0000 L 276.8000 351.0000" fill="none" stroke="#908CAA" stroke-width="1.0500" shape-rendering="crispEdges"/>
  <path d="M 276.8000 351.0000 L 285.2000 351.0000" fill="none" stroke="#908CAA" stroke-width="1.0500" shape-rendering="crispEdges"/>
  <path d="M 285.2000 351.0000 L 293.6000 351.0000" fill="none" stroke="#908CAA" stroke-width="1.0500" shape-rendering="crispEdges"/>
  <path d="M 293.6000 351.0000 L 302.0000 351.0000" fill="none" stroke="#908CAA" stroke-width="1.0500" shape-rendering="crispEdges"/>
  <path d="M 302.0000 351.0000 L 310.4000 351.0000" fill="none" stroke="#908CAA" stroke-width="1.0500" shape-rendering="crispEdges"/>
  <path d="M 310.4000 351.0000 L 318.8000 351.0000" fill="none" stroke="#908CAA" stroke-width="1.0500" shape-rendering="crispEdges"/>
  <path d="M 318.8000 351.0000 L 327.2000 351.0000" fill="none" stroke="#908CAA" stroke-width="1.0500" shape-rendering="crispEdges"/>
  <path d="M 327.2000 351.0000 L 335.6000 351.0000" fill="none" stroke="#908CAA" stroke-width="1.0500" shape-rendering="crispEdges"/>
  <path d="M 335.6000 351.0000 L 344.0000 351.0000" fill="none" stroke="#908CAA" stroke-width="1.0500" shape-rendering="crispEdges"/>
  <path d="M 344.0000 351.0000 L 352.4000 351.0000" fill="none" stroke="#908CAA" stroke-width="1.0500" shape-rendering="crispEdges"/>
  <path d="M 352.4000 351.0000 L 360.8000 351.0000" fill="none" stroke="#908CAA" stroke-width="1.0500" shape-rendering="crispEdges"/>
  <path d="M 360.8000 351.0000 L 369.2000 351.0000" fill="none" stroke="#908CAA" stroke-width="1.0500" shape-rendering="crispEdges"/>
  <path d="M 369.2000 351.0000 L 377.6000 351.0000" fill="none" stroke="#908CAA" stroke-width="1.0500" shape-rendering="crispEdges"/>
  <path d="M 377.6000 351.0000 L 386.0000 351.0000" fill="none" stroke="#908CAA" stroke-width="1.0500" shape-rendering="crispEdges"/>
  <path d="M 386.0000 351.0000 L 394.4000 351.0000" fill="none" stroke="#908CAA" stroke-width="1.0500" shape-rendering="crispEdges"/>
  <path d="M 394.4000 351.0000 L 402.8000 351.0000" fill="none" stroke="#908CAA" stroke-width="1.0500" shape-rendering="crispEdges"/>
  <path d="M 402.8000 351.0000 L 411.2000 351.0000" fill="none" stroke="#908CAA" stroke-width="1.0500" shape-rendering="crispEdges"/>
  <path d="M 411.2000 351.0000 L 419.6000 351.0000" fill="none" stroke="#908CAA" stroke-width="1.0500" shape-rendering="crispEdges"/>
  <path d="M 419.6000 351.0000 L 428.0000 351.0000" fill="none" stroke="#908CAA" stroke-width="1.0500" shape-rendering="crispEdges"/>
  <path d="M 428.0000 351.0000 L 436.4000 351.0000" fill="none" stroke="#908CAA" stroke-width="1.0500" shape-rendering="crispEdges"/>
  <path d="M 436.4000 351.0000 L 444.8000 351.0000" fill="none" stroke="#908CAA" stroke-width="1.0500" shape-rendering="crispEdges"/>
  <path d="M 444.8000 351.0000 L 453.2000 351.0000" fill="none" stroke="#908CAA" stroke-width="1.0500" shape-rendering="crispEdges"/>
  <path d="M 453.2000 351.0000 L 461.6000 351.0000" fill="none" stroke="#908CAA" stroke-width="1.0500" shape-rendering="crispEdges"/>
  <path d="M 461.6000 351.0000 L 470.0000 351.0000" fill="none" stroke="#908CAA" stroke-width="1.0500" shape-rendering="crispEdges"/>
  <path d="M 470.0000 351.0000 L 478.4000 351.0000" fill="none" stroke="#908CAA" stroke-width="1.0500" shape-rendering="crispEdges"/>
  <path d="M 478.4000 351.0000 L 486.8000 351.0000" fill="none" stroke="#908CAA" stroke-width="1.0500" shape-rendering="crispEdges"/>
  <path d="M 486.8000 351.0000 L 495.2000 351.0000" fill="none" stroke="#908CAA" stroke-width="1.0500" shape-rendering="crispEdges"/>
  <path d="M 495.2000 351.0000 L 503.6000 351.0000" fill="none" stroke="#908CAA" stroke-width="1.0500" shape-rendering="crispEdges"/>
  <path d="M 503.6000 351.0000 L 512.0000 351.0000" fill="none" stroke="#908CAA" stroke-width="1.0500" shape-rendering="crispEdges"/>
  <text x="8.0" y="390.2" fill="#E0DEF4">[image:</text>
  <text x="75.2" y="390.2" fill="#E0DEF4">Fox</text>
  <text x="108.8" y="390.2" fill="#E0DEF4">illustration]</text>
  <text x="226.4" y="390.2" fill="#E0DEF4">and</text>
  <text x="260.0" y="390.2" fill="#E0DEF4">&lt;b&gt;literal</text>
  <text x="352.4" y="390.2" fill="#E0DEF4">HTML&lt;/b&gt;.</text>
</svg>
