<svg xmlns="http://www.w3.org/2000/svg" width="386" height="447" viewBox="0 0 386 447">
  <style>
    @import url('https://fonts.googleapis.com/css2?family=Fira+Code:wght@400;700&amp;display=swap');
    text { font-family: Fira Code, Menlo, Monaco, Consolas, monospace; font-size: 14px; dominant-baseline: central; }
    rect { shape-rendering: crispEdges; }
    .bold { font-weight: bold; }
    .italic { font-style: italic; }
    .underline { text-decoration: underline; }
    .strikethrough { text-decoration: line-through; }
  </style>
  <rect width="100%" height="100%" fill="#000000"/>
  <text x="8.0" y="17.8" class="bold" fill="#E0DEF4">Name</text>
  <rect x="16.4" y="27.6" width="8.4" height="19.6" fill="#1F1D2E"/>
  <rect x="24.8" y="27.6" width="8.4" height="19.6" fill="#1F1D2E"/>
  <rect x="33.2" y="27.6" width="8.4" height="19.6" fill="#1F1D2E"/>
  <rect x="41.6" y="27.6" width="8.4" height="19.6" fill="#1F1D2E"/>
  <rect x="50.0" y="27.6" width="8.4" height="19.6" fill="#1F1D2E"/>
  <rect x="58.4" y="27.6" width="8.4" height="19.6" fill="#1F1D2E"/>
  <rect x="66.8" y="27.6" width="8.4" height="19.6" fill="#1F1D2E"/>
  <rect x="75.2" y="27.6" width="8.4" height="19.6" fill="#1F1D2E"/>
  <rect x="83.6" y="27.6" width="8.4" height="19.6" fill="#1F1D2E"/>
  <rect x="92.0" y="27.6" width="8.4" height="19.6" fill="#1F1D2E"/>
  <rect x="100.4" y="27.6" width="8.4" height="19.6" fill="#1F1D2E"/>
  <rect x="108.8" y="27.6" width="8.4" height="19.6" fill="#1F1D2E"/>
  <rect x="117.2" y="27.6" width="8.4" height="19.6" fill="#1F1D2E"/>
  <rect x="125.6" y="27.6" width="8.4" height="19.6" fill="#1F1D2E"/>
  <rect x="134.0" y="27.6" width="8.4" height="19.6" fill="#1F1D2E"/>
  <rect x="142.4" y="27.6" width="8.4" height="19.6" fill="#1F1D2E"/>
  <rect x="150.8" y="27.6" width="8.4" height="19.6" fill="#1F1D2E"/>
  <rect x="159.2" y="27.6" width="8.4" height="19.6" fill="#1F1D2E"/>
  <rect x="167.6" y="27.6" width="8.4" height="19.6" fill="#1F1D2E"/>
  <rect x="176.0" y="27.6" width="8.4" height="19.6" fill="#1F1D2E"/>
  <rect x="184.4" y="27.6" width="8.4" height="19.6" fill="#1F1D2E"/>
  <rect x="192.8" y="27.6" width="8.4" height="19.6" fill="#1F1D2E"/>
  <rect x="201.2" y="27.6" width="8.4" height="19.6" fill="#1F1D2E"/>
  <rect x="209.6" y="27.6" width="8.4" height="19.6" fill="#1F1D2E"/>
  <rect x="218.0" y="27.6" width="8.4" height="19.6" fill="#1F1D2E"/>
  <rect x="226.4" y="27.6" width="8.4" height="19.6" fill="#1F1D2E"/>
  <rect x="234.8" y="27.6" width="8.4" height="19.6" fill="#1F1D2E"/>
  <rect x="243.2" y="27.6" width="8.4" height="19.6" fill="#1F1D2E"/>
  <rect x="251.6" y="27.6" width="8.4" height="19.6" fill="#1F1D2E"/>
  <rect x="260.0" y="27.6" width="8.4" height="19.6" fill="#1F1D2E"/>
  <rect x="268.4" y="27.6" width="8.4" height="19.6" fill="#1F1D2E"/>
  <rect x="276.8" y="27.6" width="8.4" height="19.6" fill="#1F1D2E"/>
  <rect x="285.2" y="27.6" width="8.4" height="19.6" fill="#1F1D2E"/>
  <rect x="293.6" y="27.6" width="8.4" height="19.6" fill="#1F1D2E"/>
  <rect x="302.0" y="27.6" width="8.4" height="19.6" fill="#1F1D2E"/>
  <rect x="310.4" y="27.6" width="8.4" height="19.6" fill="#1F1D2E"/>
  <rect x="318.8" y="27.6" width="8.4" height="19.6" fill="#1F1D2E"/>
  <rect x="327.2" y="27.6" width="8.4" height="19.6" fill="#1F1D2E"/>
  <rect x="335.6" y="27.6" width="8.4" height="19.6" fill="#1F1D2E"/>
  <rect x="344.0" y="27.6" width="8.4" height="19.6" fill="#1F1D2E"/>
  <rect x="352.4" y="27.6" width="8.4" height="19.6" fill="#1F1D2E"/>
  <rect x="360.8" y="27.6" width="8.4" height="19.6" fill="#1F1D2E"/>
  <rect x="369.2" y="27.6" width="8.4" height="19.6" fill="#1F1D2E"/>
  <rect x="8.0" y="27.6" width="8.4" height="19.6" fill="#E0DEF4"/>
  <text x="8.0" y="37.4" fill="#1F1D2E">A</text>
  <text x="16.4" y="37.4" fill="#E0DEF4">ccepted</text>
  <text x="8.0" y="57.0" fill="#908CAA">Public</text>
  <text x="66.8" y="57.0" fill="#908CAA">name</text>
  <text x="8.0" y="96.2" class="bold" fill="#E0DEF4">Confirm</text>
  <rect x="8.0" y="106.0" width="8.4" height="19.6" fill="#1F1D2E"/>
  <rect x="16.4" y="106.0" width="8.4" height="19.6" fill="#1F1D2E"/>
  <rect x="24.8" y="106.0" width="8.4" height="19.6" fill="#1F1D2E"/>
  <rect x="33.2" y="106.0" width="8.4" height="19.6" fill="#1F1D2E"/>
  <rect x="41.6" y="106.0" width="8.4" height="19.6" fill="#1F1D2E"/>
  <rect x="50.0" y="106.0" width="8.4" height="19.6" fill="#1F1D2E"/>
  <rect x="58.4" y="106.0" width="8.4" height="19.6" fill="#1F1D2E"/>
  <rect x="66.8" y="106.0" width="8.4" height="19.6" fill="#1F1D2E"/>
  <rect x="75.2" y="106.0" width="8.4" height="19.6" fill="#1F1D2E"/>
  <rect x="83.6" y="106.0" width="8.4" height="19.6" fill="#1F1D2E"/>
  <rect x="92.0" y="106.0" width="8.4" height="19.6" fill="#1F1D2E"/>
  <rect x="100.4" y="106.0" width="8.4" height="19.6" fill="#1F1D2E"/>
  <rect x="108.8" y="106.0" width="8.4" height="19.6" fill="#1F1D2E"/>
  <rect x="117.2" y="106.0" width="8.4" height="19.6" fill="#1F1D2E"/>
  <rect x="125.6" y="106.0" width="8.4" height="19.6" fill="#1F1D2E"/>
  <rect x="134.0" y="106.0" width="8.4" height="19.6" fill="#1F1D2E"/>
  <rect x="142.4" y="106.0" width="8.4" height="19.6" fill="#1F1D2E"/>
  <rect x="150.8" y="106.0" width="8.4" height="19.6" fill="#1F1D2E"/>
  <rect x="159.2" y="106.0" width="8.4" height="19.6" fill="#1F1D2E"/>
  <rect x="167.6" y="106.0" width="8.4" height="19.6" fill="#1F1D2E"/>
  <rect x="176.0" y="106.0" width="8.4" height="19.6" fill="#1F1D2E"/>
  <rect x="184.4" y="106.0" width="8.4" height="19.6" fill="#1F1D2E"/>
  <rect x="192.8" y="106.0" width="8.4" height="19.6" fill="#1F1D2E"/>
  <rect x="201.2" y="106.0" width="8.4" height="19.6" fill="#1F1D2E"/>
  <rect x="209.6" y="106.0" width="8.4" height="19.6" fill="#1F1D2E"/>
  <rect x="218.0" y="106.0" width="8.4" height="19.6" fill="#1F1D2E"/>
  <rect x="226.4" y="106.0" width="8.4" height="19.6" fill="#1F1D2E"/>
  <rect x="234.8" y="106.0" width="8.4" height="19.6" fill="#1F1D2E"/>
  <rect x="243.2" y="106.0" width="8.4" height="19.6" fill="#1F1D2E"/>
  <rect x="251.6" y="106.0" width="8.4" height="19.6" fill="#1F1D2E"/>
  <rect x="260.0" y="106.0" width="8.4" height="19.6" fill="#1F1D2E"/>
  <rect x="268.4" y="106.0" width="8.4" height="19.6" fill="#1F1D2E"/>
  <rect x="276.8" y="106.0" width="8.4" height="19.6" fill="#1F1D2E"/>
  <rect x="285.2" y="106.0" width="8.4" height="19.6" fill="#1F1D2E"/>
  <rect x="293.6" y="106.0" width="8.4" height="19.6" fill="#1F1D2E"/>
  <rect x="302.0" y="106.0" width="8.4" height="19.6" fill="#1F1D2E"/>
  <rect x="310.4" y="106.0" width="8.4" height="19.6" fill="#1F1D2E"/>
  <rect x="318.8" y="106.0" width="8.4" height="19.6" fill="#1F1D2E"/>
  <rect x="327.2" y="106.0" width="8.4" height="19.6" fill="#1F1D2E"/>
  <rect x="335.6" y="106.0" width="8.4" height="19.6" fill="#1F1D2E"/>
  <rect x="344.0" y="106.0" width="8.4" height="19.6" fill="#1F1D2E"/>
  <rect x="352.4" y="106.0" width="8.4" height="19.6" fill="#1F1D2E"/>
  <rect x="360.8" y="106.0" width="8.4" height="19.6" fill="#1F1D2E"/>
  <rect x="369.2" y="106.0" width="8.4" height="19.6" fill="#1F1D2E"/>
  <text x="8.0" y="115.8" fill="#E0DEF4">Accepted</text>
  <text x="8.0" y="155.0" class="bold" fill="#E0DEF4">Notes</text>
  <rect x="8.0" y="164.8" width="8.4" height="19.6" fill="#1F1D2E"/>
  <rect x="16.4" y="164.8" width="8.4" height="19.6" fill="#1F1D2E"/>
  <rect x="24.8" y="164.8" width="8.4" height="19.6" fill="#1F1D2E"/>
  <rect x="33.2" y="164.8" width="8.4" height="19.6" fill="#1F1D2E"/>
  <rect x="41.6" y="164.8" width="8.4" height="19.6" fill="#1F1D2E"/>
  <rect x="50.0" y="164.8" width="8.4" height="19.6" fill="#1F1D2E"/>
  <rect x="58.4" y="164.8" width="8.4" height="19.6" fill="#1F1D2E"/>
  <rect x="66.8" y="164.8" width="8.4" height="19.6" fill="#1F1D2E"/>
  <rect x="75.2" y="164.8" width="8.4" height="19.6" fill="#1F1D2E"/>
  <rect x="83.6" y="164.8" width="8.4" height="19.6" fill="#1F1D2E"/>
  <rect x="92.0" y="164.8" width="8.4" height="19.6" fill="#1F1D2E"/>
  <rect x="100.4" y="164.8" width="8.4" height="19.6" fill="#1F1D2E"/>
  <rect x="108.8" y="164.8" width="8.4" height="19.6" fill="#1F1D2E"/>
  <rect x="117.2" y="164.8" width="8.4" height="19.6" fill="#1F1D2E"/>
  <rect x="125.6" y="164.8" width="8.4" height="19.6" fill="#1F1D2E"/>
  <rect x="134.0" y="164.8" width="8.4" height="19.6" fill="#1F1D2E"/>
  <rect x="142.4" y="164.8" width="8.4" height="19.6" fill="#1F1D2E"/>
  <rect x="150.8" y="164.8" width="8.4" height="19.6" fill="#1F1D2E"/>
  <rect x="159.2" y="164.8" width="8.4" height="19.6" fill="#1F1D2E"/>
  <rect x="167.6" y="164.8" width="8.4" height="19.6" fill="#1F1D2E"/>
  <rect x="176.0" y="164.8" width="8.4" height="19.6" fill="#1F1D2E"/>
  <rect x="184.4" y="164.8" width="8.4" height="19.6" fill="#1F1D2E"/>
  <rect x="192.8" y="164.8" width="8.4" height="19.6" fill="#1F1D2E"/>
  <rect x="201.2" y="164.8" width="8.4" height="19.6" fill="#1F1D2E"/>
  <rect x="209.6" y="164.8" width="8.4" height="19.6" fill="#1F1D2E"/>
  <rect x="218.0" y="164.8" width="8.4" height="19.6" fill="#1F1D2E"/>
  <rect x="226.4" y="164.8" width="8.4" height="19.6" fill="#1F1D2E"/>
  <rect x="234.8" y="164.8" width="8.4" height="19.6" fill="#1F1D2E"/>
  <rect x="243.2" y="164.8" width="8.4" height="19.6" fill="#1F1D2E"/>
  <rect x="251.6" y="164.8" width="8.4" height="19.6" fill="#1F1D2E"/>
  <rect x="260.0" y="164.8" width="8.4" height="19.6" fill="#1F1D2E"/>
  <rect x="268.4" y="164.8" width="8.4" height="19.6" fill="#1F1D2E"/>
  <rect x="276.8" y="164.8" width="8.4" height="19.6" fill="#1F1D2E"/>
  <rect x="285.2" y="164.8" width="8.4" height="19.6" fill="#1F1D2E"/>
  <rect x="293.6" y="164.8" width="8.4" height="19.6" fill="#1F1D2E"/>
  <rect x="302.0" y="164.8" width="8.4" height="19.6" fill="#1F1D2E"/>
  <rect x="310.4" y="164.8" width="8.4" height="19.6" fill="#1F1D2E"/>
  <rect x="318.8" y="164.8" width="8.4" height="19.6" fill="#1F1D2E"/>
  <rect x="327.2" y="164.8" width="8.4" height="19.6" fill="#1F1D2E"/>
  <rect x="335.6" y="164.8" width="8.4" height="19.6" fill="#1F1D2E"/>
  <rect x="344.0" y="164.8" width="8.4" height="19.6" fill="#1F1D2E"/>
  <rect x="352.4" y="164.8" width="8.4" height="19.6" fill="#1F1D2E"/>
  <rect x="360.8" y="164.8" width="8.4" height="19.6" fill="#1F1D2E"/>
  <rect x="369.2" y="164.8" width="8.4" height="19.6" fill="#1F1D2E"/>
  <rect x="8.0" y="184.4" width="8.4" height="19.6" fill="#1F1D2E"/>
  <rect x="16.4" y="184.4" width="8.4" height="19.6" fill="#1F1D2E"/>
  <rect x="24.8" y="184.4" width="8.4" height="19.6" fill="#1F1D2E"/>
  <rect x="33.2" y="184.4" width="8.4" height="19.6" fill="#1F1D2E"/>
  <rect x="41.6" y="184.4" width="8.4" height="19.6" fill="#1F1D2E"/>
  <rect x="50.0" y="184.4" width="8.4" height="19.6" fill="#1F1D2E"/>
  <rect x="58.4" y="184.4" width="8.4" height="19.6" fill="#1F1D2E"/>
  <rect x="66.8" y="184.4" width="8.4" height="19.6" fill="#1F1D2E"/>
  <rect x="75.2" y="184.4" width="8.4" height="19.6" fill="#1F1D2E"/>
  <rect x="83.6" y="184.4" width="8.4" height="19.6" fill="#1F1D2E"/>
  <rect x="92.0" y="184.4" width="8.4" height="19.6" fill="#1F1D2E"/>
  <rect x="100.4" y="184.4" width="8.4" height="19.6" fill="#1F1D2E"/>
  <rect x="108.8" y="184.4" width="8.4" height="19.6" fill="#1F1D2E"/>
  <rect x="117.2" y="184.4" width="8.4" height="19.6" fill="#1F1D2E"/>
  <rect x="125.6" y="184.4" width="8.4" height="19.6" fill="#1F1D2E"/>
  <rect x="134.0" y="184.4" width="8.4" height="19.6" fill="#1F1D2E"/>
  <rect x="142.4" y="184.4" width="8.4" height="19.6" fill="#1F1D2E"/>
  <rect x="150.8" y="184.4" width="8.4" height="19.6" fill="#1F1D2E"/>
  <rect x="159.2" y="184.4" width="8.4" height="19.6" fill="#1F1D2E"/>
  <rect x="167.6" y="184.4" width="8.4" height="19.6" fill="#1F1D2E"/>
  <rect x="176.0" y="184.4" width="8.4" height="19.6" fill="#1F1D2E"/>
  <rect x="184.4" y="184.4" width="8.4" height="19.6" fill="#1F1D2E"/>
  <rect x="192.8" y="184.4" width="8.4" height="19.6" fill="#1F1D2E"/>
  <rect x="201.2" y="184.4" width="8.4" height="19.6" fill="#1F1D2E"/>
  <rect x="209.6" y="184.4" width="8.4" height="19.6" fill="#1F1D2E"/>
  <rect x="218.0" y="184.4" width="8.4" height="19.6" fill="#1F1D2E"/>
  <rect x="226.4" y="184.4" width="8.4" height="19.6" fill="#1F1D2E"/>
  <rect x="234.8" y="184.4" width="8.4" height="19.6" fill="#1F1D2E"/>
  <rect x="243.2" y="184.4" width="8.4" height="19.6" fill="#1F1D2E"/>
  <rect x="251.6" y="184.4" width="8.4" height="19.6" fill="#1F1D2E"/>
  <rect x="260.0" y="184.4" width="8.4" height="19.6" fill="#1F1D2E"/>
  <rect x="268.4" y="184.4" width="8.4" height="19.6" fill="#1F1D2E"/>
  <rect x="276.8" y="184.4" width="8.4" height="19.6" fill="#1F1D2E"/>
  <rect x="285.2" y="184.4" width="8.4" height="19.6" fill="#1F1D2E"/>
  <rect x="293.6" y="184.4" width="8.4" height="19.6" fill="#1F1D2E"/>
  <rect x="302.0" y="184.4" width="8.4" height="19.6" fill="#1F1D2E"/>
  <rect x="310.4" y="184.4" width="8.4" height="19.6" fill="#1F1D2E"/>
  <rect x="318.8" y="184.4" width="8.4" height="19.6" fill="#1F1D2E"/>
  <rect x="327.2" y="184.4" width="8.4" height="19.6" fill="#1F1D2E"/>
  <rect x="335.6" y="184.4" width="8.4" height="19.6" fill="#1F1D2E"/>
  <rect x="344.0" y="184.4" width="8.4" height="19.6" fill="#1F1D2E"/>
  <rect x="352.4" y="184.4" width="8.4" height="19.6" fill="#1F1D2E"/>
  <rect x="360.8" y="184.4" width="8.4" height="19.6" fill="#1F1D2E"/>
  <rect x="369.2" y="184.4" width="8.4" height="19.6" fill="#1F1D2E"/>
  <rect x="8.0" y="223.6" width="8.4" height="19.6" fill="#1F1D2E"/>
  <rect x="16.4" y="223.6" width="8.4" height="19.6" fill="#1F1D2E"/>
  <rect x="24.8" y="223.6" width="8.4" height="19.6" fill="#1F1D2E"/>
  <rect x="33.2" y="223.6" width="8.4" height="19.6" fill="#1F1D2E"/>
  <rect x="41.6" y="223.6" width="8.4" height="19.6" fill="#1F1D2E"/>
  <rect x="50.0" y="223.6" width="8.4" height="19.6" fill="#1F1D2E"/>
  <rect x="58.4" y="223.6" width="8.4" height="19.6" fill="#1F1D2E"/>
  <rect x="66.8" y="223.6" width="8.4" height="19.6" fill="#1F1D2E"/>
  <text x="8.0" y="233.4" fill="#3C3A4C">[</text>
  <text x="16.4" y="233.4" fill="#E0DEF4">Submit</text>
  <text x="66.8" y="233.4" fill="#3C3A4C">]</text>
</svg>
