<svg xmlns="http://www.w3.org/2000/svg" width="142" height="55" viewBox="0 0 142 55">
  <style>
    @import url('https://fonts.googleapis.com/css2?family=Fira+Code:wght@400;700&amp;display=swap');
    text { font-family: Fira Code, Menlo, Monaco, Consolas, monospace; font-size: 14px; dominant-baseline: central; }
    rect { shape-rendering: crispEdges; }
    .bold { font-weight: bold; }
    .italic { font-style: italic; }
    .underline { text-decoration: underline; }
    .strikethrough { text-decoration: line-through; }
  </style>
  <rect width="100%" height="100%" fill="#000000"/>
  <text x="8.0" y="17.8" fill="#E0DEF4">Name</text>
  <text x="50.0" y="17.8" fill="#E0DEF4">↕</text>
  <text x="117.2" y="17.8" fill="#E0DEF4">Ag</text>
  <rect x="8.0" y="27.6" width="8.4" height="19.6" fill="#0000AA"/>
  <rect x="16.4" y="27.6" width="8.4" height="19.6" fill="#0000AA"/>
  <rect x="24.8" y="27.6" width="8.4" height="19.6" fill="#0000AA"/>
  <rect x="33.2" y="27.6" width="8.4" height="19.6" fill="#0000AA"/>
  <rect x="41.6" y="27.6" width="8.4" height="19.6" fill="#0000AA"/>
  <rect x="50.0" y="27.6" width="8.4" height="19.6" fill="#0000AA"/>
  <rect x="58.4" y="27.6" width="8.4" height="19.6" fill="#0000AA"/>
  <rect x="66.8" y="27.6" width="8.4" height="19.6" fill="#0000AA"/>
  <rect x="75.2" y="27.6" width="8.4" height="19.6" fill="#0000AA"/>
  <rect x="83.6" y="27.6" width="8.4" height="19.6" fill="#0000AA"/>
  <rect x="92.0" y="27.6" width="8.4" height="19.6" fill="#0000AA"/>
  <rect x="100.4" y="27.6" width="8.4" height="19.6" fill="#0000AA"/>
  <rect x="117.2" y="27.6" width="8.4" height="19.6" fill="#0000AA"/>
  <rect x="125.6" y="27.6" width="8.4" height="19.6" fill="#0000AA"/>
  <text x="8.0" y="37.4" fill="#E0DEF4">Zoe</text>
  <text x="117.2" y="37.4" fill="#E0DEF4">30</text>
</svg>
